<svg version="1.2" xmlns="http://www.w3.org/2000/svg" viewBox="0 0 500 300" width="200" height="120">
	<title>Logo--svg</title>
	<style>
		.s0 { fill: #d4af37 } 
	</style>
	<g id="Layer">
		<path id="Layer" class="s0" d="m173.6 75.2c-0.9 0.7-1 0.8-1 1.7 0 0.3 0 0.7 0.1 0.8 0 0.1 0.2 0.4 0.4 0.6l0.4 0.4v0.7c0 0.4 0 1.3 0 2l-0.1 1.4-0.2 0.2q-0.4 0.1 0.2 0c0.2 0 0.4-0.1 0.6-0.3l0.2-0.2 0.1-2.1c0-2.4 0.1-2.2-0.5-2.7-0.4-0.4-0.4-0.5-0.4-1.3v-0.7l0.6-0.5c0.6-0.5 0.6-0.5 0.4-0.5-0.1 0-0.3 0.1-0.8 0.5z"/>
		<path id="Layer" class="s0" d="m162.6 83.1c-0.3 0.1-0.7 0.4-0.9 0.7-0.4 0.6 0 1.4 0.7 1.6 0.4 0.1 1 0.1 1.3 0l0.3-0.1v0.8c-0.1 0.7-0.1 0.9-1 3.5-0.5 1.5-1 2.8-1 2.8-0.2 0.3 0 0.7 0.4 1.1l0.2 0.2h0.9 0.8l-0.8 0.3c-1.6 0.8-2 1-2 1.4 0 0.1 0.2 0.9 0.4 1.7 0.3 0.9 0.5 1.8 0.6 2.1 0.1 0.2 0.2 0.5 0.2 0.5 0.1 0.2 0.4 0.1 0.5-0.1 0.2-0.2 0.2-0.2 0.1-0.4 0-0.1-0.1-0.4-0.1-0.7-0.1-0.5-0.8-3.2-0.9-3.4-0.1-0.2 0-0.2 0.6-0.5q1.9-1.1 4.7-1.7c0.7-0.2 0.8-0.3 0-0.1-0.2 0.1-0.4 0.1-0.4 0.1 0 0 0-0.1 0-0.2l0.1-0.3-0.3 0.3c-0.3 0.3-0.4 0.3-2.3 0.3-1.5 0-1.5 0-1.8-0.4q-0.2-0.3-0.1-0.3c0-0.1 0.4-1.3 0.9-2.8 0.8-2.4 0.9-2.8 1-3.4v-0.7 0.6c0 0.4 0 0.8-0.2 1.4l-0.2 0.8v2l0.1 2.1h0.4 0.3v-2.1-2.1l0.1 1.1c0 0.8 0.1 1.3 0.4 2 0.1 0.6 0.3 1 0.3 1 0.1 0.1 0.3 0.1 0.5 0.1 0.4 0 0.5 0 0.4-0.2 0 0-0.4-1.3-0.9-2.8l-0.8-2.7-0.1-1.1q0-1.1 0-0.9c0.1 0.1 0.2 0.1 1.1 0.1 0.8 0 1.1 0 2.2 0.3 1.4 0.2 1.6 0.3 2.1 0.6 0.2 0.2 0.4 0.3 0.6 0.3 0.1 0 0.4-0.2 0.9-0.5 0.4-0.2 0.8-0.4 0.8-0.4 0.1 0 0.2 0 0.2 0.1 0.2 0.1 0.2 0.2 0.2 1.5v1.4l-1.1 0.9c-0.9 0.7-1.3 1-1.8 1.6-0.8 1-1.5 2.2-1.3 2.2 0 0 0.3-0.1 0.7-0.1 0.3 0 1.1-0.1 1.8-0.1l1.2-0.1 0.1-0.2c0.1-0.1 0.2-0.4 0.3-0.5l0.1-0.3v0.2c0.1 0.2 0.1 0.4 0.1 0.6 0 0.3 0 0.3 0.3 0.4 0.5 0 0.5 0.1 0.5-1 0-1.2-0.1-1.1 0.7-1.9 0.2-0.2 0.3-0.4 0.3-0.5q-0.1 0 0-0.1 0.1 0 0.1 0.1 0 0 0.1 0 0.1 0 0.1 1.8v1.8h0.3c0.2 0.1 0.5 0.2 0.8 0.2 0.9 0.2 0.5 0-0.4-0.2-0.1-0.1-0.2-0.3-0.2-2v-2l0.6-0.3c0.4-0.1 0.6-0.3 0.5-0.3-0.1 0-0.5 0.1-0.9 0.3l-0.2 0.1 0.2-0.2c1-0.6 2.9-1.3 4.5-1.6 1-0.1 2.4-0.2 3.3-0.1 1.1 0 1.3 0.1 1.2 0.2 0 0.1-0.4 1.3-0.9 2.8-0.5 1.5-1 2.7-1 2.8 0 0-0.1 0.1-0.1 0.2 0 0.2 0.2 0.5 0.6 0.8l0.2 0.2h1.9 1.9l0.2-0.2c0.3-0.3 0.6-0.7 0.5-0.9 0-0.1 0-0.1-0.2 0.2l-0.2 0.2h-1.7-1.8l-0.2-0.1c-0.3-0.3-0.5-0.6-0.4-0.7 0.1 0 0.3-0.5 1.2-3.4 0.8-2.4 1.1-3 0.6-1.3l-0.2 0.8 0.1 2v2h0.3c0.2 0 0.3 0 0.4-0.1 0 0 0-0.9 0-2.1-0.1-1.2-0.1-2.2 0-2.2 0-0.1 0 0.3 0.1 0.9 0 1 0.1 1.3 0.3 2.3 0.2 0.6 0.4 1.1 0.5 1.1 0 0.1 0.2 0.1 0.5 0.1h0.4l-0.2-0.4c0-0.3-0.4-1.5-0.9-2.9-0.4-1.3-0.7-2.5-0.7-2.5q0-0.1 0.1 0.1c0.2 0.5 0.2 0.6 0.6 0.7 1.2 0.5 2.4 1.5 3.1 2.5 0.5 0.8 0.7 1.4 0.7 2.3v0.8h0.2c0.3 0.1 0.5-0.1 0.6-0.5q0-0.2-0.1-0.1-0.1 0.2 0-0.3c0-0.3 0-0.6 0.1-0.6 0-0.1-0.2-1-0.4-1.4-0.8-1.9-2.8-3.3-5.4-3.9-0.7-0.1-0.9-0.1-2.3-0.1-1.8 0-2.5 0.1-3.9 0.4-1.7 0.4-2.9 1-4.1 2-1.2 0.9-2 2-2.6 3.2-0.2 0.5-0.3 0.6-0.4 0.5 0-0.1-0.4-0.1-1.4-0.1-0.7 0-1.2 0-1.2 0 0 0 0.1-0.3 0.4-0.7 1.2-1.9 3.3-3.5 6-4.5 0.9-0.3 2.6-0.8 3-0.8q0.1 0 0 0c-0.1-0.1-1.1 0.1-1.7 0.3q-0.3 0.1-0.3 0c-0.1-0.1-0.2-0.1-0.7 0.1-0.3 0.1-0.5 0.1-0.5 0.1-0.1 0-0.1-0.2-0.1-0.4v-0.4l0.5-0.6c0.3-0.3 0.6-0.6 0.6-0.7q0.1 0 0.1-0.1c0 0-0.4 0.2-0.8 0.4-0.4 0.3-0.7 0.5-0.8 0.5 0 0-0.3-0.2-0.8-0.5-1.1-0.6-1.1-0.6-0.1 0.4l0.6 0.6v0.6c0 0.6 0 0.6-0.2 0.6-0.1 0-0.3 0.2-0.6 0.3l-0.5 0.3v-1.3c0-1.6 0-1.7-0.5-1.9-0.1 0-0.3-0.1-0.4 0-0.1 0-0.5 0.2-0.9 0.5l-0.7 0.4-0.3-0.2c-0.4-0.3-0.8-0.4-2.1-0.7-1.2-0.2-1.3-0.2-2.8-0.3-1.5 0-1.5 0-1.6 0.1-0.2 0.5-0.5 0.7-1.2 0.7-0.6 0-1-0.3-1-0.9 0-0.5 0.1-0.6 0.4-0.8 0.4-0.1 0.2-0.1-0.2 0z"/>
		<path id="Layer" class="s0" d="m184.6 84c-1.5 0.1-1.7 0.1-2.6 0.3-1.2 0.2-1.6 0.4-2 0.7l-0.3 0.2-0.5-0.3c-1-0.6-1-0.6-1.3-0.6-0.4 0-0.8 0.3-0.8 0.6 0 0.2 0.1 0.2 0.2 0.1 0.1-0.1 0.2 0 1 0.4 0.5 0.4 0.8 0.5 1 0.5q0.4 0 0.3 0c-0.1-0.1 0-0.1 0.2-0.3 0.5-0.3 0.6-0.4 2-0.6 1.2-0.3 1.4-0.3 2.3-0.3h1v0.5q0 0.6 0.1 0.6c0.6 0.1 0.6 0.1 0.6-0.2 0-0.2 0-0.5 0-0.7 0.1-0.3 0.1-0.2 0.1 0.3 0 0.5 0 0.7 0.1 0.7q0.1 0 0.1-0.5c0-0.2 0-0.4 0.1-0.4 0 0 0 0.1 0 0.2 0 0.1 0.1 0.2 0.3 0.2 0.3 0.1 0.9 0.1 1.2 0 0.5-0.1 0.9-0.6 1-1l0.1-0.3-0.2 0.2c-0.2 0.4-0.5 0.5-1 0.5-0.6 0-0.8-0.1-1.1-0.5q-0.2-0.3-0.3-0.3c-0.1 0-0.8 0-1.6 0z"/>
		<path id="Layer" fill-rule="evenodd" class="s0" d="m172.5 92.8c1.7 0.1 2.8 0.3 4.2 0.9 3.1 1.2 5.2 3.5 6 6.5 0.2 1.1 0.2 3.6 0 4.7q-0.4 2-1.3 3.5c-1.5 2.5-4.4 4.4-7.6 5-0.5 0.1-1 0.1-1 0.1-0.1 0 0.1 0 0.4-0.1 0.4 0 0.7-0.1 0.7-0.1 0 0 0-0.4-0.1-0.8-0.5-2.5-0.7-5.8-0.4-6.1 0.1-0.1 0.2-0.1 0.3-0.1 0.1-0.1 0-0.1-0.4-0.4-2.6-1.3-4.5-3.6-5.2-6.1-0.4-1.7-0.4-3.7 0-5.4 0.1-0.3 0.2-0.6 0.1-0.6 0-0.1-0.5 0.1-1 0.3-1.8 0.7-3.1 1.9-3.7 3.4l-0.1 0.4v-0.3c0.1-0.5 0.4-1.1 0.8-1.8 0.4-0.6 0.6-0.8 1.1-1.2 1.1-0.8 2.1-1.3 3.5-1.6 0.4-0.1 1-0.2 1.3-0.2 0.9-0.1 1.5-0.1 2.4 0zm-1.3 0.3c-1.8 0.1-2.1 0.1-2.1 0.3 0 0.1-0.1 0.4-0.2 0.8-0.5 2.1-0.4 4.3 0.5 6.2 1.2 2.9 4.1 5.2 7.9 6.2 1.3 0.4 3.5 0.7 3.6 0.6 0-0.1 0.1-0.2 0.2-0.3l0.2-0.1v0.2c0 0.1-0.6 0.8-0.8 0.9-0.1 0.1-1.4-0.1-2.4-0.3-1.4-0.3-2.8-0.7-3.7-1.1-0.5-0.3-0.5-0.3-0.4-0.1 0 0.1 0.1 0.7 0.1 1.4 0.1 0.8 0.2 1.7 0.2 2 0.1 0.8 0.5 2.9 0.5 2.9 0.1 0.1 0.8-0.2 1.1-0.3 0.5-0.3 0.6-0.4 0.6-0.2 0 0.1 0.1 0.1 0.5-0.1 1.3-0.7 2.6-1.9 3.4-3.1 1-1.6 1.5-3.3 1.7-5.5 0.1-3.1-1-5.7-3.3-7.5-0.4-0.3-0.9-0.7-1.2-0.9-0.5-0.3-0.5-0.3-0.6-0.5 0-0.3-0.1-0.4-0.8-0.6l-0.4-0.1v1.4c0 0.8-0.1 3.1-0.1 5.1 0 3.2 0 3.7-0.1 3.7-0.2-0.1-0.2-1.4-0.3-6.5 0-2.1 0-3.8-0.1-3.8 0 0-1.1-0.2-1.3-0.2q-0.1 0 0 0.1c0.1 0.1 0.3 8.7 0.2 8.7q-0.2 0.1-0.6-0.6l-0.2-0.5-0.1-3.7c0-3.4 0-3.7 0.1-3.8l0.2-0.2h-0.5c-0.2-0.1-0.5-0.1-0.6-0.1-0.2 0.1-0.2 0-0.2-0.1 0-0.2 0-0.2-0.4-0.3-0.2 0-0.5 0-0.6 0z"/>
		<path id="Layer" class="s0" d="m187.6 97q-0.1 0-0.1 0.1 0 0.1-0.1 0.1-0.1 0 0 0.2c0 0.2 0 0.2 0.6 0.2 1 0.2 1.6 0.5 1.9 1.2 0.2 0.5 0.3 3.9 0.1 4.6-0.4 1.3-1.6 2.3-3.4 2.9-0.4 0.1-0.6 0.2-0.6 0.2-0.1 0-0.1-0.1 0-0.3v-0.3l-0.1 0.3c-0.1 0.2-0.1 0.4-0.1 0.4 0.1 0.1 1.2-0.2 1.8-0.5q1.8-0.7 2.7-2.1c0.5-0.8 0.6-1.2 0.6-3.1 0-2.3-0.1-2.8-0.8-3.4-0.4-0.3-0.6-0.4-1.4-0.4-0.4-0.1-0.8-0.1-0.9-0.1 0-0.1-0.2 0-0.2 0z"/>
		<path id="Layer" class="s0" d="m195.2 97.1c-0.4 0.1-0.9 0.6-1.1 1.2-0.1 0.5-0.1 0.8 0 0.3 0.1-0.1 0.2-0.4 0.3-0.5 0.2-0.2 0.9-0.5 1.1-0.5 0.2 0 0.5-0.2 0.5-0.4 0-0.1-0.1-0.1-0.3-0.1-0.2 0-0.4 0-0.5 0z"/>
		<path id="Layer" class="s0" d="m158.4 103.8q-0.2 0-0.2 0.1 0 0-0.1 0.1 0 0 0 0.1c0 0.2 0 0.3 0.2 0.3 0.8 0.2 1.1 0.3 1.3 0.7 0.4 0.6 0.4 0.7 0.5 3.6v2.6l0.4 0.2c2.7 1.9 6 3 9.7 3.3 1.1 0 2.7 0 3.7-0.1 0.4 0 0.4 0 0.4 0.1 0.1 0.1 0.2 0.4 0.3 0.8l0.2 0.8h0.3q0.2 0 0.3-0.2c0.1-0.1 0.6-1.5 0.6-1.7 0-0.1 0.1-0.1 0.6-0.3q5-1.2 7.7-4.6c0.3-0.3 0.6-0.9 0.8-1.2l0.3-0.6 0.8-0.1c2.4-0.5 4.6-1.3 6.6-2.6 0.4-0.2 0.8-0.5 0.9-0.7 0.2-0.2 0.3-0.4 0.2-0.4-0.1 0-0.4 0.2-0.8 0.4-0.4 0.3-0.7 0.5-0.8 0.5-0.1 0.1-0.2 0.1-0.3 0.2-0.2 0.1-1.4 0.7-2.2 1-1 0.3-2.1 0.6-3.4 0.9l-0.9 0.1-0.1 0.3c-0.2 0.5-0.9 1.7-1.4 2.2-3.1 3.5-9.3 5.2-15.3 4.2-2.7-0.4-5.4-1.5-7.4-2.9l-0.3-0.2v-1.5c0-0.8 0-1.5 0-1.4 0.1 0 0.1 0.2 0.1 0.4 0 0.3 0 0.5 0.1 0.5q0.1 0.1 0 0c0 0 0-0.1 0.1-0.2q0.1-0.2 0-0.2c0 0-0.1-0.1 0-0.1q0-0.1 0.1-0.1c0 0 0-0.3 0-0.6 0-0.3 0-0.5 0.1-0.5 0 0 0-0.3 0-0.6 0-0.4 0-0.7-0.1-0.7 0 0 0-0.1 0-0.2q0-0.1 0-0.1 0.1 0 0.1-0.7v-0.7h-0.3c-0.3 0-0.3 0-0.3 0.1 0 0.1 0 0.2 0 0.3 0 0 0 0.2 0.1 0.4 0.1 0.4 0.1 0.9 0 0.8-0.1-0.1-0.4-1-0.3-0.9 0.1 0.1 0.1-0.4 0-0.5q-0.2-0.1-0.1 0.1c0 0.1 0 0.2 0 0.2q-0.1 0.1-0.1 0c0 0-0.1-0.1-0.3-0.3-0.2-0.2-0.3-0.3-0.7-0.3-0.3 0-0.6-0.1-0.7-0.1-0.2 0-0.4-0.1-0.4 0z"/>
		<path id="Layer" class="s0" d="m166.2 103.8c-0.2 0.1-0.7 0.1-1 0.1-0.6 0.1-0.6 0.1-0.6 0.2 0 0.1-0.1 0.2-0.1 0.3q-0.2 0.1-0.1 0.1 0 0 0 0.1c-0.2 0.1-0.4 0.7-0.4 1.1 0 0.3 0 0.3 0 0.1 0.3-0.8 0.8-1.2 1.9-1.4 0.4 0 0.6-0.1 0.7-0.2 0.1-0.1 0.2-0.4 0.1-0.4 0 0-0.2 0-0.5 0z"/>
		<path id="Layer" class="s0" d="m134.5 114.8c-1.9 0.5-3.7 1.7-4.8 3.5-0.7 1.1-0.9 2-0.9 3.3 0 2 0.8 3.5 2.3 4.3l0.3 0.2h2.7 2.7l0.6-0.3c0.3-0.2 0.9-0.5 1.2-0.7l0.6-0.5v0.7 0.7l0.4 0.1c0.3 0 0.4 0.1 0.4 0.1-0.1 0-2.8 0-6.1 0.1-5.8 0-6 0-6.1-0.1 0-0.1-0.1-0.1-0.2-0.1-0.3 0-0.5 0.2-0.4 0.6v0.2l6.1 0.1h6.1v0.2c0 0.6 0.3 0.9 0.8 0.9 0.2 0 0.3 0 0.4-0.2q0.3-0.3 0-0.5c-0.1 0-0.1-0.1-0.1-0.2q0 0-0.1 0c0 0-0.1-0.1-0.1-0.4 0.1-0.4 0.2-0.5 0.3-0.1v0.3h29.4 29.3l0.1 0.4c0 0.5 0.1 0.5 0.3 0.6 0.3 0.2 0.8 0.2 0.8 0q0-0.1 0.1-0.1c0.2 0 0.1-0.3-0.2-0.5-0.2-0.1-0.2-0.2-0.3-0.6l-0.1-0.5h-14.5c-20.4 0-45-0.1-45.1-0.1-0.1-0.1-0.1-2.8 0-3.5 0.1-0.1 0.1-0.2 0.2-0.2 0 0 0 0.1 0 0.2 0.1 0.2 0.1 0.2 0.2-0.2 0.1-0.2 0.2-0.4 0.2-0.6l0.1-0.3h0.7c0.6 0 0.7 0 0.8-0.2q0.2-0.1 0.2-0.3c0-0.2 0-0.2-0.4-0.3-0.3 0-1.8-0.1-1.9 0 0 0-0.5 0-1 0-1.3 0.1-1.3 0.1-1.4 0.1q-0.1 0.1-0.1 0.1c-0.1-0.1-1.1 0-1.2 0.1-0.1 0.1-0.6 0.1-0.6 0q0-0.1-0.3 0c-0.6 0.1-0.8 0.1-0.8 0.2 0 0-0.1 0.1-0.2 0.1q-0.3 0-0.3-0.1c0-0.1-0.3 0-0.5 0.1 0 0.1-0.1 0.1-0.3 0-0.2-0.1-0.3-0.1-0.3-0.2 0.1 0-0.2 0-0.4 0q-0.1 0.1-0.1 0.1 0 0.1-0.1 0.1c0 0 0 0.1 0 0.3 0 0.5 0.3 0.6 1.6 0.4 1.1-0.2 3-0.4 3.8-0.4 0.4 0 0.8-0.1 0.9-0.1h0.4l-0.1 0.4c-0.1 0.7-0.5 1.1-1.5 2-1 0.7-1.7 1.1-2.7 1.4-0.5 0.1-0.5 0.1-0.2 0.1 0.6-0.1 1.4-0.3 1.9-0.5 0.2-0.1 0.4-0.2 0.4-0.2q0.1 0.1-0.7 0.4-0.4 0.2-0.4 0.3c0 0.1-0.1 0.1-0.6 0.2-1.1 0.2-2.5 0.1-3.4-0.3-2.4-0.9-3.4-3.8-2.3-6.4 0.3-0.7 0.5-0.9 0.6-0.9 0 0 0.1 0 0.2 0 0.1 0.1 0.1 0.1-0.1 0.6-0.3 0.5-0.6 1.5-0.6 1.7 0 0.1 0.1-0.1 0.2-0.3 0.7-2.1 2.6-3.8 4.9-4.3 0.7-0.2 1.7-0.2 2.2 0 1.5 0.4 1.7 1.7 0.4 2.8-0.4 0.3-0.5 0.4-0.4 0.6 0 0.2 0 0.2 0.3 0.3 0.3 0 0.5-0.1 0.6-0.1 0.7-0.3 1.5-1.2 1.6-1.8 0-0.3 0-0.3-0.1-0.2-0.1 0.1-0.1 0-0.1-0.4 0-0.4 0-0.6-0.2-0.8q-0.4-0.8-1.4-1.1c-0.4-0.2-0.6-0.2-1.1-0.2-0.3 0-0.5-0.1-0.5-0.1 0 0-0.2 0-0.5 0-0.6 0.1-1 0.1-1 0.2q0 0.1-0.1 0.2-0.1 0 0-0.1c0-0.1 0-0.1-0.2-0.1-0.1 0-0.2 0.1-0.3 0.1-0.1 0.1-0.2 0.1-0.3 0.1q-0.1 0-0.1 0.1 0 0.1 0 0.2-0.1 0-0.1-0.1 0 0-0.1 0-0.1 0-0.1 0.1c0 0.1 0 0.1-0.1 0-0.1-0.1-0.2 0-0.1 0.2 0 0.1 0 0.1-0.2 0.1q-0.2-0.1-0.2 0c0.1 0.1-0.1 0.2-0.2 0.3-0.3 0.2-0.4 0.3-0.6 0.2h-0.2l0.2-0.3c0.8-0.5 1.8-1 2.9-1.3q0.4 0 0.2-0.1c-0.1 0-0.5 0.1-0.9 0.2z"/>
		<path id="Layer" class="s0" d="m194.7 114.7c-0.7 0.2-1.9 0.6-2.5 1-1.7 1.1-3.1 2.9-3.4 4.8-0.2 0.6-0.1 1.9 0 2.5 0.4 1.3 1.1 2.2 2.1 2.8l0.5 0.3h2.7 2.7l0.5-0.3c0.6-0.2 1-0.5 1.5-0.9l0.4-0.3v0.7 0.8h0.4 0.4v-1.4c0-1 0-1.3-0.1-1.3q-0.1 0-0.1 0.1c0 0.1-1.1 1-1.5 1.3-0.2 0.1-0.3 0.1-0.4 0.2 0 0-0.6 0.3-1 0.4-1.6 0.6-3.4 0.6-4.7 0-0.6-0.2-1.5-0.9-1.9-1.4-0.8-1.1-1-2.7-0.6-4.2 0.6-2.5 2.7-4.5 5.4-5.1 0.5-0.1 0.2-0.1-0.4 0z"/>
		<path id="Layer" class="s0" d="m195.4 115.1c-1.4 0.3-2.7 1-3.8 2.2-0.7 0.8-1.4 2.1-1.5 2.8 0 0.3 0 0.3 0.2-0.2 0.4-1.1 1-1.9 2.1-2.8 0.9-0.7 1.5-1 2.5-1.3 1.2-0.3 2.4-0.2 3.1 0.3 0.7 0.4 0.8 1.1 0.3 1.9-0.1 0.2-0.3 0.5-0.5 0.6-0.2 0.1-0.3 0.2-0.3 0.3q0 0-0.1 0c-0.1 0-0.2 0.3-0.1 0.4 0.1 0.1 0.1 0.2 0.5 0.2 0.5 0 0.9-0.3 1.5-0.9 0.3-0.3 0.6-1 0.6-1.2q0-0.2-0.1 0.1c-0.2 0.4-0.8 1-1.3 1.2q-0.8 0.3 0-0.3c0.7-0.6 0.9-1.1 0.9-1.7 0-0.5-0.1-0.8-0.5-1.1-0.3-0.3-0.6-0.5-1.1-0.6-0.6-0.1-1.8-0.1-2.4 0.1z"/>
		<path id="Layer" class="s0" d="m153.1 118.9c-0.1 0-0.1 0.1-0.1 0.1q0 0.1-0.1 0.1c-0.1 0-0.3 0.7-0.3 0.9 0 0.2 0 0.2 0.3 0.3 0.5 0.1 0.7 0.1 1-0.3 0.1-0.2 0.2-0.4 0.2-0.5v-0.2l-0.1 0.2c-0.2 0.2-0.2 0.2-0.4 0.1-0.3 0-0.3 0-0.1-0.3q0.1-0.3 0-0.3-0.1 0 0-0.1c0 0-0.2-0.1-0.4 0z"/>
		<path id="Layer" class="s0" d="m161.5 119c-0.2 0.1-0.4 0.7-0.5 1 0 0.2 0.3 0.3 0.7 0.3 0.4 0.1 0.4 0 0.6-0.2 0.1-0.2 0.3-0.4 0.3-0.5v-0.3l-0.1 0.2c-0.1 0.1-0.1 0.2-0.2 0.2 0 0-0.5-0.1-0.5-0.1 0-0.1 0.1-0.2 0.1-0.3q0.2-0.2 0.1-0.3-0.1-0.1 0-0.1 0 0-0.2 0c-0.1 0-0.2 0-0.3 0.1z"/>
		<path id="Layer" class="s0" d="m223.5 120.3c-0.3 0.1-0.7 0.2-0.9 0.3-0.4 0.1-0.9 0.5-0.9 0.8-0.1 0.3-1.3 1.1-2.1 1.2l-0.2 0.1h0.2c0.3 0 1.1-0.2 1.5-0.4 0.2-0.1 0.6-0.4 0.9-0.6 0.4-0.3 0.5-0.3 0.5-0.5 0-0.4 0.3-0.6 1.3-0.9 0.7-0.2 0.5-0.2-0.3 0z"/>
		<path id="Layer" class="s0" d="m224.1 120.6c-0.4 0.1-0.8 0.3-0.9 0.3-0.3 0.1-0.3 0.4-0.1 0.5 0.2 0.1 0.3 0.1 0.8-0.1 0.3-0.1 0.7-0.1 0.9-0.2 0.2 0 0.3-0.1 0.3-0.1q0-0.1 0.1-0.1c0 0 0.1-0.1 0.1-0.2 0-0.2-0.1-0.3-0.3-0.3-0.1 0-0.6 0.1-0.9 0.2z"/>
		<path id="Layer" class="s0" d="m152.6 120.6q-0.4 0.3-0.5 0.8c0 0.3-0.1 0.3-0.3 0.5-0.6 0.4-0.9 0.5-1.3 0.7-0.5 0.1-0.4 0.2 0.2 0 0.5-0.1 1.2-0.4 1.7-0.8 0.4-0.3 0.4-0.3 0.5-0.6 0.2-0.6 0.2-0.7 0-0.7-0.1 0-0.2 0.1-0.3 0.1z"/>
		<path id="Layer" class="s0" d="m161.1 120.6c-0.2 0.2-0.3 0.3-0.4 0.8l-0.2 0.4-0.6 0.2c-0.3 0.2-0.8 0.4-1.1 0.5-0.5 0.1-0.5 0.1-0.2 0.1 0.2 0 0.6-0.1 0.8-0.2 0.5-0.1 1.9-0.7 1.9-0.9 0 0 0.1-0.3 0.2-0.5l0.1-0.5h-0.2c-0.1 0-0.2 0-0.3 0.1z"/>
		<path id="Layer" class="s0" d="m157.2 120.7c-0.4 0.1-0.7 0.3-0.9 0.7-0.2 0.2-1.1 0.7-1.8 0.9-0.5 0.2-0.5 0.2-0.3 0.2 0.5 0 1.2-0.3 2-0.8 0.6-0.3 0.8-0.4 0.8-0.5 0.1-0.2 0.2-0.3 0.4-0.4 0.4-0.3 0.3-0.3-0.2-0.1z"/>
		<path id="Layer" class="s0" d="m143.5 120.9c-0.3 0.3-0.5 2.2-0.2 2.5 0.1 0.2 0.6 0.3 0.8 0.2 0.2 0 0.4-0.2 0.4-0.4 0-0.1-0.1-0.2-0.3-0.3-0.2-0.1-0.2-0.2-0.2-0.7 0-0.4 0-0.8 0.1-1 0-0.4 0-0.5-0.3-0.5-0.1 0-0.2 0.1-0.3 0.2z"/>
		<path id="Layer" class="s0" d="m146.5 120.8c-0.4 0.1-1 0.4-1.3 0.7-0.3 0.3-0.7 0.8-0.7 1.2v0.3l0.1-0.2q0.2-0.5 0.9-0.9c0.4-0.3 0.9-0.5 0.9-0.4 0.1 0.1 0.7 0.1 0.8 0.1 0.3-0.2 0.5-0.7 0.2-0.7-0.1 0-0.2-0.1-0.2-0.1-0.1-0.1-0.2-0.1-0.7 0z"/>
		<path id="Layer" class="s0" d="m148.2 120.8c-1 0.6-1.3 1.7-0.5 2.3 0.8 0.7 3 0.8 4.2 0.1l0.3-0.2 0.3 0.2c0.7 0.5 2 0.5 3.2-0.2q0.4-0.3 0.5-0.2c0 0.2 0.5 0.6 0.8 0.7 0.5 0.2 1.6 0.2 2.5 0 0.2-0.1 0.5-0.2 0.8-0.3l0.4-0.2 0.3 0.2c0.7 0.5 1.9 0.5 3-0.1l0.3-0.1 0.3 0.2c0.6 0.4 1.7 0.3 2.8-0.3l0.4-0.2 0.1 0.1c0.1 0.1 0.4 0.3 0.6 0.3 0.5 0.2 1.4 0.2 2.1 0 0.4-0.2 0.4-0.2 0.4-0.1 0 0.4 0.9 0.5 1.1 0.2 0.3-0.3 0.3-0.4 0-0.5-0.2-0.1-0.3-0.1-0.3-0.4 0-0.4 0-0.5-0.2-0.3-0.1 0.2-1.2 0.5-1.6 0.6-0.5 0-1.1-0.2-1.3-0.4-0.4-0.4-0.4-0.5-0.5-0.3-0.1 0.1-1.2 0.6-1.6 0.7-0.6 0.2-1 0.1-1.3-0.1q-0.2-0.2-0.3-0.3c0-0.2 0-0.2-0.5 0.1q-1 0.5-1.8 0.5c-0.6 0-0.9-0.1-1.1-0.5-0.1-0.1-0.2-0.3-0.3-0.3 0 0-0.2 0.1-0.4 0.2-0.6 0.5-2 0.8-2.6 0.7-0.8-0.1-1.4-0.5-1.4-1 0-0.2-0.1-0.2-0.4 0-0.4 0.3-1.1 0.7-1.5 0.8-0.3 0.1-0.5 0.1-0.9 0.1-0.6 0-0.9-0.2-1.1-0.5 0-0.2-0.1-0.3-0.1-0.3-0.1 0-0.3 0.1-0.5 0.2q-1 0.8-2.6 0.7c-1.4-0.1-2-0.8-1.5-1.7 0-0.1 0.2-0.3 0.3-0.4l0.2-0.1h-0.2c-0.1 0-0.3 0-0.4 0.1z"/>
		<path id="Layer" class="s0" d="m179 120.8c-0.1 0-0.3 0.2-0.4 0.3-0.3 0.3-1.4 0.9-2 1.1-0.3 0.1-0.3 0.1-0.2 0.1 0.5 0 2.3-0.8 2.6-1.2 0.1-0.1 0.3-0.2 0.4-0.3 0.3-0.1 0.3-0.1 0.1-0.1-0.1 0-0.3 0-0.5 0.1z"/>
		<path id="Layer" class="s0" d="m203.7 121c-0.7 0.6-1 1.1-0.9 1.7 0.1 0.4 0.5 0.7 0.8 0.8 0.3 0.1 0.9 0.1 1.3 0.1 0.6-0.2 1.1-0.7 1.2-1.2l0.1-0.2 0.5-0.1c0.3 0 0.7 0 0.9 0l0.4-0.1v0.5c0.1 0.4 0.1 0.5 0.3 0.7 0.2 0.1 0.3 0.1 0.6 0.1 0.3 0 0.3 0 1-0.6l0.7-0.7 0.2 0.4c0.2 0.5 0.4 0.7 0.8 0.7 0.3 0 0.5-0.1 1-0.4l0.6-0.4 0.2 0.3c0.1 0.1 0.4 0.3 0.6 0.4 0.4 0.1 0.5 0.2 1.2 0.2 0.6 0 0.7-0.1 1.1-0.2 0.5-0.2 0.5-0.2 0.6-0.1 0.1 0.3 0.6 0.5 1 0.6 0.4 0.1 0.7 0.1 1.3 0.1 1 0 1.4 0 2.1-0.4l0.3-0.2v0.2c0 0.1 0.1 0.2 0.2 0.3 0.3 0.2 2.3 0.2 2.8 0 0.3-0.1 0.6-0.5 0.6-0.7 0-0.2 0-0.2-0.3-0.1-0.3 0.2-1.2 0.3-1.7 0.2-0.6 0-1.1-0.3-1-0.4 0-0.1 0.1-0.1 0.4 0 0.2 0.1 0.4 0.1 0.8 0.1 0.7 0 1.2 0 1.3-0.1 0-0.1-0.4-0.2-0.8-0.4-0.4-0.2-0.9-0.4-1-0.4-0.3-0.2-0.5-0.2-0.5 0 0 0.1-0.9 0.8-1.4 1-0.7 0.3-1.6 0.3-2.3 0.2-0.5-0.2-1-0.5-1.1-0.8 0-0.1-0.1-0.2-0.2-0.2 0 0-0.3 0.1-0.5 0.2-0.3 0.1-0.6 0.3-0.7 0.3-0.4 0.1-1.1 0-1.5-0.1-0.2-0.1-0.6-0.4-0.8-0.7-0.1-0.2-0.3-0.1-0.8 0.2-0.7 0.4-0.9 0.5-1.1 0.5-0.1 0-0.4-0.3-0.5-0.7-0.1-0.4-0.2-0.5-0.4-0.4-0.1 0-0.5 0.3-1 0.7-0.8 0.6-0.8 0.7-1 0.6q-0.3-0.1-0.2-0.9c0-0.2 0-0.4-0.1-0.4 0 0-0.2 0.1-0.5 0.1-0.3 0.1-0.9 0.1-1.4 0.2-1 0-0.9 0-0.8 0.3 0.2 0.5-0.6 1.1-1.4 1.1-0.4 0-0.6-0.1-0.9-0.4-0.3-0.4-0.1-1.3 0.4-1.4 0.1-0.1 0.2-0.2 0.2-0.2 0-0.1 0-0.2 0.1-0.2q0 0-0.2 0c-0.1 0-0.3 0.1-0.6 0.3z"/>
		<path id="Layer" class="s0" d="m217.6 120.8c-0.1 0.1-0.4 0.3-0.6 0.5-0.3 0.4-0.4 0.4-1.2 0.7-0.4 0.1-0.6 0.2-0.5 0.2 0.3 0 0.9-0.1 1.6-0.4 0.6-0.2 0.7-0.3 0.7-0.5 0.1-0.1 0.3-0.3 0.4-0.4 0.3-0.2 0.3-0.2 0.1-0.2-0.1 0-0.3 0-0.5 0.1z"/>
		<path id="Layer" class="s0" d="m157.9 120.9c-0.3 0.2-0.6 0.6-0.6 0.9v0.2l0.2-0.2 0.2-0.2v0.2c0.1 0.1 0.1 0.1 0.4 0.2 0.2 0 0.4-0.1 0.5-0.1 0.3-0.1 0.6-0.4 0.6-0.6 0-0.1-0.2-0.1-0.5 0-0.2 0-0.2 0-0.1-0.1 0.2-0.4-0.2-0.5-0.7-0.3z"/>
		<path id="Layer" class="s0" d="m171.3 121c-0.1 0.1-0.1 0.3-0.1 0.4 0 0.2-0.6 0.5-1.5 0.8l-0.3 0.1 0.4-0.1c0.7 0 2.2-0.7 2.2-1 0-0.2-0.1-0.3-0.4-0.3q-0.2 0-0.3 0.1z"/>
		<path id="Layer" class="s0" d="m199.7 120.9c-0.9 0-3.3 0.3-4.2 0.4-1.5 0.2-1.6 0.2-1.8 0.1-0.2-0.1-0.2-0.1-0.2-0.2 0 0 0 0-0.2 0-0.2 0-0.5 0.2-0.5 0.5 0 0.2 0.3 0.5 0.6 0.5 0.1 0 0.8-0.1 1.6-0.2 1.1-0.1 2.2-0.2 4.1-0.4h0.4v0.3c-0.2 0.7-0.4 1.2-1.3 1.9-0.8 0.7-1.9 1.3-2.9 1.5-0.7 0.2-0.5 0.3 0.2 0.1 1.7-0.4 3.3-1.4 4.4-2.8 0.2-0.3 0.3-0.4 0.4-1 0.1-0.5 0.1-0.6 0-0.7q-0.1 0-0.2 0c0 0-0.2 0-0.4 0z"/>
		<path id="Layer" class="s0" d="m200.9 120.9q-0.1 0.1 0 0.2c0 0 0 0.2 0 0.4 0 0.2 0.1 0.3 0.1 0.2 0-0.1 0.1-0.1 0.7-0.1 0.7 0 0.7 0 0.9-0.2 0.2-0.1 0.3-0.3 0.1-0.5-0.1 0-1.7-0.1-1.8 0z"/>
		<path id="Layer" class="s0" d="m165.3 121.1c-0.2 0.1-0.6 0.3-0.7 0.4-0.2 0.2-1.2 0.7-1.8 0.9l-0.4 0.1h0.3c0.2 0 0.5-0.1 0.7-0.2 0.6-0.2 1.6-0.7 1.8-0.9 0.1-0.1 0.3-0.2 0.6-0.3 0.3-0.1 0.3-0.2 0.2-0.2-0.1 0-0.4 0.1-0.7 0.2z"/>
		<path id="Layer" class="s0" d="m174.5 121.2c-1 0.2-2.3 1-2.2 1.4 0.1 0.1 0.1 0.1 0.3-0.1 0.3-0.2 0.9-0.4 1.4-0.6h0.3v0.3q0 1.1 1.8 1.1c0.6 0 1.1-0.1 1.7-0.4l0.3-0.1 0.2 0.2c0.5 0.7 2.6 0.9 3.9 0.4 0.6-0.2 1.3-0.8 1.6-1.3 0.4-0.6 0.4-0.9 0.1-0.4-0.5 0.6-1.4 1.1-2.4 1.3-0.5 0-1.4-0.1-1.9-0.2-0.3-0.2-0.6-0.5-0.7-0.7-0.1-0.3-0.1-0.3-0.5 0-0.5 0.3-1.1 0.5-1.7 0.5-0.6 0.1-1 0-1.3-0.3-0.2-0.2-0.3-0.3-0.3-0.7 0-0.5 0-0.5-0.6-0.4z"/>
		<path id="Layer" class="s0" d="m204.3 121.4c-0.2 0.3-0.3 0.9-0.2 0.7 0.1-0.1 0.2-0.1 0.4-0.1 0.3 0.1 0.4 0.1 0.3 0.3 0 0.1-0.1 0.2-0.2 0.3l-0.2 0.1h0.2c0.6 0 1.2-0.5 1-1 0-0.2-0.1-0.3-0.5-0.4-0.3-0.1-0.6-0.1-0.6-0.1 0 0-0.1 0.1-0.2 0.2z"/>
		<path id="Layer" class="s0" d="m166.3 121.4c-0.6 0.1-0.9 0.4-0.9 0.8 0 0.1 0 0.1 0.3 0 0.4-0.2 0.9-0.3 0.9-0.3 0 0.1-0.2 0.2-0.5 0.3-0.6 0.2-0.6 0.2-0.3 0.2 0.6-0.1 2.3-0.9 2.3-1.1-0.1-0.1-1.3-0.1-1.8 0.1z"/>
		<path id="Layer" class="s0" d="m149.7 121.5c-0.3 0.3-0.7 0.4-0.7 0.3 0 0-0.1 0-0.3 0.1-0.2 0.1-0.3 0.2-0.3 0.2 0 0 0.1 0.1 0.3 0.3 0.3 0.2 0.3 0.2 0.5 0.1 0.4-0.2 0.9-0.8 0.8-1 0-0.1 0-0.1-0.3 0z"/>
		<path id="Layer" class="s0" d="m219.2 121.6c-0.4 0.2-0.8 0.4-1 0.4-0.4 0-0.4 0.1-0.1 0.3l0.3 0.3 0.3-0.1c0.3-0.2 0.7-0.7 0.7-0.9q0-0.2 0-0.2c0 0-0.1 0.1-0.2 0.2z"/>
		<path id="Layer" class="s0" d="m202.3 126.3c-1 0-1.9 0-1.9 0 0 0 0.1 0.2 0.1 0.4l0.1 0.3h13.1c11.5 0 13 0 13-0.1q0.1-0.1 0.1-0.1c0.2 0 0.1-0.5 0-0.5-0.1-0.1-20.6 0-24.5 0z"/>
		<path id="Layer" class="s0" d="m149.2 128.4c-0.1 0-0.2 0.1-0.2 0.1 0 0.1-0.2 0.6-0.5 1.1-0.4 0.7-0.6 1-0.7 1.1-0.2 0-0.4 0.3-0.3 0.5 0 0.1 0.1 0.1 0.7 0.1 0.6 0 0.8 0 0.9-0.4 0-0.2 0-0.2-0.2-0.2-0.2-0.1-0.3-0.1-0.2-0.2 0-0.2 0.3-0.6 0.3-0.6 0 0 0 0.2-0.1 0.3-0.1 0.3-0.1 0.6 0.1 0.4q0-0.1 0.4-0.1c0.3 0 0.3 0 0.4 0.1q0.1 0.2 0 0.3c0 0-0.1 0.1 0 0.2v0.2h1.8c1.7 0 1.8 0 2.1-0.2 0.5-0.2 1.1-0.8 1.1-1.1v-0.2l-0.1 0.2c-0.1 0-0.2 0.1-0.3 0.2l-0.2 0.1 0.2-0.3c0.2-0.2 0.2-0.7 0-1-0.2-0.5-0.8-0.7-1.7-0.7-0.4 0.1-0.4 0.1-0.4 0.2 0 0.1 0 0.3 0 0.3 0 0.2 0.1 0.2 0.4 0.2 0.3 0 0.4 0 0.7 0.2 0.5 0.4 0.4 1.1-0.1 1.3l-0.3 0.1h0.2c0.2 0 0.4-0.1 0.6-0.1 0.3-0.2 0.4-0.2 0.1 0-0.1 0.1-0.4 0.1-1 0.1l-0.8 0.1v-1.2-1.1l-0.3-0.1q-0.6-0.1-0.6 0.1-0.1 0-0.1 0c-0.1 0-0.1 0.1-0.1 0.3 0 0.1 0 0.2 0.1 0.2 0.2 0 0.2 0.1 0.2 0.9 0 0.5 0 0.9 0 0.9 0 0-0.2 0-0.3-0.1q-0.2 0-0.3-0.2c0-0.1-0.1-0.3-0.2-0.4 0-0.2-0.2-0.5-0.4-0.8-0.1-0.3-0.3-0.6-0.3-0.6 0 0-0.1-0.1-0.1-0.2 0-0.2 0-0.2-0.2-0.2q-0.2 0-0.3 0.2z"/>
		<path id="Layer" class="s0" d="m158.9 128.3c-0.1 0-0.4 0.1-0.5 0.2l-0.3 0.1 0.1-0.1c0-0.2-0.1-0.2-0.4-0.1 0 0-0.3 0.5-0.7 1.1-0.6 1.1-0.6 1.1-0.7 1 0-0.1-0.3-0.6-0.6-1.1-0.3-0.5-0.5-1-0.6-1-0.1 0-0.3-0.1-0.5-0.1-0.3-0.1-0.4 0-0.4 0q0 0.1-0.1 0.1c0 0 0 0.1 0.1 0.2 0.3 0.2 0.5 0.5 0.5 0.7 0 0.1 0.2 0.6 0.5 1.1 0.5 0.9 0.5 0.9 0.8 0.9 0.3 0 0.2 0.1 1.1-1.5 0.4-0.7 0.6-1 0.7-0.9 0 0-0.1 0.1-0.1 0.2-0.2 0.3-0.2 0.9-0.1 1.3 0.1 0.3 0.5 0.7 0.9 0.8 0.2 0.1 0.4 0.1 1 0.1 0.6 0 0.8 0 1-0.2 0.2-0.1 0.4-0.3 0.5-0.4q0.3-0.4 0.3-0.2c0 0.2 0.5 0.6 0.8 0.7 0.5 0.2 1.4 0.2 1.9 0 0.1-0.1 0.3-0.1 0.3-0.1q0 0 0 0.1c0.1 0.1 0.2 0.1 0.7 0.1 0.6 0 0.6 0 0.8-0.2 0.2-0.2 0.1-0.3-0.2-0.4-0.1-0.1-0.3-0.1-0.3-0.1q0 0 0.1-0.1c0.1-0.1 0.3-0.6 0.6-1 0.4-0.9 0.4-0.9 0.5-0.9 0 0.1-0.1 0.3-0.2 0.6-0.2 0.2-0.3 0.5-0.3 0.5 0 0 0.2 0 0.4 0 0.7 0 0.8 0.1 0.1 0.1h-0.6l-0.1 0.4c-0.1 0.2-0.1 0.3-0.1 0.4q0.1 0 0.1-0.1c0-0.1 0.7-0.1 0.8 0 0 0.1 0 0.3 0 0.4v0.4h0.7c0.6 0 0.7 0 0.8-0.1l0.1-0.1 0.3 0.1c0.5 0.2 1.7 0.1 2 0 0.3-0.2 0.6-0.6 0.7-0.8v-0.3l-0.1 0.2c-0.4 0.4-1.3 0.5-2 0.3-0.5-0.3-0.8-1-0.6-1.6q0.1-0.5 0.7-0.7c0.3-0.1 0.2-0.1-0.3 0-0.9 0.2-1.6 1.3-1.1 2 0.1 0.2 0.2 0.3 0.3 0.3l0.2 0.1h-0.2c-0.2 0-0.6-0.1-0.6-0.2 0-0.1-0.8-1.8-0.9-1.9-0.1 0-0.1-0.1-0.1-0.2 0-0.2 0-0.2-0.2-0.2-0.2 0-0.3 0.2-1 1.3-0.3 0.7-0.5 0.9-0.5 0.8v-0.1l-0.2 0.1c-0.4 0.4-1.1 0.5-1.7 0.3-0.3-0.1-0.7-0.4-0.8-0.6-0.2-0.5 0-1.2 0.2-1.5 0.1 0 0.3-0.1 0.5-0.2 0.3-0.1 0.1-0.2-0.3 0q-1.1 0.2-1.1 1.2c0 0.5-0.2 0.7-0.7 1-0.7 0.3-1.4 0.3-1.9-0.1-0.3-0.2-0.5-0.5-0.5-1 0-0.5 0.3-0.9 0.8-1.1 0.2-0.1 0.3-0.1 0.1-0.1-0.1 0-0.3 0-0.4 0.1z"/>
		<path id="Layer" class="s0" d="m174.1 128.3c-0.2 0.2-1.3 2.2-1.3 2.3 0 0.1-0.1 0.1-0.2 0.1-0.3 0-0.4 0-0.3-1.2 0-0.6-0.1-1-0.1-1.1-0.1 0-0.3-0.1-0.4-0.1-0.3 0-0.4 0-0.5 0.1-0.2 0.1-0.2 0.5 0 0.5 0.1 0 0.1 0.2 0.1 0.9 0 0.7 0 0.8-0.2 1-0.1 0.2-0.1 0.3-0.1 0.4 0.1 0.1 0.3 0.1 1.3 0.1h1.3l0.1-0.2c0.2-0.3 0.1-0.4-0.2-0.4l-0.3-0.1 0.2-0.3c0.3-0.5 1-1.8 1-2 0-0.2-0.3-0.2-0.4 0z"/>
		<path id="Layer" class="s0" d="m182 128.4c0 0-0.2 0.3-0.4 0.6-0.1 0.3-0.4 0.8-0.5 1.1-0.2 0.3-0.4 0.5-0.4 0.5-0.1 0-0.2 0.1-0.2 0.1q0 0.1-0.1 0.1c-0.1 0-0.1 0.3 0 0.4 0 0.1 0.1 0.1 0.6 0.1 0.6 0 0.6 0 0.8-0.2 0.1-0.1 0.1-0.2 0.1-0.3-0.1-0.1-0.4-0.2-0.7-0.1h-0.3l0.2-0.1c0.3 0 0.3-0.1 1.1-1.5 0.2-0.4 0.3-0.8 0.3-0.8-0.1-0.2-0.3-0.1-0.5 0.1z"/>
		<path id="Layer" class="s0" d="m184.5 128.3c-0.1 0-0.2 0.1-0.4 0.3-0.2 0.2-0.2 0.3-0.2 0.6v0.4l0.6 0.4c0.3 0.3 0.6 0.5 0.6 0.6 0 0.1 0.3 0.1 0.5-0.1 0.3-0.1 0.4-0.4 0.2-0.5 0-0.1-0.3-0.3-0.6-0.6-0.6-0.4-0.7-0.6-0.5-0.9 0.1-0.1 0.2-0.2 0.2-0.3q0.1 0 0 0c-0.1 0-0.3 0-0.4 0.1z"/>
		<path id="Layer" class="s0" d="m186.7 128.3c-0.1 0-0.3 0.1-0.5 0.3-0.2 0.2-0.2 0.3-0.2 0.6v0.4l0.6 0.4c0.3 0.3 0.6 0.5 0.6 0.6 0 0.1 0.3 0.1 0.6-0.1 0.2-0.1 0.3-0.4 0.2-0.5-0.1-0.1-0.4-0.4-0.7-0.6-0.3-0.2-0.5-0.4-0.5-0.5-0.1-0.2 0-0.5 0.2-0.6 0.1-0.1 0.1-0.1 0-0.1-0.1 0-0.2 0-0.3 0.1z"/>
		<path id="Layer" class="s0" d="m191.2 128.3c-0.4 0.3-0.5 0.6-0.5 1.1 0 0.2 0 0.2 0.8 0.8 0.2 0.2 0.4 0.3 0.4 0.4 0 0.1 0.6 0 0.7-0.2 0.2-0.3 0.1-0.5-0.6-1-0.5-0.4-0.6-0.5-0.6-0.7q0-0.2 0.2-0.3l0.2-0.2h-0.2c-0.1 0-0.2 0.1-0.4 0.1z"/>
		<path id="Layer" class="s0" d="m193.5 128.3c-0.1 0-0.3 0.1-0.4 0.3-0.2 0.2-0.3 0.3-0.3 0.6 0 0.3 0.2 0.6 0.3 0.6 0.1 0 0.9 0.7 0.9 0.8 0 0.1 0.7 0 0.7-0.2 0.2-0.3 0.1-0.5-0.5-1-0.7-0.5-0.7-0.5-0.6-0.7q0-0.3 0.2-0.4c0.1-0.1 0.1-0.1 0-0.1-0.1 0-0.2 0-0.3 0.1z"/>
		<path id="Layer" class="s0" d="m196.2 128.3c-0.4 0.1-0.7 0.2-0.9 0.6-0.4 0.4-0.4 0.7-0.3 1 0 0.1 0 0.3 0 0.4-0.1 0.4-1 0.5-1.4 0.2-0.1 0-0.2-0.2-0.2-0.3 0-0.1-0.1-0.1-0.2-0.1-0.2 0-0.2 0-0.3 0.2-0.2 0.3-0.5 0.4-0.9 0.4-0.4 0-0.7-0.2-0.7-0.5 0-0.1-0.1-0.1-0.2-0.1-0.2 0-0.2 0.1-0.3 0.3l-0.2 0.3h-0.7c-0.8 0-0.9-0.1-0.8-0.1 0-0.1 0-0.5 0-1.2v-1l-0.2-0.1c-0.4-0.1-0.6 0-0.8 0.2l-0.1 0.2-0.1-0.2c-0.1-0.2-0.1-0.2-0.4-0.2-0.6 0-0.7 0.4-0.3 0.8 0.3 0.2 0.6 0.2 0.8-0.1 0.1-0.1 0.1-0.2 0.2-0.1 0.1 0.1 0.2 0.2 0.2 0.9 0 0.7-0.1 0.8-0.2 1-0.1 0.1-0.2 0.2-0.1 0.3v0.2h1.1 1.1l0.2-0.2q0.1-0.1 0.1 0c0 0.1 0.5 0.2 1.1 0.2 0.5 0 0.5 0 0.8-0.2 0.2-0.2 0.3-0.2 0.3-0.1 0 0.2 0.3 0.3 1 0.3 0.5 0 0.6 0 0.9-0.2 0.1-0.2 0.3-0.3 0.3-0.4q-0.1-0.2 0.3 0.2c0.4 0.3 0.7 0.4 1.6 0.4 0.6 0 0.7 0 1.1-0.2 0.3-0.2 0.8-0.8 0.8-1.1v-0.2l-0.1 0.2c-0.1 0.2-0.5 0.5-0.9 0.6-0.3 0.1-1 0.1-1.3 0-0.4-0.1-0.7-0.5-0.8-0.8-0.1-0.7 0.1-1.2 0.7-1.5 0.3-0.1 0.4-0.1 0.2-0.1-0.1 0-0.3 0-0.4 0.1z"/>
		<path id="Layer" class="s0" d="m204.3 128.4c0 0-0.4 0.6-0.7 1.2-0.3 0.6-0.6 1.1-0.6 1.1 0 0-0.1 0-0.3 0-0.1-0.1-0.2-0.1-0.3-0.1q-0.1 0.1 0 0c0.1-0.1 0.2-2.1 0.1-2.2-0.1 0-0.3-0.1-0.5-0.1-0.3-0.1-0.3 0-0.5 0.1-0.1 0.2-0.1 0.4 0 0.5 0.2 0.1 0.2 0.1 0.2 0.9 0 0.7 0 0.8 0.1 0.8 0.2 0.1 0.2 0.1 0 0.1-0.3 0-0.6-0.2-1-0.6-0.3-0.3-0.5-0.5-0.6-0.5-0.1-0.1-0.2-0.1-0.2-0.1-0.2-0.1-0.2 0-0.2 0.4 0 0.5 0.1 0.7 0.3 0.7q0.1 0.1 0.1 0.1 0 0.1-0.1 0.1c0 0-0.1-0.1-0.2-0.1-0.3-0.1-0.3-0.1-0.5 0h-0.2l0.2-0.1c0.1 0 0.2-0.1 0.2-0.1 0 0 0.1-0.5 0.1-1.1 0-1.1 0-1.1-0.6-1.1-0.3-0.1-0.4 0-0.4 0q0 0.1 0 0.1c-0.2 0-0.2 0.3 0 0.5 0.2 0.1 0.2 0.2 0.2 0.9 0 0.5-0.1 0.8-0.1 0.8q-0.1 0.1-0.1 0.1 0 0.1 0 0.1c-0.2 0-0.2 0.3-0.1 0.4 0 0.1 0.1 0.1 0.7 0.1h0.6l0.2-0.2 0.1-0.2 0.2 0.1c0.4 0.3 0.7 0.3 2.1 0.3h1.4l0.2-0.2c0-0.1 0.1-0.2 0.1-0.3-0.1-0.1-0.4-0.2-0.7-0.1h-0.3l0.3-0.1c0.2-0.1 0.4-0.3 1.1-1.7 0.2-0.4 0.2-0.2 0 0.3-0.1 0.2-0.2 0.4-0.2 0.5 0 0 0.1 0 0.3 0 0.6 0 0.7 0.1 0.1 0.1h-0.6l-0.1 0.4c-0.1 0.2-0.1 0.3-0.1 0.4q0.1 0 0.1-0.1c0 0 0.2 0 0.4 0q0.6 0 0.4 0.4c-0.1 0.3 0 0.4 0.8 0.4 0.6 0 0.6 0 0.7-0.2 0.3-0.3 0.2-0.4-0.2-0.4-0.2-0.1-0.3-0.2-0.3-0.2 0-0.1-0.9-1.8-1-1.9 0 0-0.1-0.1-0.1-0.2 0-0.2 0-0.2-0.1-0.2q-0.2 0-0.4 0.2z"/>
		<path id="Layer" class="s0" d="m156.7 128.5c-0.1 0.1-0.1 0.2-0.1 0.3 0.1 0.1 0.1 0.2-0.1 0.5-0.2 0.4-0.2 0.5-0.2 0.7 0.1 0.2 0.2 0.3 0.2 0.3 0.2 0 1.1-1.9 1-1.9 0-0.1-0.2-0.1-0.4-0.1-0.2-0.1-0.3 0-0.4 0.2z"/>
		<path id="Layer" class="s0" d="m177 128.4c-0.1 0.2-0.1 0.4 0.1 0.5 0.1 0 0.1 0.2 0.1 0.9 0 0.7 0 0.8-0.2 1-0.1 0.2-0.1 0.3-0.1 0.4 0.1 0.1 0.3 0.1 1.1 0.1 1.1 0 1.3 0 1.3-0.1q0-0.1 0.1-0.1c0.1 0 0.3-0.6 0.3-0.7q0-0.2-0.1 0.1l-0.1 0.2h-1c-0.5 0-0.9 0-0.8-0.1 0.1 0 0.2 0 0.3-0.1 0-0.1 0-2.1-0.1-2.1 0-0.1-0.2-0.1-0.4-0.1-0.3-0.1-0.3 0-0.5 0.1z"/>
		<path id="Layer" class="s0" d="m159.2 128.4c-0.3 0.2-0.5 0.5-0.5 0.8q0 0.2 0.1 0.1c0-0.1 0.1-0.2 0.3-0.3 0.6-0.2 1.3 0.2 1.3 0.9 0 0.3-0.1 0.5-0.5 0.7-0.2 0-0.2 0 0 0 0.2 0 0.7-0.1 0.9-0.2 0.7-0.5 0.6-1.7-0.3-2-0.3-0.1-1-0.1-1.3 0z"/>
		<path id="Layer" class="s0" d="m163 128.4c-0.3 0.1-0.6 0.5-0.6 0.8 0 0.2 0 0.2 0.1 0.1 0-0.2 0.4-0.4 0.7-0.4 0.3 0 0.6 0.2 0.8 0.5 0.2 0.2 0.4 0.2 0.6 0 0.3-0.3 0.3-0.3 0.1-0.6q-0.2-0.3-0.4-0.4c-0.3-0.1-1-0.1-1.3 0z"/>
		<path id="Layer" class="s0" d="m169.4 128.4c-0.3 0.2-0.6 0.5-0.6 0.9-0.1 0.2-0.1 0.2 0 0.1 0.2-0.6 1.3-0.6 1.6 0 0.1 0.2 0.5 0.2 0.7 0 0.1-0.2 0.1-0.4-0.1-0.7-0.1-0.4-1.1-0.5-1.6-0.3z"/>
		<path id="Layer" class="s0" d="m178.7 128.4h-0.5v0.3c0 0.3 0 0.3 0.3 0.3 0.2 0 0.3 0.1 0.2 0.3-0.1 0.1 0 0.1 0.2 0.1q0.2 0 0.2-0.1 0-0.1 0.1-0.1 0.1 0 0.1-0.1 0-0.1 0.1-0.1 0.1 0 0.1-0.1c0-0.2-0.2-0.6-0.3-0.6-0.1 0-0.3 0.1-0.5 0.1z"/>
		<path id="Layer" class="s0" d="m185 128.4c-0.2 0.2-0.2 0.4 0.1 0.7 0.2 0.2 0.5 0.2 0.7-0.1 0.2-0.1 0.2-0.2 0-0.4-0.1-0.2-0.1-0.2-0.4-0.3-0.2 0-0.3 0-0.4 0.1z"/>
		<path id="Layer" class="s0" d="m189.8 128.4h-0.5l0.1 0.3c0 0.3 0 0.3 0.2 0.3 0.2 0 0.4 0.2 0.3 0.3-0.2 0-0.1 0.1 0.1 0.1 0.2 0 0.2 0 0.2-0.1q0.1-0.1 0.1-0.1c0 0 0.1-0.1 0.2-0.2 0.1-0.2 0.1-0.2 0.1-0.3-0.1-0.1-0.1-0.2-0.2-0.3q0-0.1-0.1-0.1c0 0-0.3 0.1-0.5 0.1z"/>
		<path id="Layer" class="s0" d="m191.8 128.4c-0.1 0-0.2 0.3-0.2 0.4 0.1 0 0.2 0.2 0.3 0.3 0.3 0.2 0.6 0.2 0.8-0.1 0.1-0.1 0.1-0.2 0-0.4-0.1-0.2-0.2-0.3-0.5-0.3-0.2 0-0.3 0-0.4 0.1z"/>
		<path id="Layer" class="s0" d="m194 128.4c-0.2 0-0.3 0.3-0.3 0.4 0.1 0 0.2 0.2 0.3 0.3 0.3 0.2 0.6 0.2 0.8-0.1 0.1-0.1 0.1-0.1 0-0.4-0.1-0.2-0.2-0.2-0.4-0.3-0.2 0-0.4 0-0.4 0.1z"/>
		<path id="Layer" class="s0" d="m196.6 128.4q-0.5 0.3-0.6 0.8 0 0.3 0 0.1c0.2-0.2 0.5-0.4 0.8-0.4 0.2 0 0.6 0.2 0.8 0.5 0.3 0.4 0.1 0.9-0.4 1.1l-0.2 0.2 0.3-0.1c0.5 0 0.8-0.2 1.1-0.6q0.4-0.6 0-1.2c-0.4-0.4-1.3-0.6-1.8-0.4z"/>
		<path id="Layer" class="s0" d="m199.8 128.7c0 0.2 0.1 0.3 0.2 0.3 0.1 0.1 0.2 0.1 0.2 0.3 0 0.1 0 0.2 0.2 0.1 0.5 0 0.7-0.3 0.6-0.7-0.1-0.3-0.3-0.3-0.8-0.3h-0.4z"/>
		<path id="Layer" class="s0" d="m178.2 129.8c0 0.3 0.1 0.4 0.2 0.4q0.1 0 0.1 0 0.1 0.1 0.3 0.1h0.3l-0.2 0.2-0.2 0.1h0.2q0.3 0 0.5-0.2 0.3-0.2 0-0.2c-0.1 0-0.1-0.1-0.2-0.4v-0.3h-0.5-0.5z"/>
		<path id="Layer" class="s0" d="m189.3 129.6c0.1 0.1 0.1 0.2 0.1 0.3q0 0.2 0.1 0.3 0.1 0 0.1 0c0.1 0.1 0.2 0.1 0.3 0.1 0.2 0 0.2 0.1 0.1 0.2q-0.2 0.1 0 0.1c0.3 0 0.5-0.1 0.6-0.3 0.1-0.1 0.1-0.1 0-0.1q-0.2 0-0.2-0.2c0-0.1 0-0.2-0.1-0.3 0-0.1-0.1-0.2-0.5-0.2-0.4 0-0.5 0.1-0.5 0.1z"/>
		<path id="Layer" class="s0" d="m174.5 129.8l-0.6 0.1-0.1 0.3c-0.1 0.2-0.1 0.3-0.1 0.4q0.1 0 0.1-0.1c0 0 0.2 0 0.4 0 0.3 0 0.4 0 0.4 0.1 0.1 0.1 0.1 0.2 0 0.3 0 0.1 0 0.2 0 0.3 0.1 0.1 0.1 0.1 0.8 0.1 0.6 0 0.6 0 0.7-0.1q0.4-0.4-0.2-0.5c-0.1-0.1-0.3-0.1-0.3-0.1q-0.1 0-0.1-0.1c0.1-0.1-0.2-0.7-0.3-0.7 0 0-0.3 0-0.7 0z"/>
		<path id="Layer" class="s0" d="m182.5 129.8l-0.5 0.1-0.2 0.2c-0.1 0.4-0.2 0.5 0 0.4 0 0 0.2 0 0.4 0 0.3 0 0.3 0 0.4 0.1q0.1 0.2 0 0.3c0 0.1 0 0.2 0 0.3v0.1h1.4 1.4l0.3-0.2c0.2-0.2 0.2-0.2 0.2-0.1 0 0.2 0.4 0.3 1 0.3 0.5 0 0.6 0 0.8-0.1 0.3-0.2 0.5-0.5 0.5-0.7 0-0.1-0.1-0.1-0.3 0-0.3 0.2-0.8 0.3-1.1 0.1-0.1 0-0.2-0.2-0.2-0.3 0-0.2-0.1-0.2-0.2-0.2-0.2 0-0.3 0-0.3 0.2-0.2 0.3-0.5 0.4-1 0.4-0.3 0-0.7-0.2-0.7-0.5 0-0.2-0.3-0.2-0.5 0.1-0.1 0.1-0.1 0.1 0.1 0.3l0.2 0.1h-0.4c-0.4 0-0.4 0-0.3-0.1 0 0 0.1-0.1 0.1-0.1 0-0.1-0.4-0.7-0.4-0.7 0 0-0.3 0-0.7 0z"/>
	</g>
</svg>