<?xml version="1.0" standalone="no"?>
<!DOCTYPE svg PUBLIC "-//W3C//DTD SVG 20010904//EN"
 "http://www.w3.org/TR/2001/REC-SVG-20010904/DTD/svg10.dtd">
<svg version="1.0" xmlns="http://www.w3.org/2000/svg"
 width="2600.000000pt" height="2000.000000pt" viewBox="0 0 2600.000000 2000.000000"
 preserveAspectRatio="xMidYMid meet">

<g transform="translate(0.000000,2000.000000) scale(0.100000,-0.100000)"
fill="#D4AF37" stroke="none">
<path d="M12473 14828 c-27 -39 -28 -48 -28 -158 0 -113 1 -118 30 -159 17
-24 42 -62 58 -84 l27 -41 -1 -201 c-1 -110 -4 -271 -7 -357 l-7 -157 31 30
31 30 8 353 c8 391 12 364 -61 454 -51 63 -56 84 -52 225 2 59 2 107 1 107 -2
0 -15 -19 -30 -42z"/>
<path d="M11077 13572 c-31 -34 -49 -94 -43 -136 19 -117 132 -174 232 -117
44 25 84 71 61 71 -7 0 -18 -5 -24 -11 -16 -16 -106 -16 -137 0 -46 25 -69 75
-68 147 1 35 0 64 -2 64 -2 0 -10 -8 -19 -18z"/>
<path d="M14147 13572 c-19 -20 -23 -37 -7 -27 10 6 33 45 27 45 -2 0 -11 -8
-20 -18z"/>
<path d="M11388 13494 c-3 -5 -9 -23 -13 -41 -6 -30 -5 -32 17 -27 37 8 271 4
330 -6 83 -13 299 -70 343 -89 22 -10 59 -34 83 -54 28 -24 49 -34 60 -30 9 4
49 31 87 61 95 74 126 87 164 67 45 -23 51 -57 51 -287 0 -179 2 -209 16 -215
8 -3 25 3 37 14 12 11 43 34 68 51 45 30 89 82 70 82 -6 0 -37 -23 -70 -50
l-61 -51 0 221 c0 253 -6 281 -64 305 -19 8 -43 12 -53 8 -10 -4 -60 -40 -111
-81 l-93 -74 -35 35 c-52 51 -102 71 -274 116 -145 37 -167 40 -351 47 -112 4
-198 3 -201 -2z"/>
<path d="M13925 13490 c-185 -7 -209 -10 -330 -42 -145 -39 -198 -62 -255
-114 l-38 -35 -54 43 c-129 104 -138 110 -174 110 -23 0 -44 -8 -60 -23 -29
-27 -32 -53 -5 -44 28 9 59 -7 149 -79 90 -71 95 -72 150 -24 50 43 83 57 246
100 149 40 154 41 349 44 159 3 197 1 197 -10 0 -7 9 -23 20 -36 11 -13 20
-27 20 -31 0 -14 47 -40 85 -49 45 -10 96 3 135 36 40 34 38 43 -8 31 -76 -20
-155 16 -183 85 -12 31 -28 50 -39 46 -3 -1 -95 -5 -205 -8z"/>
<path d="M12575 13423 c42 -65 138 -183 149 -183 7 0 37 18 66 40 63 47 79 51
54 13 -63 -97 -77 -127 -82 -172 -7 -72 3 -101 34 -101 37 0 119 45 144 80 12
16 19 30 17 30 -3 0 -30 -11 -61 -25 -31 -14 -61 -25 -66 -25 -6 0 -10 33 -10
75 l0 75 66 93 c37 50 73 98 82 104 9 7 13 15 10 19 -4 3 -49 -28 -102 -70
-52 -42 -97 -76 -99 -76 -3 0 -49 34 -102 75 -54 41 -102 75 -108 75 -5 0 -1
-12 8 -27z"/>
<path d="M13550 13166 c-338 -49 -594 -180 -820 -421 l-65 -69 88 77 c267 236
541 342 913 354 245 8 374 -14 374 -63 0 -8 -18 -73 -40 -146 -54 -181 -212
-766 -217 -804 -6 -36 14 -78 52 -114 l27 -25 208 0 c195 0 210 1 236 21 57
42 49 44 -181 44 l-216 0 -24 26 c-39 42 -64 91 -53 102 17 17 195 711 204
796 3 28 13 66 21 84 9 18 19 47 23 65 7 30 8 29 9 -15 1 -46 13 -69 26 -48 4
6 10 8 15 5 4 -3 6 14 4 37 l-4 43 12 -38 c11 -32 22 -42 75 -67 194 -91 363
-264 453 -464 32 -70 65 -191 75 -276 14 -119 34 -122 55 -6 8 48 -10 169 -40
255 -106 313 -356 542 -685 627 -125 32 -374 41 -525 20z"/>
<path d="M11382 13119 c-1 -20 -4 -52 -7 -70 l-5 -34 11 33 c5 19 8 50 6 70
l-4 37 -1 -36z"/>
<path d="M11342 13003 c-32 -81 -252 -892 -252 -929 0 -14 12 -42 26 -64 35
-52 65 -60 240 -60 116 0 151 4 205 21 35 12 72 29 81 38 16 15 1 16 -201 16
-241 0 -234 -2 -278 68 -16 26 -21 42 -15 50 17 21 213 819 206 840 -4 13 -2
17 5 13 13 -8 14 3 2 22 -6 10 -11 6 -19 -15z"/>
<path d="M11423 12945 c0 -22 2 -30 4 -17 2 12 2 30 0 40 -3 9 -5 -1 -4 -23z"/>
<path d="M11471 12914 c0 -11 3 -14 6 -6 3 7 2 16 -1 19 -3 4 -6 -2 -5 -13z"/>
<path d="M11450 12843 c0 -40 44 -258 126 -625 l17 -78 39 0 c33 0 38 3 34 18
-3 9 -42 169 -87 354 -46 186 -85 336 -87 333 -2 -2 3 -36 12 -76 9 -39 15
-73 13 -75 -2 -2 -16 41 -32 96 -16 55 -30 100 -32 100 -2 0 -3 -21 -3 -47z
m77 -185 c-3 -8 -6 -5 -6 6 -1 11 2 17 5 13 3 -3 4 -12 1 -19z"/>
<path d="M11481 12874 c0 -11 3 -14 6 -6 3 7 2 16 -1 19 -3 4 -6 -2 -5 -13z"/>
<path d="M14141 12853 c-1 -41 43 -265 111 -565 l33 -148 36 0 37 0 -15 68
c-42 183 -142 561 -138 522 4 -43 4 -42 -16 20 -11 36 -26 83 -34 105 l-13 40
-1 -42z m76 -195 c-3 -8 -6 -5 -6 6 -1 11 2 17 5 13 3 -3 4 -12 1 -19z"/>
<path d="M14181 12834 c0 -11 3 -14 6 -6 3 7 2 16 -1 19 -3 4 -6 -2 -5 -13z"/>
<path d="M14191 12794 c0 -11 3 -14 6 -6 3 7 2 16 -1 19 -3 4 -6 -2 -5 -13z"/>
<path d="M11428 12589 c-1 -99 -3 -118 -7 -72 -3 34 -9 64 -12 67 -8 8 -19
-180 -19 -326 l0 -118 31 0 30 0 -7 288 c-3 158 -8 289 -10 291 -2 2 -5 -56
-6 -130z"/>
<path d="M12781 12664 c-17 -22 -21 -41 -21 -104 0 -42 -3 -172 -7 -288 -5
-177 -4 -212 8 -216 8 -2 53 -15 102 -29 133 -37 109 -14 -41 38 -11 4 -12 64
-6 315 5 220 4 310 -4 310 -6 0 -20 -12 -31 -26z"/>
<path d="M12649 12653 c-13 -16 -12 -17 4 -4 16 13 21 21 13 21 -2 0 -10 -8
-17 -17z"/>
<path d="M12299 12623 c-61 -65 -124 -145 -178 -226 -60 -90 -142 -253 -135
-270 3 -9 54 -12 184 -11 174 1 181 1 201 23 37 40 15 46 -167 46 -90 0 -164
1 -164 3 0 1 21 45 46 97 55 115 122 219 198 308 62 74 69 87 15 30z"/>
<path d="M14087 12483 c-4 -58 -7 -159 -7 -225 l0 -118 24 0 c14 0 28 5 31 11
4 5 4 87 0 181 -5 100 -11 164 -16 156 -5 -8 -9 9 -9 45 0 97 -17 63 -23 -50z"/>
<path d="M12643 12558 c-12 -13 -43 -57 -69 -98 l-49 -75 0 -145 0 -145 28 -3
28 -3 -2 170 -2 170 33 53 c18 29 39 63 48 76 8 12 12 22 10 22 -3 0 -14 -10
-25 -22z"/>
<path d="M12640 12091 c0 -10 34 -21 65 -21 28 0 6 16 -32 23 -18 4 -33 3 -33
-2z"/>
<path d="M12085 12059 c-155 -16 -325 -78 -456 -165 -87 -58 -240 -210 -256
-255 l-12 -34 20 25 c181 224 425 345 749 372 118 10 135 9 285 -16 226 -39
487 -128 566 -195 13 -11 61 -47 105 -80 416 -309 620 -886 553 -1567 -42
-427 -195 -812 -422 -1059 -34 -38 -53 -63 -42 -58 22 12 53 45 134 143 195
235 320 532 378 900 28 178 26 601 -4 767 -90 497 -358 876 -758 1073 -183 90
-323 130 -530 150 -116 11 -198 11 -310 -1z"/>
<path d="M11921 11934 c-42 -53 -80 -266 -88 -489 -30 -840 400 -1478 1167
-1734 100 -33 316 -81 368 -81 36 0 93 43 77 58 -5 5 -46 14 -90 21 -654 95
-1169 511 -1365 1100 -80 240 -112 504 -91 765 10 131 37 306 56 367 9 27 -10
23 -34 -7z"/>
<path d="M12550 11880 l-25 -19 3 -643 c3 -557 5 -649 19 -685 14 -39 23 -48
38 -40 7 3 4 828 -4 1154 l-6 252 -25 -19z"/>
<path d="M12772 11833 l-22 -25 2 -602 c1 -330 5 -689 8 -796 5 -181 6 -195
24 -198 13 -3 17 0 14 9 -3 8 -1 376 4 818 4 443 5 808 1 812 -5 5 -18 -4 -31
-18z"/>
<path d="M11051 11674 c-12 -15 -21 -31 -21 -36 0 -18 110 -516 119 -541 12
-32 31 -36 31 -7 0 27 18 25 23 -2 3 -13 3 9 0 47 -4 57 -89 482 -109 548 -7
24 -19 21 -43 -9z"/>
<path d="M14475 11351 c19 -9 19 -10 -2 -10 -38 -2 -35 -20 7 -48 176 -118
193 -172 194 -603 0 -245 -3 -306 -17 -362 -26 -103 -62 -184 -117 -262 l-51
-71 54 58 c100 109 156 224 183 378 13 77 15 141 11 354 -7 338 -22 410 -106
498 -44 48 -73 63 -131 71 -31 4 -39 3 -25 -3z"/>
<path d="M15226 11310 c-20 -22 -36 -43 -36 -46 0 -11 63 41 78 64 24 37 -3
25 -42 -18z"/>
<path d="M10693 10244 c21 -7 23 -24 2 -24 -26 0 -16 -28 20 -57 51 -41 85
-94 108 -170 19 -62 21 -104 26 -493 4 -272 10 -431 17 -443 17 -30 163 -146
274 -220 339 -224 722 -337 1140 -337 82 0 196 5 252 12 152 17 143 18 140
-16 -4 -38 27 -181 44 -204 13 -16 15 -16 29 2 8 11 15 16 16 10 0 -5 4 0 8
11 5 11 7 34 4 50 -2 17 3 50 11 74 24 66 22 85 -10 77 -20 -5 -32 -2 -45 13
-18 20 -18 20 29 26 236 33 577 200 787 387 85 77 217 219 210 227 -3 3 -24
-16 -46 -41 -53 -63 -206 -190 -304 -254 -552 -358 -1342 -402 -1954 -109
-183 88 -358 204 -488 324 l-43 39 0 241 c0 133 4 240 9 237 4 -3 8 -38 9 -77
0 -43 5 -76 13 -83 9 -8 10 -8 5 1 -3 6 -1 24 6 39 9 20 10 28 1 31 -6 2 -9
13 -6 23 3 11 8 18 12 16 3 -2 6 38 6 89 0 51 3 91 8 88 4 -2 7 43 7 101 0 64
-4 106 -10 106 -5 0 -10 14 -10 31 0 17 4 28 10 24 6 -4 10 37 10 114 l0 121
-40 0 c-37 0 -40 -2 -40 -27 0 -16 0 -35 -1 -43 0 -8 4 -39 10 -69 13 -66 15
-139 2 -125 -14 15 -50 156 -37 145 18 -15 14 55 -3 71 -11 11 -13 9 -7 -13 9
-42 -4 -41 -38 4 -36 47 -63 63 -121 71 -22 3 -32 3 -22 0z m234 -511 c-3 -10
-5 -4 -5 12 0 17 2 24 5 18 2 -7 2 -21 0 -30z m0 -55 c-3 -7 -5 -2 -5 12 0 14
2 19 5 13 2 -7 2 -19 0 -25z"/>
<path d="M11548 10243 c7 -3 16 -2 19 1 4 3 -2 6 -13 5 -11 0 -14 -3 -6 -6z"/>
<path d="M11433 10233 c-47 -4 -53 -7 -53 -26 0 -13 -7 -33 -16 -45 -8 -12
-12 -22 -8 -22 5 0 3 -5 -4 -12 -26 -26 -10 -28 19 -3 18 14 50 35 73 47 22
11 51 31 63 44 l22 24 -22 -2 c-12 -1 -46 -3 -74 -5z"/>
<path d="M10862 10218 c7 -19 38 -22 38 -4 0 10 -9 16 -21 16 -12 0 -19 -5
-17 -12z"/>
<path d="M15045 10174 c-33 -28 -132 -102 -161 -122 -247 -164 -449 -252 -726
-317 -108 -26 -116 -29 -121 -54 -3 -14 -4 -28 -1 -30 7 -7 200 42 299 76 147
51 326 140 461 232 132 89 257 190 274 221 14 25 12 25 -25 -6z"/>
<path d="M12556 9795 l-29 -27 6 -196 c9 -280 60 -767 87 -829 13 -30 39 -29
106 4 51 25 162 129 150 140 -3 3 -26 -11 -51 -30 -43 -34 -131 -75 -139 -66
-2 2 -15 87 -30 189 -31 222 -55 480 -57 610 -1 52 -4 126 -8 164 l-6 68 -29
-27z"/>
<path d="M12770 9651 c0 -34 4 -61 10 -61 6 0 10 24 10 54 0 30 -4 58 -10 61
-6 4 -10 -17 -10 -54z"/>
<path d="M11382 8908 l3 -93 33 -3 32 -3 0 51 c0 42 -6 60 -32 96 -17 24 -33
44 -35 44 -2 0 -2 -42 -1 -92z"/>
<path d="M7715 8453 c-61 -9 -105 -24 -105 -38 0 -8 -5 -17 -11 -21 -8 -4 -9
0 -4 15 6 19 4 20 -19 12 -13 -6 -33 -14 -43 -20 -10 -5 -26 -12 -35 -15 -10
-3 -15 -11 -12 -20 3 -8 1 -17 -5 -21 -6 -3 -11 -1 -11 4 0 6 -4 11 -10 11 -5
0 -10 -10 -10 -22 -1 -21 -2 -22 -14 -6 -17 23 -27 12 -19 -20 5 -23 4 -24
-20 -18 -19 4 -25 3 -22 -7 3 -7 -12 -29 -33 -50 -33 -32 -42 -36 -70 -31 -30
6 -31 8 -17 24 8 9 15 21 15 25 0 17 -111 -99 -169 -176 -110 -145 -203 -362
-231 -541 -18 -111 -8 -360 19 -458 54 -199 174 -361 322 -434 l75 -37 230 3
229 3 69 33 c105 49 199 116 286 203 43 43 81 79 84 79 3 0 6 -58 6 -129 0
-162 5 -189 37 -197 13 -4 21 -10 16 -14 -4 -4 -351 -10 -771 -13 -701 -5
-763 -4 -772 12 -9 15 -9 14 -10 -1 0 -10 -4 -18 -10 -18 -5 0 -15 -10 -21
-22 -26 -48 -32 -48 783 -48 l758 0 4 -22 c3 -13 8 -41 11 -63 12 -76 59 -111
87 -65 7 11 19 20 27 20 11 0 11 4 -2 18 -10 10 -17 24 -17 31 0 7 -4 10 -9 6
-6 -3 -9 21 -8 60 2 68 11 82 27 40 l9 -25 3753 -2 3753 -3 8 -40 c20 -98 31
-120 60 -123 22 -3 30 1 34 17 3 12 12 21 20 21 9 0 5 8 -11 23 -21 18 -28 37
-37 100 l-11 77 -1852 0 c-2611 0 -5739 11 -5749 20 -11 9 -9 323 2 478 5 76
12 116 21 122 7 4 14 23 16 42 1 18 6 72 10 121 6 82 19 114 26 65 3 -21 9
-23 80 -26 80 -3 118 8 118 33 0 8 7 15 15 15 35 0 11 19 -35 29 -56 12 -223
15 -233 4 -4 -3 -62 -7 -130 -8 -168 -3 -170 -3 -179 -17 -6 -9 -10 -10 -15
-2 -12 17 -145 -1 -156 -21 -9 -17 -67 -21 -67 -4 0 7 -15 9 -42 4 -83 -12
-98 -17 -98 -30 0 -7 -15 -15 -35 -17 -25 -3 -35 0 -35 10 0 17 -40 6 -57 -17
-11 -15 -15 -15 -43 1 -29 16 -32 16 -50 0 -28 -23 -26 -60 5 -74 19 -9 59 -5
187 16 211 34 375 54 517 63 l114 6 -7 -89 c-5 -66 -13 -103 -32 -143 -30 -61
-125 -190 -178 -240 -19 -19 -32 -39 -29 -44 4 -6 1 -7 -6 -2 -13 8 -61 -31
-61 -49 0 -12 -19 -25 -95 -67 -31 -17 -50 -35 -50 -46 0 -14 -16 -22 -70 -35
-142 -34 -319 -15 -443 48 -300 152 -425 622 -281 1054 36 108 55 150 69 150
6 0 19 -9 29 -19 14 -14 21 -16 24 -7 3 7 -8 18 -24 25 -16 7 -29 16 -29 19 0
4 14 31 30 60 25 43 35 52 59 52 34 0 44 -9 29 -27 -6 -7 -9 -15 -7 -18 2 -2
29 26 58 62 105 127 277 240 426 278 86 22 209 19 290 -6 86 -26 154 -90 174
-162 33 -115 -4 -250 -95 -355 -49 -56 -56 -82 -22 -82 52 0 167 119 208 215
27 64 21 204 -12 277 -36 78 -96 139 -176 179 -59 30 -76 34 -139 33 -40 -1
-73 3 -73 7 0 9 -29 10 -85 2z m-497 -352 c-24 -31 -43 -37 -68 -21 -24 15 16
50 57 50 l35 0 -24 -29z"/>
<path d="M15305 8411 c-167 -50 -293 -139 -418 -296 -24 -30 -14 -24 38 25
173 161 332 227 527 218 84 -4 106 -9 163 -37 73 -36 110 -77 131 -147 28 -93
8 -205 -55 -300 l-32 -49 55 58 c73 78 106 159 106 261 0 83 -15 128 -61 180
-66 76 -152 106 -299 105 -61 0 -117 -7 -155 -18z"/>
<path d="M14767 8118 c-199 -235 -307 -595 -268 -893 18 -132 37 -199 87 -303
59 -122 154 -222 262 -276 l74 -37 231 3 232 3 84 43 c103 52 196 120 281 206
35 36 68 66 72 66 4 0 8 -72 8 -160 l0 -160 33 0 32 0 0 215 c0 215 -6 248
-32 187 -14 -31 -129 -148 -183 -187 -19 -13 -40 -28 -45 -32 -21 -16 -91 -55
-143 -79 -98 -45 -199 -67 -307 -67 -179 1 -301 49 -421 168 -84 83 -134 168
-168 286 -99 344 -22 747 197 1032 43 55 25 45 -26 -15z"/>
<path d="M15759 7854 c-19 -23 -84 -54 -113 -54 -24 0 -46 -24 -46 -49 0 -15
36 -14 69 3 25 13 111 99 111 111 0 9 -7 5 -21 -11z"/>
<path d="M9942 7745 c-13 -12 -29 -43 -37 -70 -14 -44 -13 -50 2 -67 22 -25
37 -23 75 11 l33 30 -32 11 c-38 14 -38 15 -18 63 18 43 8 52 -23 22z"/>
<path d="M11022 7738 c-47 -51 -56 -122 -17 -140 23 -10 29 -8 58 20 l31 32
-32 11 c-37 13 -36 10 -17 56 8 19 15 37 15 39 0 11 -19 1 -38 -18z"/>
<path d="M18958 7500 c-108 -36 -138 -55 -138 -86 0 -23 1 -24 28 -10 15 7 63
24 107 36 62 17 87 29 112 56 l32 34 -27 -1 c-15 0 -66 -13 -114 -29z"/>
<path d="M9075 7470 c-62 -24 -159 -101 -197 -155 -42 -61 -33 -63 27 -6 30
29 80 63 110 77 50 23 58 24 91 12 35 -12 36 -12 64 22 18 22 24 36 17 39 -7
2 -16 10 -20 17 -11 18 -32 17 -92 -6z"/>
<path d="M9877 7466 c-24 -22 -47 -80 -47 -119 0 -10 -5 -28 -12 -40 -8 -16
-1 -13 28 12 34 30 41 44 51 100 7 36 11 66 9 68 -1 2 -14 -8 -29 -21z"/>
<path d="M10957 7461 c-21 -25 -47 -104 -47 -142 0 -6 13 -1 29 10 24 17 31
32 40 87 7 37 10 68 8 71 -3 2 -16 -10 -30 -26z"/>
<path d="M8737 7442 c-22 -23 -28 -42 -37 -117 -26 -229 3 -315 83 -241 l26
24 -25 23 c-22 21 -24 29 -23 118 0 53 4 122 8 154 4 32 4 60 1 62 -4 2 -19
-8 -33 -23z"/>
<path d="M10530 7449 c-37 -23 -56 -44 -63 -70 -4 -13 0 -13 30 2 43 22 63 15
63 -22 0 -24 4 -29 23 -29 22 0 41 16 77 64 16 21 16 21 -38 -1 -10 -4 -10 0
-1 20 26 56 -25 76 -91 36z"/>
<path d="M16998 7451 c-25 -25 -23 -43 5 -39 16 2 23 11 25 31 4 31 -5 34 -30
8z"/>
<path d="M15850 7453 c-105 -6 -416 -43 -530 -63 -187 -33 -207 -34 -232 -18
-20 13 -25 13 -39 -1 -26 -27 -29 -48 -9 -66 22 -20 20 -20 265 19 182 29 428
56 510 56 63 0 61 6 45 -119 -11 -85 -47 -157 -131 -261 -33 -42 -40 -54 -20
-35 44 41 130 148 171 213 28 45 35 70 47 160 11 85 11 107 1 114 -7 4 -15 7
-18 6 -3 -1 -30 -3 -60 -5z"/>
<path d="M16008 7455 c-2 -3 -3 -18 0 -35 l4 -30 82 0 c79 0 84 1 109 30 15
16 27 32 27 35 0 6 -215 7 -222 0z"/>
<path d="M18729 7429 c-16 -17 -29 -39 -29 -48 0 -9 -9 -34 -19 -54 l-19 -38
46 43 c38 35 48 51 52 85 3 24 4 43 2 43 -2 0 -17 -14 -33 -31z"/>
<path d="M9351 7427 c-6 -16 -11 -40 -11 -55 0 -20 3 -23 12 -14 17 17 48 15
48 -3 0 -14 3 -14 30 0 39 20 58 58 40 80 -14 17 -57 20 -80 5 -9 -6 -17 -5
-22 3 -4 7 -11 1 -17 -16z"/>
<path d="M16425 7440 c-3 -6 1 -7 9 -4 18 7 21 14 7 14 -6 0 -13 -4 -16 -10z"/>
<path d="M18226 7428 c-13 -13 -27 -33 -31 -45 -5 -19 -2 -22 22 -20 18 1 27
-3 26 -10 -4 -19 4 -16 43 13 52 40 44 84 -16 84 -11 0 -30 -10 -44 -22z"/>
<path d="M9286 7419 c-42 -33 -70 -96 -70 -159 -2 -143 114 -219 316 -208 98
5 169 34 244 99 25 21 49 39 53 39 5 0 14 -14 21 -31 21 -50 73 -82 140 -87
77 -6 143 17 239 82 42 29 82 55 88 59 8 5 20 -8 34 -39 70 -148 295 -161 492
-29 37 25 69 45 72 45 2 0 14 -17 26 -39 30 -54 82 -81 157 -81 59 0 125 26
239 95 l31 19 39 -43 c30 -33 47 -44 80 -48 60 -8 141 21 235 84 l79 53 48
-48 c63 -66 121 -81 213 -57 34 9 86 29 115 45 29 17 55 30 58 30 3 0 5 -11 5
-24 0 -73 46 -100 88 -52 l21 25 -26 16 c-23 15 -25 22 -21 66 5 52 -8 74 -24
44 -15 -26 -153 -86 -212 -92 -63 -7 -133 20 -162 61 -48 68 -53 72 -64 54
-14 -23 -148 -103 -205 -122 -73 -25 -119 -21 -160 15 -22 19 -35 40 -35 55 0
32 -6 31 -65 -12 -87 -63 -163 -94 -228 -94 -85 0 -125 22 -151 82 -11 26 -24
48 -29 48 -5 0 -28 -16 -51 -35 -85 -69 -254 -124 -340 -109 -97 16 -176 87
-176 159 0 32 -12 32 -47 -1 -47 -44 -138 -102 -195 -125 -40 -16 -68 -20
-115 -17 -79 5 -113 28 -133 91 -8 26 -18 47 -22 47 -4 0 -28 -20 -53 -44 -91
-86 -203 -124 -336 -113 -172 14 -261 138 -199 275 10 23 18 42 16 42 -2 0
-15 -9 -30 -21z"/>
<path d="M12293 7420 c-22 -20 -40 -66 -30 -76 2 -3 17 5 32 18 20 17 26 31
23 51 l-3 28 -22 -21z"/>
<path d="M13306 7407 c-31 -41 -32 -47 -6 -40 11 3 20 0 20 -6 0 -20 21 -12
50 21 22 24 27 35 18 45 -19 24 -56 15 -82 -20z"/>
<path d="M18123 7408 c-28 -31 -53 -69 -53 -83 0 -3 13 1 29 9 20 11 34 30 44
61 9 25 15 45 13 45 -1 0 -16 -15 -33 -32z"/>
<path d="M10384 7403 c-30 -42 -36 -53 -27 -53 16 1 51 35 58 58 9 30 -7 28
-31 -5z"/>
<path d="M12665 7413 c-87 -18 -228 -101 -267 -156 l-23 -32 25 18 c47 32 145
80 192 92 57 16 68 7 68 -52 0 -119 96 -195 226 -178 53 6 157 50 201 85 37
29 50 25 73 -19 43 -85 144 -126 289 -119 70 3 99 10 151 35 60 28 167 110
157 120 -3 2 -26 -10 -52 -26 -91 -58 -192 -78 -299 -61 -110 17 -186 69 -202
138 -11 44 -13 44 -58 7 -63 -51 -150 -87 -226 -92 -76 -6 -120 10 -165 57
-27 28 -30 38 -34 111 -3 84 -3 84 -56 72z"/>
<path d="M13189 7394 c-22 -25 -22 -26 -3 -16 12 6 24 18 28 27 8 21 3 19 -25
-11z"/>
<path d="M17294 7398 c-16 -13 -72 -67 -125 -122 -87 -90 -97 -98 -117 -87
-26 14 -36 60 -30 146 2 36 1 65 -2 65 -3 -1 -34 -7 -70 -15 -36 -8 -116 -17
-177 -21 -62 -4 -113 -8 -113 -9 0 -1 5 -17 11 -35 l12 -32 81 7 c44 3 103 11
130 17 61 13 66 7 66 -89 0 -60 4 -77 20 -93 39 -39 61 -27 170 90 56 61 108
110 115 110 9 0 22 -27 34 -67 42 -139 73 -146 200 -48 46 36 87 65 90 65 4 0
21 -20 38 -44 18 -26 55 -58 85 -76 49 -28 59 -31 129 -28 62 2 87 9 139 36
34 17 68 32 75 32 6 0 19 -15 28 -34 37 -78 142 -120 286 -114 77 3 96 7 164
41 60 30 90 53 139 107 l62 70 84 -46 c78 -42 88 -45 149 -42 37 2 68 8 70 14
2 6 -43 35 -99 64 -57 29 -115 61 -130 71 -34 24 -58 24 -58 0 0 -30 -117
-138 -187 -172 -80 -40 -199 -50 -286 -25 -68 20 -134 77 -143 124 -4 18 -12
32 -19 32 -7 0 -38 -16 -70 -35 -32 -19 -73 -40 -92 -46 -46 -15 -138 -7 -185
15 -33 16 -82 73 -100 119 -12 28 -37 20 -107 -36 -121 -98 -139 -105 -167
-62 -9 14 -24 54 -33 90 -22 84 -30 91 -67 63z"/>
<path d="M16442 7372 l-19 -38 58 -17 c67 -20 80 -42 61 -105 -6 -20 -10 -37
-9 -39 2 -1 17 10 34 26 36 33 54 85 44 132 -6 30 -13 35 -71 56 -36 12 -68
23 -71 23 -4 0 -16 -17 -27 -38z"/>
<path d="M11600 7381 c-51 -18 -110 -67 -110 -91 0 -6 17 -2 39 9 54 28 166
46 197 32 21 -9 30 -6 64 17 21 15 38 32 36 37 -5 19 -167 16 -226 -4z"/>
<path d="M8840 7375 c-7 -9 -8 -15 -2 -15 5 0 12 7 16 15 3 8 4 15 2 15 -2 0
-9 -7 -16 -15z"/>
<path d="M16337 7353 c-92 -136 -32 -293 111 -293 66 0 119 26 161 79 34 43
41 63 14 39 -52 -46 -140 -62 -193 -35 -13 7 -35 28 -48 47 -20 30 -23 44 -19
95 3 33 8 70 12 83 11 34 -9 26 -38 -15z"/>
<path d="M9473 7336 c-39 -32 -73 -49 -73 -36 0 6 -18 1 -40 -10 -45 -23 -48
-30 -20 -55 17 -15 24 -16 50 -5 30 13 89 71 110 109 14 27 8 26 -27 -3z"/>
<path d="M17129 7343 c-32 -39 -44 -57 -32 -50 13 8 57 67 50 67 -2 0 -10 -8
-18 -17z"/>
<path d="M18301 7320 c-25 -17 -55 -33 -68 -35 -80 -17 -75 -13 -57 -40 9 -14
23 -25 31 -25 35 0 101 56 137 118 10 17 7 16 -43 -18z"/>
<path d="M13345 7289 c-22 -10 -50 -19 -63 -19 -18 0 -23 -5 -20 -22 2 -13 11
-24 21 -26 21 -4 93 43 108 70 12 22 5 22 -46 -3z"/>
<path d="M18717 7140 c-30 -30 -18 -63 28 -78 45 -15 201 -11 247 7 27 10 63
43 79 73 9 16 7 16 -28 1 -56 -24 -240 -24 -276 0 -31 20 -27 20 -50 -3z"/>
<path d="M16186 6573 l-238 -3 6 -23 c3 -12 6 -28 6 -34 0 -17 3260 -19 3290
-3 11 6 31 21 45 34 21 20 23 25 9 30 -15 6 -2614 5 -3118 -1z"/>
<path d="M9765 6231 c3 -5 -3 -12 -14 -16 -18 -5 -20 -18 -23 -203 -2 -108 0
-201 4 -206 11 -13 58 10 58 29 0 12 15 15 81 15 71 0 80 -2 69 -15 -10 -13
-9 -15 11 -15 33 0 81 31 113 73 28 37 34 56 12 38 -10 -8 -8 0 5 26 21 42 25
125 8 170 -12 32 -45 70 -74 85 -13 7 -8 -2 13 -24 41 -43 42 -58 1 -24 -50
42 -59 33 -28 -29 45 -89 48 -145 12 -235 -5 -13 -4 -13 11 -1 9 8 19 11 22 8
3 -3 -7 -14 -22 -24 -21 -14 -52 -19 -131 -21 l-103 -4 0 185 c0 158 -2 186
-16 191 -8 3 -12 2 -9 -3z"/>
<path d="M9847 6233 c18 -2 50 -2 70 0 21 2 7 4 -32 4 -38 0 -55 -2 -38 -4z"/>
<path d="M10162 6236 c3 -4 -3 -17 -13 -27 -24 -24 -27 -14 65 -219 71 -159
97 -195 112 -156 3 9 10 13 15 10 12 -7 11 40 -1 52 -5 5 -39 79 -74 164 -44
106 -72 160 -88 170 -13 8 -20 11 -16 6z"/>
<path d="M10457 6218 c-10 -11 -27 -43 -36 -71 -10 -29 -32 -85 -50 -126 -34
-79 -38 -101 -18 -101 16 1 143 299 131 309 -5 4 -17 -1 -27 -11z"/>
<path d="M10689 6217 c-19 -12 -35 -32 -37 -42 -2 -16 3 -13 28 13 17 18 40
37 53 42 14 6 17 9 6 9 -9 1 -31 -9 -50 -22z"/>
<path d="M11316 6226 c17 -8 40 -26 52 -41 23 -29 29 -27 12 6 -11 20 -60 49
-82 49 -7 -1 1 -7 18 -14z"/>
<path d="M12317 6218 c-16 -17 -18 -41 -19 -216 -1 -166 1 -197 13 -200 18 -3
73 55 57 60 -7 3 -10 61 -10 180 2 188 -4 214 -41 176z m18 -358 c-3 -5 -14
-10 -23 -9 -14 0 -13 2 3 9 27 11 27 11 20 0z"/>
<path d="M13057 6218 c-21 -23 -21 -19 -19 -210 2 -118 5 -148 16 -148 32 0
37 27 37 196 0 92 -4 170 -8 174 -4 4 -16 -2 -26 -12z"/>
<path d="M13220 6236 c0 -2 9 -6 20 -9 11 -3 18 -1 14 4 -5 9 -34 13 -34 5z"/>
<path d="M14050 6236 c0 -2 7 -7 16 -10 8 -3 12 -2 9 4 -6 10 -25 14 -25 6z"/>
<path d="M14320 6236 c0 -2 7 -7 16 -10 8 -3 12 -2 9 4 -6 10 -25 14 -25 6z"/>
<path d="M14482 6234 c4 -3 -2 -14 -12 -23 -18 -15 -20 -32 -21 -209 -1 -106
1 -196 4 -199 12 -11 68 19 63 33 -3 8 0 14 7 14 8 0 7 4 -3 9 -8 6 -19 7 -25
4 -5 -3 -4 0 3 8 8 9 12 61 12 185 0 153 -2 173 -17 178 -10 4 -14 4 -11 0z"/>
<path d="M14640 6236 c0 -2 9 -6 20 -9 11 -3 18 -1 14 4 -5 9 -34 13 -34 5z"/>
<path d="M15190 6236 c0 -2 7 -7 16 -10 8 -3 12 -2 9 4 -6 10 -25 14 -25 6z"/>
<path d="M15808 6219 c-21 -22 -21 -21 -19 -206 1 -125 4 -153 15 -153 8 0 22
7 30 16 13 13 16 44 16 178 0 173 -7 202 -42 165z"/>
<path d="M16185 6231 c3 -6 -2 -14 -12 -20 -16 -8 -18 -28 -18 -180 0 -143 2
-171 15 -175 11 -3 11 -4 -2 -5 -12 -1 -18 -9 -18 -26 0 -35 29 -33 62 5 25
28 22 35 -11 30 -12 -1 -12 1 -4 12 13 15 21 338 9 357 -4 6 -12 11 -17 11 -6
0 -8 -4 -4 -9z"/>
<path d="M9462 6204 c-24 -23 -184 -382 -176 -396 3 -4 11 -8 17 -8 17 0 67
58 54 63 -15 5 27 113 42 110 6 -2 11 2 11 8 0 6 15 9 35 7 20 -2 35 -7 35
-11 -1 -4 13 -24 29 -43 18 -20 33 -51 37 -73 3 -21 10 -44 14 -51 11 -18 61
-3 67 20 3 12 14 20 27 21 18 0 18 2 -5 10 -18 7 -29 20 -32 39 -4 16 -15 48
-25 72 -11 24 -35 81 -53 128 -18 47 -38 94 -44 105 -10 20 -10 20 -33 -1z m9
-51 c-12 -20 -14 -14 -5 12 4 9 9 14 11 11 3 -2 0 -13 -6 -23z m-12 -35 c-2
-7 5 -30 14 -52 9 -21 17 -42 17 -46 0 -5 8 -11 18 -13 9 -3 -12 -5 -47 -6
-58 -1 -62 0 -50 15 8 9 14 22 14 28 0 16 26 86 31 86 3 0 4 -6 3 -12z"/>
<path d="M10871 6207 c45 -39 58 -65 18 -34 -20 15 -44 27 -54 27 -17 0 -17
-1 -2 -18 56 -61 78 -203 43 -271 l-18 -34 32 23 c60 43 84 135 58 221 -12 40
-69 109 -91 109 -7 0 0 -10 14 -23z"/>
<path d="M11146 6204 c-23 -23 -33 -44 -23 -44 2 0 18 16 36 35 37 41 26 48
-13 9z"/>
<path d="M11964 6203 c-13 -14 -22 -29 -19 -32 3 -3 19 9 36 27 16 18 25 32
19 32 -6 0 -22 -12 -36 -27z"/>
<path d="M12167 6206 c15 -13 30 -22 33 -19 6 6 -38 43 -52 43 -5 0 4 -11 19
-24z"/>
<path d="M15978 6214 c33 -23 27 -36 -7 -16 -38 22 -45 14 -26 -31 8 -20 15
-52 15 -72 0 -19 4 -35 8 -35 12 0 48 41 56 64 9 26 -11 84 -34 96 -29 15 -37
12 -12 -6z"/>
<path d="M11609 6191 c-23 -24 -155 -318 -147 -327 3 -2 13 3 25 11 12 8 43
74 79 164 55 140 71 166 82 131 3 -7 0 -10 -5 -7 -15 9 -34 -62 -22 -82 5 -9
13 -28 19 -43 8 -24 15 -28 45 -28 22 0 34 -4 30 -10 -3 -5 -21 -10 -40 -10
-39 0 -40 -12 -7 -54 12 -16 27 -47 32 -70 17 -63 18 -66 37 -66 25 1 56 26
48 39 -3 6 2 11 12 12 15 0 14 2 -4 11 -13 6 -23 18 -23 26 0 18 -106 288
-123 311 -11 17 -14 16 -38 -8z"/>
<path d="M13192 6213 c-10 -4 -9 -8 5 -18 20 -15 33 -11 33 11 0 14 -14 17
-38 7z"/>
<path d="M14612 6213 c-18 -7 -4 -23 19 -23 12 0 19 5 17 12 -5 14 -18 18 -36
11z"/>
<path d="M15420 6188 l-23 -33 28 27 c16 15 26 30 23 33 -3 4 -16 -9 -28 -27z"/>
<path d="M15636 6200 c37 -43 39 -56 5 -27 -18 15 -41 27 -51 27 -18 0 -18 -3
5 -36 28 -41 55 -123 55 -165 0 -14 -7 -45 -15 -68 -14 -40 -13 -41 5 -31 10
5 31 35 45 65 22 44 27 65 23 104 -6 59 -35 119 -69 140 l-24 15 21 -24z"/>
<path d="M16500 6212 c0 -6 -6 -12 -14 -12 -8 0 -23 -19 -34 -43 -46 -98 -123
-289 -119 -294 14 -13 48 46 101 175 35 85 64 142 72 142 8 0 14 -5 14 -11 0
-5 -4 -8 -9 -4 -5 3 -14 -10 -20 -28 -10 -28 -8 -41 9 -80 18 -41 25 -47 51
-47 18 0 28 -4 24 -10 -3 -5 -19 -10 -36 -10 -22 0 -29 -5 -29 -20 0 -10 9
-24 20 -30 12 -6 26 -34 38 -73 16 -54 21 -62 43 -62 15 0 28 8 34 23 5 12 19
22 30 22 18 1 17 2 -5 13 -14 7 -26 19 -28 27 -2 8 -28 77 -58 153 -51 131
-84 197 -84 169z"/>
<path d="M12110 6201 c0 -9 43 -51 53 -51 4 0 7 9 7 19 0 12 -11 23 -30 30
-16 5 -30 6 -30 2z"/>
<path d="M12624 6195 c-17 -11 -154 -305 -154 -330 0 -3 8 -1 19 4 10 6 31 41
47 78 15 37 47 112 70 166 23 53 41 97 40 97 -1 0 -11 -7 -22 -15z"/>
<path d="M14025 6200 c3 -5 10 -10 16 -10 5 0 9 5 9 10 0 6 -7 10 -16 10 -8 0
-12 -4 -9 -10z"/>
<path d="M14300 6195 c7 -8 16 -12 21 -9 13 8 1 24 -18 24 -13 0 -13 -3 -3
-15z"/>
<path d="M14892 6198 c6 -18 28 -21 28 -4 0 9 -7 16 -16 16 -9 0 -14 -5 -12
-12z"/>
<path d="M15160 6200 c0 -5 7 -10 15 -10 8 0 15 5 15 10 0 6 -7 10 -15 10 -8
0 -15 -4 -15 -10z"/>
<path d="M11312 6174 c29 -30 55 -25 38 7 -7 11 -21 19 -38 19 l-27 0 27 -26z"/>
<path d="M13615 6168 c-63 -140 -131 -308 -125 -308 18 0 46 49 101 181 32 78
59 146 59 151 0 20 -22 5 -35 -24z"/>
<path d="M13675 6181 c4 -14 3 -21 -2 -18 -6 4 -15 -10 -21 -29 -9 -29 -7 -43
8 -80 18 -41 22 -44 56 -44 30 0 35 3 30 18 -39 104 -61 159 -69 167 -6 6 -7
1 -2 -14z"/>
<path d="M13907 6182 c-10 -11 -21 -39 -24 -61 -5 -40 -4 -43 72 -120 52 -54
78 -88 79 -105 1 -30 4 -31 33 -11 26 18 37 59 22 86 -6 12 -42 50 -79 86 -55
51 -71 73 -77 105 -8 40 -8 40 -26 20z"/>
<path d="M14174 6179 c-12 -14 -19 -36 -19 -64 0 -41 5 -49 79 -124 59 -61 77
-86 73 -101 -6 -24 1 -25 30 -5 27 19 37 59 22 88 -7 12 -44 51 -82 87 -62 58
-70 71 -71 103 -1 43 -6 45 -32 16z"/>
<path d="M14772 6176 c-26 -34 -28 -82 -4 -116 9 -14 43 -50 75 -80 41 -39 59
-64 60 -83 2 -33 7 -34 35 -4 41 43 30 73 -54 158 -61 61 -78 85 -83 115 l-6
38 -23 -28z"/>
<path d="M15042 6176 c-26 -34 -28 -82 -4 -116 9 -14 43 -50 75 -80 41 -39 59
-64 60 -83 2 -32 10 -34 37 -7 12 12 20 33 20 52 0 27 -13 45 -76 109 -61 61
-78 85 -83 115 l-6 38 -23 -28z"/>
<path d="M12656 6175 c4 -8 2 -15 -4 -15 -16 0 -33 -59 -22 -78 6 -9 14 -29
20 -44 8 -23 15 -28 45 -28 19 0 35 4 35 9 0 19 -63 171 -71 171 -5 0 -6 -7
-3 -15z"/>
<path d="M10583 6146 c-80 -90 -61 -263 32 -302 62 -25 73 -18 34 22 l-34 37
47 -28 c26 -14 53 -24 60 -22 8 3 6 6 -4 6 -28 1 -96 69 -109 108 -15 46 -14
136 2 174 17 43 6 45 -28 5z"/>
<path d="M11051 6144 c-77 -94 -58 -261 34 -300 60 -25 73 -18 37 19 -40 42
-42 57 -2 24 32 -28 68 -42 77 -33 4 3 -1 6 -10 6 -27 0 -95 68 -108 108 -14
44 -14 137 1 176 16 42 6 42 -29 0z"/>
<path d="M11862 6136 c-46 -67 -54 -153 -23 -223 22 -47 51 -70 102 -79 l34
-7 -35 38 -35 38 46 -27 c25 -14 50 -26 55 -26 5 0 -9 11 -31 23 -58 33 -89
94 -90 177 0 36 3 77 8 93 10 37 -3 34 -31 -7z"/>
<path d="M15338 6153 c-53 -61 -68 -173 -33 -246 21 -44 46 -64 96 -74 l34 -6
-32 37 c-38 42 -44 59 -10 29 27 -25 67 -46 74 -40 2 3 -4 8 -15 12 -11 3 -36
23 -55 44 -45 50 -64 130 -49 205 6 28 9 52 8 54 -2 1 -10 -6 -18 -15z"/>
<path d="M15981 6049 c-19 -7 -22 -12 -13 -21 9 -9 16 -8 29 5 21 21 15 27
-16 16z"/>
<path d="M15914 6031 c4 -6 1 -11 -7 -11 -30 0 -27 -33 5 -84 55 -85 87 -116
119 -116 31 0 38 17 17 39 -11 10 -8 10 15 2 41 -16 46 -13 13 7 -16 10 -54
51 -85 92 -31 40 -62 76 -70 78 -8 3 -11 0 -7 -7z"/>
<path d="M14603 6023 c-20 -7 -15 -23 7 -23 11 0 20 4 20 9 0 13 -12 19 -27
14z"/>
<path d="M13180 6010 c0 -5 7 -10 15 -10 8 0 15 5 15 10 0 6 -7 10 -15 10 -8
0 -15 -4 -15 -10z"/>
<path d="M12687 5991 c-46 -7 -48 -13 -20 -43 26 -27 53 -88 53 -118 0 -11 7
-23 16 -27 21 -8 66 17 60 34 -3 8 2 13 12 13 16 1 16 1 -1 11 -9 5 -21 8 -26
5 -5 -4 -7 2 -4 12 5 20 -30 115 -43 118 -5 0 -26 -2 -47 -5z"/>
<path d="M13708 5993 c-29 -3 -38 -9 -38 -23 0 -11 9 -24 20 -30 12 -6 26 -34
38 -73 16 -54 21 -62 43 -62 15 0 27 8 34 22 5 12 16 25 25 27 8 3 -5 4 -30 2
-37 -3 -41 -2 -22 7 12 5 22 14 22 18 0 17 -42 119 -48 117 -4 -1 -24 -3 -44
-5z"/>
<path d="M10888 5882 c-23 -15 -61 -28 -95 -32 -50 -6 -53 -8 -18 -9 29 -1 36
-4 25 -11 -22 -13 -6 -23 28 -16 27 6 111 81 101 90 -2 2 -21 -8 -41 -22z"/>
<path d="M14180 5885 c0 -8 9 -19 21 -25 29 -16 29 -9 2 17 -16 16 -23 18 -23
8z"/>
<path d="M15631 5874 c-29 -15 -62 -25 -95 -25 l-51 -2 40 -7 c22 -4 34 -8 28
-9 -22 -2 -14 -21 8 -21 29 0 83 34 103 65 9 14 15 25 14 24 -2 0 -23 -11 -47
-25z"/>
<path d="M13910 5881 c0 -10 39 -36 45 -29 2 2 -8 11 -21 21 -13 10 -24 13
-24 8z"/>
<path d="M14780 5881 c0 -10 39 -36 45 -29 2 2 -8 11 -21 21 -13 10 -24 13
-24 8z"/>
<path d="M15050 5881 c0 -10 39 -36 45 -29 2 2 -8 11 -21 21 -13 10 -24 13
-24 8z"/>
<path d="M11330 5865 c-14 -8 -47 -15 -75 -16 l-50 -2 43 -4 c23 -2 40 -8 37
-14 -14 -21 27 -7 57 21 35 31 29 39 -12 15z"/>
<path d="M12150 5865 c-14 -8 -47 -15 -75 -16 l-50 -2 45 -4 c31 -3 40 -7 30
-14 -13 -7 -13 -9 0 -9 20 0 80 37 80 50 0 12 0 12 -30 -5z"/>
<path d="M11468 5856 c-20 -7 -28 -17 -28 -33 0 -13 5 -23 11 -23 20 0 49 21
49 35 0 7 5 15 12 17 8 3 7 6 -3 9 -7 3 -26 1 -41 -5z"/>
<path d="M13884 5853 c3 -20 32 -41 42 -30 8 7 -23 47 -37 47 -4 0 -6 -8 -5
-17z"/>
<path d="M14060 5860 c-8 -5 -31 -10 -50 -11 -19 -1 -27 -3 -17 -6 18 -5 18
-5 0 -19 -17 -13 -17 -13 5 -14 31 0 59 16 72 40 12 23 11 24 -10 10z"/>
<path d="M14152 5854 c4 -20 34 -41 44 -31 8 8 -24 47 -38 47 -5 0 -8 -7 -6
-16z"/>
<path d="M14330 5860 c-8 -5 -31 -10 -50 -11 -19 -1 -27 -3 -17 -6 18 -5 18
-5 0 -19 -17 -13 -17 -13 5 -14 31 0 59 16 72 40 12 23 11 24 -10 10z"/>
<path d="M14750 5851 c0 -19 35 -39 47 -27 7 7 -26 46 -39 46 -4 0 -8 -9 -8
-19z"/>
<path d="M15020 5851 c0 -19 35 -39 47 -27 7 7 -26 46 -39 46 -4 0 -8 -9 -8
-19z"/>
<path d="M15813 5856 c-22 -7 -33 -17 -33 -28 0 -33 30 -33 61 0 32 34 22 43
-28 28z"/>
<path d="M12468 5853 c-19 -5 -26 -53 -7 -53 20 0 49 21 49 35 0 7 6 16 13 18
15 7 -31 6 -55 0z"/>
<path d="M13053 5853 c-26 -5 -32 -40 -9 -49 20 -8 53 12 59 36 5 21 -1 22
-50 13z"/>
<path d="M13202 5842 c-13 -10 -20 -21 -16 -25 14 -14 41 -6 62 18 l22 25 -23
0 c-12 0 -32 -8 -45 -18z"/>
<path d="M13490 5853 c-20 -8 -29 -23 -23 -40 8 -21 28 -15 56 17 27 30 27 30
5 29 -13 0 -30 -3 -38 -6z"/>
<path d="M14622 5844 c-29 -20 -28 -34 2 -34 14 0 30 10 40 25 15 23 15 25 -2
25 -9 0 -28 -7 -40 -16z"/>
<path d="M14885 5850 c-22 -4 -31 -8 -21 -9 20 -1 20 -1 0 -16 -18 -14 -18
-14 4 -15 29 0 58 15 66 35 3 8 2 14 -2 14 -4 -1 -25 -5 -47 -9z"/>
<path d="M15155 5850 c-22 -4 -31 -8 -21 -9 20 -1 20 -1 0 -16 -18 -14 -18
-14 4 -15 29 0 58 15 66 35 3 8 2 14 -2 14 -4 -1 -25 -5 -47 -9z"/>
<path d="M16328 5853 c-20 -5 -29 -25 -18 -43 11 -18 60 2 60 24 0 8 6 17 13
19 15 7 -31 6 -55 0z"/>
</g>
</svg>
