<svg version="1.2" xmlns="http://www.w3.org/2000/svg" viewBox="0 0 500 300" width="750" height="450">
	<title>Logo--svg</title>
	<style>
		.s0 { fill: #d4af37 } 
	</style>
	<g id="Layer">
		<path id="Layer" class="s0" d="m80.9 18.9c-2.2 1.6-2.4 2.1-2.4 4.1 0 0.9 0 1.9 0.1 2.2 0.1 0.2 0.7 0.9 1.2 1.4l1 1v1.6c0 0.9-0.1 3.2-0.2 5.1l-0.1 3.4-0.6 0.3c-0.6 0.3-0.4 0.3 0.7 0.1 0.4-0.1 0.9-0.4 1.3-0.6l0.6-0.5 0.1-5.3c0.2-5.8 0.2-5.5-1.1-6.7-1-0.9-1.1-1.2-1.1-3.1v-1.7l1.6-1.2c1.4-1.2 1.5-1.3 1-1.3-0.4 0-0.9 0.3-2.1 1.2z"/>
		<path id="Layer" class="s0" d="m53.9 38.3c-0.7 0.2-1.7 0.9-2.2 1.7-0.9 1.5 0 3.5 1.8 4.1 0.9 0.2 2.5 0.2 3.3-0.1l0.7-0.3-0.1 1.9c-0.1 1.8-0.2 2.2-2.4 8.6-1.3 3.7-2.4 6.9-2.5 7-0.5 0.7-0.1 1.8 1 2.7l0.6 0.4h2 2.1l-1.9 0.9c-4.1 1.8-5 2.4-5 3.4 0 0.3 0.5 2.2 1.1 4.2 0.6 2.1 1.2 4.3 1.4 5 0.1 0.6 0.4 1.3 0.5 1.4 0.3 0.3 0.9 0.2 1.3-0.3 0.4-0.4 0.4-0.6 0.2-1-0.1-0.3-0.3-1.1-0.3-1.8-0.2-1.2-1.9-7.8-2.2-8.4-0.2-0.3 0-0.4 1.5-1.2q4.7-2.6 11.4-4.1c1.9-0.4 2-0.6 0.1-0.2-0.5 0.1-1 0.2-1 0.2-0.1 0 0-0.3 0-0.6l0.1-0.5-0.6 0.6c-0.7 0.8-1 0.8-5.6 0.7-3.7 0-3.7 0-4.5-1q-0.5-0.6-0.3-0.7c0.1-0.1 1.2-3.2 2.4-6.9 1.9-5.9 2.1-6.9 2.2-8.4l0.2-1.7v1.5c0 1.1-0.1 2-0.5 3.5l-0.5 2 0.1 5 0.1 4.9 0.9 0.1h0.9l-0.1-5.1-0.1-5.2 0.3 2.7c0.2 2 0.4 3.1 1 5 0.4 1.3 0.8 2.4 0.9 2.5 0.1 0 0.7 0.1 1.2 0.1 1 0 1 0 0.9-0.3 0-0.2-1-3.3-2.2-7l-2.1-6.6-0.1-2.7q-0.1-2.7 0.1-2.3c0.2 0.3 0.3 0.3 2.5 0.3 2.1 0 2.7 0.1 5.4 0.6 3.5 0.7 3.9 0.8 5.2 1.7 0.5 0.3 1.1 0.6 1.4 0.6 0.3 0 1.1-0.5 2.3-1.2 1-0.6 1.9-1.1 2-1.1 0.1 0 0.3 0.1 0.5 0.3 0.4 0.3 0.4 0.6 0.5 3.8v3.4l-2.7 2.1c-2.2 1.7-3.1 2.6-4.4 4.1-2 2.3-3.8 5.2-3.3 5.2 0.1 0 0.9-0.1 1.7-0.2 0.8-0.1 2.8-0.2 4.5-0.2l2.9-0.1 0.3-0.6c0.1-0.4 0.4-0.9 0.6-1.3l0.3-0.7 0.1 0.6c0.1 0.4 0.2 1 0.2 1.4 0 0.7 0 0.8 0.6 0.9 1.4 0.2 1.3 0.3 1.3-2.5 0-2.8-0.1-2.6 1.7-4.6 0.5-0.5 0.8-1 0.7-1.1 0-0.1 0-0.2 0.1-0.2 0.1-0.1 0.2 0 0.2 0.1 0 0 0.1 0.1 0.2 0 0.1 0 0.2 1.5 0.2 4.4v4.4l0.8 0.2c0.5 0 1.4 0.2 2 0.4 2.2 0.5 1.2-0.1-1.1-0.6-0.2-0.1-0.3-0.8-0.3-4.9v-4.8l1.5-0.7c0.8-0.4 1.3-0.8 1.2-0.8-0.3-0.1-1.2 0.2-2.2 0.7l-0.6 0.3 0.6-0.4c2.4-1.7 6.9-3.4 10.9-4 2.5-0.4 5.9-0.6 8.2-0.4 2.7 0.2 3.1 0.3 3 0.6-0.1 0.1-1.2 3.2-2.4 6.9-1.2 3.7-2.3 6.7-2.4 6.7-0.1 0-0.2 0.3-0.2 0.6 0 0.6 0.5 1.4 1.3 2l0.5 0.4h4.7 4.7l0.5-0.4c0.8-0.8 1.5-1.8 1.4-2.1-0.1-0.3-0.1-0.3-0.6 0.3l-0.5 0.6h-4.3-4.2l-0.5-0.4c-0.7-0.6-1.2-1.4-1-1.5 0.2-0.2 0.6-1.4 3-8.5 1.8-5.9 2.6-7.4 1.4-3.2l-0.5 2 0.1 4.9 0.1 4.8 0.7 0.1c0.5 0 0.9 0 1-0.1 0-0.1 0-2.5 0-5.3-0.1-2.8-0.1-5.3-0.1-5.5 0.1-0.1 0.2 1 0.3 2.4 0.1 2.4 0.2 3.1 0.9 5.5 0.4 1.5 0.9 2.8 1 2.9 0.1 0 0.7 0.1 1.2 0.1h1l-0.3-1c-0.1-0.6-1.1-3.7-2.2-7-1-3.3-1.9-6.1-1.8-6.3 0-0.2 0.1 0 0.2 0.4 0.5 1.2 0.7 1.4 1.5 1.8 3 1.2 5.9 3.5 7.5 6.1 1.3 1.9 1.8 3.4 1.8 5.6v2h0.6c0.7 0.1 1.2-0.4 1.3-1.3 0.1-0.4 0.1-0.5-0.1-0.2-0.1 0.2-0.1-0.1-0.1-0.9 0.1-0.7 0.2-1.3 0.2-1.4 0.1-0.3-0.4-2.5-0.9-3.5-2-4.7-6.8-8.1-13.1-9.4-1.8-0.4-2.3-0.4-5.7-0.4-4.4 0-6.1 0.2-9.7 1.1-3.9 1-6.9 2.5-9.9 4.9-2.9 2.2-5 4.8-6.4 7.8-0.5 1.2-0.6 1.4-0.9 1.2-0.2-0.1-1.2-0.2-3.4-0.2-1.7 0-3.2 0-3.2 0 0-0.1 0.5-0.8 1.1-1.7 3-4.7 8.2-8.6 14.8-11 2.2-0.9 6.4-2 7.2-2.1q0.3 0 0.1 0c-0.3-0.1-2.7 0.4-4.1 0.7q-0.9 0.3-0.9 0.1c-0.1-0.2-0.5-0.2-1.7 0.2-0.6 0.2-1.2 0.4-1.3 0.4-0.1 0-0.2-0.5-0.2-1.1v-1.1l1.3-1.4c0.7-0.8 1.4-1.5 1.6-1.6 0.1-0.1 0.2-0.2 0.2-0.3-0.1 0-1 0.4-2 1.1-1 0.6-1.8 1.1-1.9 1.1 0 0-0.9-0.5-1.9-1.1-2.8-1.7-2.8-1.6-0.5 0.8l1.5 1.6v1.5c0 1.3 0 1.4-0.4 1.4-0.2 0-0.9 0.3-1.5 0.8l-1.2 0.7v-3.3c0-3.8-0.1-4.2-1.2-4.6-0.4-0.1-0.8-0.2-1-0.1-0.2 0.1-1.2 0.6-2.2 1.2l-1.7 1.1-0.7-0.5c-1-0.8-2-1.1-5.3-1.7-2.8-0.6-3.2-0.6-6.8-0.7-3.6-0.1-3.8-0.1-3.9 0.1-0.5 1.3-1.3 1.8-2.8 1.8-1.7 0-2.7-0.8-2.7-2.3 0-1 0.3-1.4 1.2-1.8 0.8-0.3 0.4-0.4-0.7-0.1z"/>
		<path id="Layer" class="s0" d="m107.8 40.7c-3.6 0.1-4 0.1-6.4 0.6-2.7 0.6-3.8 0.9-4.9 1.7l-0.7 0.5-1-0.6c-2.5-1.6-2.7-1.7-3.4-1.7-1 0-1.8 0.7-1.8 1.5 0 0.5 0.1 0.5 0.3 0.4 0.4-0.3 0.6-0.2 2.5 1 1.4 0.8 1.9 1 2.6 1.1 0.5 0.1 0.8 0.1 0.6 0-0.2-0.1 0-0.3 0.5-0.7 1.2-0.8 1.6-0.9 5-1.6 2.8-0.6 3.3-0.6 5.6-0.6h2.5v1.3c0 0.9 0.1 1.3 0.3 1.3 1.3 0.3 1.3 0.3 1.3-0.5 0-0.5 0.1-1.2 0.2-1.7 0.1-0.6 0.1-0.5 0.1 0.8 0 1.2 0 1.7 0.2 1.7 0.2 0 0.2-0.4 0.2-1.2 0-0.6 0.1-1.1 0.2-1.1 0.1 0 0.2 0.2 0.2 0.5 0 0.4 0.1 0.6 0.6 0.7 0.8 0.2 2.3 0.2 3 0 1.1-0.3 2.3-1.5 2.5-2.6l0.1-0.6-0.3 0.5c-0.6 0.8-1.3 1.1-2.6 1.1-1.3 0-2-0.3-2.6-1.2-0.4-0.6-0.7-0.8-0.9-0.8 0 0-1.8 0.1-3.9 0.2z"/>
		<path id="Layer" fill-rule="evenodd" class="s0" d="m78.4 62.1c3.9 0.3 6.6 0.9 10.2 2.2 7.7 3 12.8 8.7 14.5 16.1 0.6 2.5 0.7 8.9 0.1 11.6q-0.9 4.7-3.1 8.3c-3.8 6.4-10.8 11-18.7 12.4-1.2 0.2-2.3 0.4-2.5 0.4-0.2 0 0.3-0.1 1.2-0.3 0.8-0.2 1.5-0.3 1.6-0.4 0.1 0 0-0.8-0.2-1.8-1.2-6.3-1.7-14.3-1-15 0.2-0.2 0.5-0.4 0.7-0.4 0.3 0 0-0.2-1-0.8-6.4-3.4-11-8.9-12.7-15.1-1.1-4.2-1.1-9.1 0-13.2 0.2-0.8 0.4-1.5 0.3-1.5-0.1-0.1-1.4 0.3-2.6 0.7-4.4 1.8-7.6 4.8-8.9 8.4l-0.3 1.1 0.1-0.8c0.2-1.3 0.7-2.7 1.9-4.5 1-1.5 1.3-1.9 2.7-3 2.6-2 5-3.1 8.5-3.9 0.9-0.2 2.4-0.4 3.2-0.5 2.2-0.2 3.7-0.2 6 0zm-3.3 0.8c-4.4 0.2-5.1 0.3-5.2 0.8 0 0.1-0.2 1-0.5 1.9-1.2 5.1-0.8 10.6 1.2 15.3 3 7.1 10 12.6 19.4 15.1 3.3 0.9 8.6 1.8 8.9 1.4 0.1-0.1 0.3-0.3 0.5-0.5l0.4-0.4v0.4c0 0.5-1.4 2.2-1.9 2.4-0.4 0.1-3.4-0.3-6-0.7-3.4-0.7-6.8-1.8-8.9-2.8-1.2-0.6-1.3-0.7-1.1-0.3 0.1 0.2 0.3 1.8 0.4 3.6 0.1 1.8 0.3 4 0.4 4.9 0.2 1.8 1.2 7 1.3 7.1 0.1 0.2 1.8-0.4 2.6-0.9 1.1-0.7 1.5-0.8 1.5-0.4 0 0.3 0.1 0.2 1.1-0.3 3.2-1.8 6.5-4.7 8.3-7.6 2.6-3.9 3.9-8.2 4.2-13.5 0.3-7.7-2.4-14-7.9-18.5-1-0.7-2.3-1.7-3-2.1-1.2-0.7-1.4-0.8-1.4-1.3-0.1-0.6-0.4-0.8-2.2-1.4l-0.9-0.3v3.5c0 1.9-0.1 7.5-0.1 12.5-0.1 8-0.2 9-0.4 9-0.4 0-0.5-3.3-0.7-16 0-5-0.1-9.2-0.1-9.2-0.1-0.1-2.7-0.4-3.2-0.4-0.2 0-0.3 0-0.1 0.2 0.3 0.2 0.6 21.2 0.4 21.3-0.3 0.2-0.7-0.4-1.3-1.5l-0.6-1.1-0.1-9c-0.2-8.4-0.1-9.1 0.2-9.5l0.3-0.4-1.1-0.1c-0.6-0.2-1.3-0.2-1.5-0.2-0.4 0.1-0.5 0.1-0.5-0.4 0-0.4 0-0.5-1-0.6-0.6 0-1.2 0-1.4 0z"/>
		<path id="Layer" class="s0" d="m115.3 72.4c-0.2 0-0.3 0.2-0.3 0.3 0 0.1-0.1 0.2-0.2 0.2-0.1 0-0.2 0.2-0.1 0.5 0 0.4 0 0.5 1.4 0.6 2.6 0.4 4.1 1.3 4.8 3 0.5 1.2 0.6 9.6 0.2 11.2-0.9 3.1-3.9 5.7-8.4 7.2-0.8 0.2-1.4 0.4-1.5 0.4 0 0 0-0.3 0-0.7l0.1-0.8-0.2 0.9c-0.2 0.5-0.3 0.9-0.3 0.9 0.2 0.1 3-0.7 4.4-1.2 3.1-1.3 5.3-3 6.7-5.2 1.3-2 1.5-2.9 1.5-7.7 0-5.6-0.4-6.9-2-8.2-1-0.9-1.5-1-3.4-1.2-1-0.1-1.9-0.2-2.1-0.2-0.2-0.1-0.5 0-0.6 0z"/>
		<path id="Layer" class="s0" d="m133.9 72.7c-1 0.2-2.2 1.6-2.6 3-0.4 1.3-0.4 1.9 0 0.8 0.1-0.4 0.4-1 0.6-1.3 0.4-0.5 2.1-1.2 2.8-1.2 0.5 0 1.1-0.6 1.1-1.1 0-0.3-0.1-0.3-0.7-0.3-0.4 0-0.9 0.1-1.2 0.1z"/>
		<path id="Layer" class="s0" d="m43.6 89.1c-0.2 0-0.3 0.1-0.3 0.2 0 0.2-0.1 0.3-0.2 0.3-0.2 0-0.2 0.2-0.2 0.4 0.1 0.4 0.2 0.5 0.7 0.7 1.8 0.4 2.5 0.8 3.2 1.8 0.9 1.4 1 1.7 1.1 8.6l0.1 6.5 0.8 0.6c6.6 4.6 14.7 7.3 23.8 7.9 2.6 0.2 6.7 0.1 9-0.1 1-0.1 1.1-0.1 1.2 0.2 0 0.1 0.3 1.1 0.6 2l0.5 1.8h0.6c0.5 0 0.7-0.1 0.9-0.3 0.3-0.4 1.3-3.7 1.3-4.2 0-0.2 0.5-0.4 1.7-0.7 8.2-1.9 14.4-5.7 18.8-11.3 0.6-0.9 1.5-2.2 2-3l0.7-1.5 1.8-0.3c5.9-1.1 11.5-3.2 16.3-6.3 1-0.6 2-1.3 2.3-1.6 0.5-0.6 0.6-1.1 0.3-1.1-0.1 0-1 0.5-1.9 1.1-0.9 0.5-1.8 1.1-2 1.2-0.2 0.1-0.5 0.2-0.6 0.3-0.7 0.4-3.6 1.7-5.5 2.4-2.4 1-5 1.7-8.3 2.3l-2.2 0.4-0.3 0.7c-0.3 1.1-2.3 4.1-3.5 5.4-7.6 8.5-22.6 12.6-37.5 10.3-6.5-1.1-13.2-3.7-18-7.1l-0.8-0.6v-3.6c0-2 0.1-3.6 0.2-3.6 0.1 0.1 0.1 0.6 0.1 1.2 0 0.6 0.1 1.1 0.3 1.2q0.2 0.2 0.1 0c-0.1-0.1 0-0.4 0.1-0.6 0.2-0.3 0.2-0.4 0-0.5-0.1 0-0.1-0.1-0.1-0.3 0.1-0.2 0.2-0.3 0.2-0.2 0.1 0 0.2-0.6 0.2-1.4 0-0.7 0-1.3 0.1-1.3 0.1 0 0.1-0.6 0.1-1.5 0-1 0-1.6-0.1-1.6-0.1 0-0.2-0.2-0.2-0.5 0-0.2 0-0.4 0.2-0.3 0.1 0 0.1-0.6 0.1-1.7v-1.8h-0.7c-0.7 0-0.8 0-0.8 0.4 0 0.2 0 0.5 0 0.6 0 0.1 0.1 0.6 0.2 1 0.2 1 0.3 2.1 0 1.9-0.2-0.2-0.9-2.3-0.7-2.2 0.4 0.3 0.3-0.8 0-1-0.3-0.2-0.3-0.2-0.2 0.2 0.1 0.2 0.1 0.4-0.1 0.5-0.1 0-0.2 0-0.2-0.1 0 0-0.3-0.4-0.6-0.7-0.6-0.5-0.9-0.7-1.8-0.8-0.6-0.1-1.4-0.2-1.8-0.3-0.3 0-0.8-0.1-1 0z"/>
		<path id="Layer" class="s0" d="m62.9 89.3c-0.6 0-1.7 0.1-2.6 0.2-1.3 0.1-1.5 0.1-1.5 0.4 0 0.2-0.1 0.5-0.3 0.7-0.1 0.2-0.2 0.3-0.1 0.3 0 0 0 0.1-0.1 0.2-0.3 0.3-0.8 1.7-0.9 2.7-0.1 0.8-0.1 0.9 0.1 0.3 0.6-2.1 1.9-3 4.7-3.3 0.8-0.2 1.2-0.3 1.5-0.5 0.3-0.4 0.6-1.2 0.4-1.2-0.1 0-0.6 0.1-1.2 0.2z"/>
		<path id="Layer" class="s0" d="m164.2 65.2c-4.8 1.1-9.1 4.2-11.7 8.5-1.7 2.8-2.4 5.1-2.4 8.2 0 4.9 2 8.5 5.8 10.5l0.8 0.5h6.6 6.6l1.4-0.7c0.8-0.4 2.1-1.1 3-1.8l1.4-1v1.7 1.7l1 0.1c0.6 0.1 0.9 0.2 0.8 0.2-0.1 0.1-6.7 0.2-14.8 0.2-14.3 0.1-14.7 0.1-14.9-0.2-0.1-0.1-0.4-0.2-0.6-0.2-0.7 0-1.1 0.6-1 1.4v0.7l15 0.1h14.9v0.5c0 1.4 0.8 2.3 2 2.3 0.6 0 0.7 0 1.1-0.5 0.5-0.6 0.5-1 0-1.2-0.2-0.1-0.4-0.3-0.4-0.4 0-0.2-0.1-0.2-0.2-0.2-0.1 0.1-0.1-0.3-0.1-0.9 0-1.1 0.3-1.2 0.6-0.2l0.1 0.6h71.8 71.8l0.3 1.1c0.2 1.1 0.2 1.2 0.8 1.5 0.9 0.4 2 0.3 2-0.1 0-0.2 0.1-0.2 0.2-0.2 0.5 0 0.2-0.9-0.4-1.2-0.5-0.4-0.6-0.6-0.8-1.6l-0.2-1.2h-35.6c-50 0-110.3-0.1-110.5-0.2-0.3-0.2-0.2-7 0.1-8.6 0.1-0.2 0.2-0.4 0.3-0.4 0.1 0 0.2 0.2 0.2 0.4 0 0.5 0.1 0.4 0.4-0.4 0.2-0.5 0.4-1.2 0.5-1.6l0.1-0.7h1.7c1.6 0 1.8 0 2.2-0.4 0.4-0.3 0.5-0.5 0.4-0.9 0-0.4-0.1-0.4-0.9-0.6-0.9-0.2-4.4-0.3-4.7-0.1 0 0-1.1 0.1-2.5 0.1-3.2 0.1-3.2 0.1-3.4 0.3q-0.2 0.2-0.3 0c-0.2-0.2-2.8 0-3 0.3-0.2 0.3-1.3 0.3-1.3 0.1 0-0.1-0.3-0.1-0.8-0.1-1.6 0.2-1.9 0.3-1.9 0.5 0 0.1-0.3 0.2-0.6 0.2-0.5 0.1-0.7 0-0.7-0.1 0-0.3-0.8-0.1-1.1 0.2-0.2 0.3-0.3 0.2-0.9 0-0.4-0.2-0.6-0.4-0.6-0.4 0.1-0.2-0.5-0.2-1-0.1-0.1 0.1-0.3 0.2-0.3 0.3 0 0.2 0 0.2-0.2 0.2 0 0-0.1 0.3-0.1 0.7 0 1.2 0.9 1.5 4 1 2.6-0.4 7.2-0.8 9.3-1 0.9 0 1.9-0.1 2.3-0.2h0.7l-0.1 1c-0.2 1.7-1.1 2.8-3.7 4.8-2.4 1.9-4 2.7-6.5 3.4-1.2 0.4-1.2 0.4-0.5 0.3 1.3-0.1 3.4-0.7 4.5-1.2 0.5-0.3 1-0.5 1.1-0.4 0.1 0.1-0.4 0.4-1.7 0.9-0.8 0.3-1.1 0.6-1.1 0.8 0 0.2-0.3 0.3-1.3 0.5-2.7 0.5-6.2 0.2-8.5-0.7-5.8-2.3-8.2-9.4-5.4-15.9 0.6-1.5 1-2.2 1.2-2.2 0.1 0 0.4 0.1 0.6 0.2 0.3 0.2 0.3 0.3-0.3 1.5-0.6 1.2-1.4 3.5-1.4 4.1 0 0.1 0.2-0.2 0.4-0.8 1.8-5.2 6.4-9.3 12-10.6 1.7-0.4 4.1-0.4 5.5 0 3.7 1.1 4.1 4.2 1 6.8-1.1 1-1.2 1.2-1.1 1.6 0 0.6 0 0.6 0.9 0.6 0.5 0.1 1.2 0 1.5-0.1 1.5-0.7 3.6-3.1 3.8-4.5 0.1-0.6 0.1-0.6-0.2-0.4-0.2 0.2-0.2 0.1-0.2-1 0-1-0.1-1.4-0.5-2.1-0.7-1.2-1.9-2.1-3.4-2.7-1.2-0.4-1.5-0.5-2.7-0.5-0.8 0.1-1.4 0-1.4-0.1 0-0.1-0.4-0.1-1.1 0-1.6 0.1-2.6 0.3-2.6 0.6 0 0.1 0 0.2-0.2 0.3q-0.2 0.1 0-0.2c0.1-0.3 0-0.3-0.4-0.2-0.3 0.1-0.6 0.2-0.8 0.3-0.2 0.1-0.5 0.2-0.7 0.2-0.2 0.1-0.3 0.2-0.2 0.3 0 0.1 0 0.3-0.1 0.3-0.1 0.1-0.2 0-0.2 0 0-0.1-0.1-0.2-0.2-0.2-0.1 0-0.2 0.1-0.2 0.3 0 0.3-0.1 0.4-0.3 0.1-0.3-0.3-0.5-0.2-0.4 0.3 0.1 0.4 0.1 0.4-0.3 0.3-0.4-0.1-0.5-0.1-0.5 0.1 0.1 0.1-0.2 0.4-0.6 0.7-0.7 0.6-0.8 0.6-1.4 0.5l-0.6-0.1 0.7-0.6c1.7-1.4 4.3-2.6 7-3.2q0.9-0.2 0.4-0.2c-0.3 0-1.2 0.2-2.1 0.4z"/>
		<path id="Layer" class="s0" d="m311.6 65c-1.7 0.4-4.5 1.5-6.1 2.5-4.2 2.6-7.5 7.1-8.4 11.6-0.3 1.7-0.2 4.8 0.2 6.3 0.8 3 2.5 5.4 5 6.8l1.2 0.7h6.6 6.7l1.1-0.6c1.5-0.7 2.5-1.3 3.8-2.2l1-0.8v1.8 1.8h1 1v-3.3c0-2.4-0.1-3.2-0.3-3.2-0.1 0-0.2 0.1-0.2 0.2 0 0.3-2.7 2.5-3.7 3-0.5 0.3-0.9 0.5-0.9 0.6-0.2 0.1-1.7 0.7-2.7 1.1-3.7 1.3-8.2 1.3-11.5 0-1.5-0.6-3.6-2.3-4.5-3.5-1.9-2.7-2.5-6.7-1.6-10.4 1.5-6 6.8-11 13.4-12.4 1.1-0.2 0.3-0.2-1.1 0z"/>
		<path id="Layer" class="s0" d="m313.3 65.8c-3.5 0.8-6.4 2.6-9.1 5.6-1.8 1.9-3.5 5.1-3.7 6.8-0.1 0.7-0.1 0.6 0.3-0.4 1-2.8 2.5-4.8 5.1-6.9 2.3-1.7 3.8-2.5 6.3-3.2 2.8-0.7 5.8-0.5 7.5 0.6 1.6 1.1 2 2.9 0.9 4.6-0.4 0.6-1 1.3-1.4 1.6-0.4 0.3-0.8 0.6-0.8 0.7 0 0-0.1 0.1-0.1 0.1-0.3 0-0.4 0.6-0.2 1 0.1 0.3 0.3 0.4 1 0.4 1.4 0 2.4-0.7 3.7-2.2 0.8-0.8 1.6-2.4 1.6-3q0-0.3-0.3 0.3c-0.4 1.1-1.8 2.4-3 2.9-1.4 0.6-1.4 0.3-0.1-0.8 1.6-1.3 2.2-2.5 2.2-4.1 0-1.2-0.3-1.9-1.1-2.7-0.8-0.7-1.7-1.1-3-1.3-1.3-0.3-4.3-0.3-5.8 0z"/>
		<path id="Layer" class="s0" d="m209.7 75.3c-0.2 0-0.3 0.1-0.3 0.2 0 0.2-0.1 0.3-0.2 0.3-0.2 0-0.8 1.7-0.7 2.2 0 0.5 0.1 0.6 0.8 0.8 1.2 0.3 1.8 0.1 2.3-0.8 0.3-0.4 0.6-1 0.6-1.3l0.1-0.6-0.4 0.6c-0.4 0.5-0.4 0.5-1 0.4-0.6-0.2-0.6-0.2-0.3-0.9q0.3-0.6 0.1-0.7c-0.1 0-0.1-0.1-0.1-0.2 0.2-0.1-0.3-0.2-0.9 0z"/>
		<path id="Layer" class="s0" d="m230.3 75.5c-0.4 0.4-1.1 1.8-1.1 2.4 0 0.5 0.6 0.9 1.7 0.9 0.8 0 0.9 0 1.4-0.7 0.3-0.3 0.6-0.9 0.6-1.2l0.1-0.6-0.2 0.5c-0.2 0.2-0.4 0.4-0.4 0.4-0.2 0-1.3-0.3-1.3-0.3 0-0.1 0.2-0.4 0.3-0.7q0.3-0.5 0.1-0.7c-0.1-0.1-0.1-0.2-0.1-0.2 0.1-0.1 0-0.1-0.3-0.1-0.2 0-0.6 0.1-0.8 0.3z"/>
		<path id="Layer" class="s0" d="m382.2 78.7c-0.8 0.1-1.7 0.4-2.2 0.6-1 0.4-2.1 1.4-2.3 2.1-0.2 0.8-3 2.6-5 3l-0.5 0.2h0.5c0.7 0 2.8-0.6 3.7-1.1 0.4-0.2 1.3-0.8 2-1.2 1.2-0.8 1.4-1 1.4-1.4 0-1 0.7-1.5 3.1-2.2 1.9-0.5 1.2-0.5-0.7 0z"/>
		<path id="Layer" class="s0" d="m383.6 79.5c-0.9 0.2-1.9 0.6-2.2 0.7-0.6 0.3-0.6 0.8-0.1 1.1 0.4 0.2 0.6 0.2 1.8-0.1 0.8-0.2 1.8-0.4 2.2-0.5 0.5-0.1 0.8-0.3 0.8-0.4 0-0.1 0.1-0.2 0.2-0.2 0.1 0 0.2-0.2 0.2-0.5 0-0.5 0-0.5-0.6-0.5-0.4 0-1.4 0.2-2.3 0.4z"/>
		<path id="Layer" class="s0" d="m208.4 79.5c-0.6 0.4-0.9 1.1-1.1 1.9 0 0.7-0.2 0.8-0.9 1.3-1.3 0.8-2 1.2-3.1 1.5-1.3 0.4-0.8 0.5 0.6 0.2 1.1-0.3 2.8-1.1 4.2-2 0.9-0.6 1-0.8 1.2-1.6 0.4-1.4 0.3-1.6-0.1-1.6-0.2 0-0.6 0.1-0.8 0.3z"/>
		<path id="Layer" class="s0" d="m229.3 79.4c-0.5 0.4-0.7 0.9-1.1 1.9l-0.3 1-1.4 0.7c-0.8 0.4-2.1 0.9-2.8 1.1-1.2 0.3-1.3 0.3-0.5 0.3 0.5-0.1 1.4-0.3 2.1-0.5 1.2-0.3 4.4-1.9 4.6-2.2 0-0.1 0.2-0.7 0.3-1.3l0.3-1.2h-0.5c-0.2 0-0.5 0.1-0.7 0.2z"/>
		<path id="Layer" class="s0" d="m219.7 79.6c-0.8 0.3-1.6 0.9-2.2 1.7-0.3 0.5-2.7 1.7-4.5 2.4-1.1 0.4-1.2 0.5-0.5 0.4 1.1-0.1 3-0.8 4.9-1.9 1.4-0.7 1.8-1 1.9-1.4 0.1-0.3 0.5-0.7 1-1 1-0.5 0.6-0.6-0.6-0.2z"/>
		<path id="Layer" class="s0" d="m186.1 80.1c-0.7 0.8-1.1 5.6-0.5 6.3 0.4 0.3 1.5 0.6 2 0.5 0.5-0.1 1-0.7 1-1.1 0-0.2-0.2-0.5-0.6-0.7-0.5-0.4-0.5-0.4-0.5-1.8 0-0.8 0.1-1.9 0.1-2.3 0.2-1 0-1.3-0.7-1.3-0.2 0-0.6 0.1-0.8 0.4z"/>
		<path id="Layer" class="s0" d="m193.6 79.9c-1 0.3-2.5 1.1-3.3 1.8-0.8 0.7-1.5 2-1.6 2.8l-0.1 0.8 0.3-0.6c0.3-0.7 1-1.4 2.1-2 1.1-0.7 2.3-1.2 2.4-1 0.1 0.2 1.5 0.3 1.9 0.1 0.8-0.5 1.1-1.7 0.5-1.7-0.2 0-0.5-0.1-0.5-0.2-0.2-0.3-0.6-0.3-1.7 0z"/>
		<path id="Layer" class="s0" d="m197.6 80c-2.4 1.3-3 4.2-1.1 5.7 2 1.7 7.4 1.7 10.3 0l0.8-0.5 0.7 0.6c1.6 1.4 4.9 1.1 7.9-0.6 0.6-0.3 1-0.4 1-0.3 0.2 0.3 1.5 1.4 2 1.6 1.3 0.5 4.1 0.5 6.2 0 0.4-0.2 1.4-0.5 1.9-0.8l1.1-0.5 0.8 0.6c1.6 1.3 4.6 1.2 7.2-0.2l0.7-0.4 0.7 0.5c1.6 1.1 4.2 0.8 7-0.7l0.9-0.5 0.4 0.4c0.2 0.2 0.8 0.6 1.3 0.8 1.2 0.4 3.5 0.3 5.1-0.2 1.1-0.4 1.1-0.4 1.1-0.1 0 0.8 2.2 1.2 2.8 0.5 0.6-0.7 0.5-1.1-0.1-1.3-0.6-0.2-0.7-0.3-0.7-1 0-0.9-0.2-1.2-0.5-0.7-0.3 0.4-2.9 1.3-4.1 1.4-1.2 0.1-2.5-0.3-3.1-1-0.9-1-1-1-1.2-0.8-0.3 0.4-2.9 1.6-3.9 1.9-1.5 0.3-2.3 0.3-3.1-0.3-0.4-0.2-0.7-0.6-0.7-0.8 0-0.5-0.1-0.5-1.2 0.2q-2.6 1.4-4.4 1.4c-1.7 0-2.4-0.3-2.9-1.2-0.2-0.4-0.5-0.8-0.6-0.8-0.1 0-0.5 0.3-1 0.6-1.6 1-4.9 1.8-6.5 1.6-1.9-0.2-3.4-1.3-3.4-2.4 0-0.5-0.2-0.5-0.9 0-0.9 0.7-2.7 1.6-3.8 1.9-0.7 0.3-1.3 0.3-2.2 0.3-1.5-0.1-2.1-0.5-2.5-1.4-0.2-0.4-0.4-0.7-0.4-0.7-0.1 0-0.6 0.3-1.1 0.7q-2.6 1.9-6.4 1.7c-3.4-0.3-5-2.1-3.8-4.2 0.2-0.4 0.6-0.8 0.9-1l0.5-0.3h-0.5c-0.3 0-0.8 0.1-1.2 0.3z"/>
		<path id="Layer" class="s0" d="m273.3 79.9c-0.4 0.1-0.9 0.5-1.2 0.8-0.5 0.6-3.4 2.2-4.8 2.7-0.7 0.2-0.8 0.3-0.4 0.3 1.2 0 5.5-2 6.3-2.9 0.2-0.3 0.7-0.7 1.1-0.9 0.5-0.2 0.5-0.3 0.1-0.3-0.3 0-0.8 0.2-1.1 0.3z"/>
		<path id="Layer" class="s0" d="m333.6 80.5c-1.7 1.4-2.3 2.6-2 4.2 0.1 0.8 1 1.6 2 1.9 0.7 0.3 2.1 0.3 3.1 0.1 1.4-0.3 2.7-1.5 3-2.8l0.1-0.7h1.3c0.7 0 1.7 0 2.2-0.1l0.9-0.1 0.1 1.2c0.1 1 0.2 1.2 0.7 1.5 0.4 0.4 0.6 0.4 1.3 0.4 0.8-0.1 1-0.2 2.6-1.6l1.7-1.6 0.5 1.1c0.5 1.2 0.9 1.5 2.1 1.5 0.7 0 1-0.1 2.3-0.9l1.5-0.9 0.5 0.6c0.3 0.3 1 0.7 1.5 1 1 0.4 1.2 0.4 2.8 0.4 1.5 0 1.9 0 2.9-0.4 1-0.4 1.1-0.4 1.3-0.1 0.4 0.5 1.5 1.2 2.5 1.4 0.9 0.3 1.7 0.3 3.3 0.3 2.3 0 3.3-0.2 5-1.1l0.9-0.5v0.5c0 0.2 0.1 0.5 0.3 0.7 0.8 0.5 5.6 0.5 6.9 0 0.7-0.3 1.4-1.1 1.4-1.7 0-0.4 0-0.4-0.6-0.1-0.8 0.3-2.9 0.5-4.3 0.4-1.3-0.1-2.7-0.7-2.4-1.1 0.1-0.1 0.3-0.1 0.9 0.1 0.6 0.3 1.2 0.3 2 0.3 1.7 0 3.1-0.1 3.2-0.3 0-0.1-0.8-0.6-1.9-1-1.1-0.4-2.2-0.9-2.5-1.1-0.7-0.3-1.1-0.3-1.1 0 0 0.5-2.3 2.1-3.6 2.6-1.6 0.6-3.8 0.8-5.5 0.4-1.3-0.3-2.6-1.2-2.8-1.9 0-0.2-0.2-0.4-0.3-0.4-0.2 0-0.8 0.2-1.4 0.5-0.6 0.3-1.4 0.6-1.7 0.7-0.9 0.2-2.7 0.1-3.6-0.3-0.6-0.2-1.6-1.1-1.9-1.7-0.3-0.5-0.7-0.3-2.1 0.5-1.7 1.1-2.1 1.3-2.5 1.3-0.5 0-1-0.7-1.3-1.8-0.4-1-0.5-1.2-1-1-0.2 0-1.3 0.9-2.5 1.8-1.9 1.5-2.1 1.6-2.5 1.5-0.5-0.2-0.7-0.9-0.5-2.2 0-0.6 0-1-0.1-1 0 0-0.6 0.1-1.3 0.2-0.7 0.1-2.3 0.3-3.5 0.3-2.3 0.2-2.2 0.1-1.8 1 0.4 1.1-1.5 2.6-3.4 2.6-1.1 0-1.7-0.3-2.2-0.9-0.9-1-0.4-3.2 0.7-3.6 0.3-0.1 0.5-0.3 0.5-0.5 0-0.2 0.2-0.3 0.3-0.3 0.1-0.1 0-0.1-0.3-0.1-0.4 0-0.8 0.2-1.7 0.8z"/>
		<path id="Layer" class="s0" d="m367.9 79.9c-0.5 0.2-1 0.7-1.5 1.2-0.9 1.1-1 1.1-3.1 1.8-0.8 0.3-1.3 0.5-1.1 0.5 0.6 0 2-0.4 3.9-1 1.4-0.6 1.5-0.7 1.8-1.3 0.1-0.3 0.5-0.8 0.9-1 0.6-0.4 0.6-0.4 0.2-0.4-0.3 0-0.8 0.1-1.1 0.2z"/>
		<path id="Layer" class="s0" d="m221.5 80.3c-0.8 0.3-1.5 1.3-1.5 2.1v0.4l0.5-0.5 0.5-0.5 0.1 0.5c0.1 0.4 0.2 0.4 0.9 0.5 0.4 0 0.9-0.1 1.3-0.1 0.6-0.3 1.3-1 1.3-1.5 0-0.4-0.3-0.4-1.2-0.1-0.3 0.1-0.3 0.1-0.1-0.3 0.5-0.9-0.5-1.1-1.8-0.5z"/>
		<path id="Layer" class="s0" d="m254.3 80.5c-0.1 0.3-0.3 0.7-0.3 0.9 0 0.5-1.4 1.3-3.6 1.9l-0.7 0.3 0.8-0.1c1.9-0.2 5.4-1.9 5.4-2.6 0-0.6-0.2-0.8-0.7-0.8-0.4 0-0.6 0.1-0.9 0.4z"/>
		<path id="Layer" class="s0" d="m323.8 80.2c-2 0.1-8 0.7-10.2 1-3.7 0.5-3.9 0.5-4.5 0.2-0.3-0.1-0.4-0.3-0.4-0.4 0.1-0.1-0.1-0.1-0.4-0.1-0.7 0-1.4 0.6-1.4 1.2 0 0.6 0.9 1.3 1.6 1.3 0.2 0 1.9-0.2 3.8-0.4 2.9-0.4 5.6-0.7 10.1-1l1-0.1-0.1 0.8c-0.3 1.7-1 2.8-3 4.6-2.1 1.7-4.6 3.1-7.1 3.8-1.9 0.5-1.4 0.6 0.5 0.1 4.1-1 8-3.5 10.7-6.9 0.5-0.7 0.7-1 0.9-2.4 0.2-1.2 0.2-1.6 0-1.7-0.1 0-0.3-0.1-0.3-0.1-0.1 0-0.6 0.1-1.2 0.1z"/>
		<path id="Layer" class="s0" d="m326.8 80.3c-0.1 0-0.1 0.2 0 0.3 0 0 0.1 0.5 0.1 1 0 0.4 0.1 0.7 0.1 0.6 0.1-0.3 0.3-0.3 1.8-0.3 1.6 0 1.8 0 2.2-0.4 0.5-0.4 0.6-0.9 0.3-1.2-0.3-0.2-4.3-0.3-4.5 0z"/>
		<path id="Layer" class="s0" d="m239.7 80.7c-0.7 0.2-1.4 0.6-1.7 0.9-0.7 0.6-3 1.7-4.4 2.2l-1 0.4 0.7-0.1c0.5-0.1 1.3-0.2 1.8-0.4 1.4-0.5 3.8-1.7 4.2-2.2 0.3-0.3 0.9-0.6 1.5-0.9 0.7-0.3 0.9-0.4 0.5-0.4-0.3 0-1 0.2-1.6 0.5z"/>
		<path id="Layer" class="s0" d="m262.2 80.9c-2.5 0.4-5.8 2.5-5.4 3.4 0.1 0.3 0.1 0.3 0.8-0.1 0.7-0.5 2.2-1.1 3.4-1.5l0.7-0.2v0.7q0 2.9 4.3 2.9c1.6 0 2.8-0.3 4.2-0.9l0.9-0.4 0.4 0.5c1.3 1.7 6.3 2.3 9.6 1 1.5-0.6 3.1-1.9 3.9-3.2 0.9-1.3 1-2.1 0.2-1-1.2 1.6-3.4 2.8-5.8 3.1-1.4 0.2-3.5 0-4.6-0.5-0.9-0.3-1.7-1-1.9-1.6-0.2-0.6-0.2-0.6-1.1-0.1-1.2 0.8-2.9 1.3-4.3 1.4-1.5 0.1-2.3-0.1-3.2-0.8-0.5-0.5-0.6-0.6-0.7-1.7 0-1.3 0-1.3-1.4-1z"/>
		<path id="Layer" class="s0" d="m335.2 81.4c-0.4 0.7-0.8 2.1-0.4 1.7 0.1-0.2 0.3-0.2 1-0.1 0.7 0.1 0.7 0.2 0.6 0.6-0.1 0.3-0.3 0.6-0.5 0.7l-0.5 0.3h0.5c1.5 0 2.9-1.3 2.5-2.6-0.1-0.4-0.2-0.5-1.3-0.8-0.7-0.2-1.3-0.3-1.4-0.3-0.1 0-0.3 0.2-0.5 0.5z"/>
		<path id="Layer" class="s0" d="m242.1 81.3c-1.4 0.4-2.3 1.1-2.3 2 0 0.3 0 0.3 0.9 0 0.8-0.3 2.1-0.7 2.1-0.6 0 0.1-0.6 0.4-1.3 0.6-1.3 0.5-1.4 0.6-0.7 0.5 1.5-0.2 5.8-2.2 5.6-2.6-0.1-0.3-3.2-0.2-4.3 0.1z"/>
		<path id="Layer" class="s0" d="m201.5 81.8c-0.9 0.5-1.7 0.9-1.7 0.7 0-0.1-0.4 0-0.8 0.2-0.4 0.1-0.8 0.3-0.8 0.4 0 0.1 0.3 0.4 0.7 0.7 0.7 0.5 0.7 0.5 1.2 0.3 1.1-0.4 2.3-1.9 2.1-2.5 0-0.3-0.1-0.2-0.7 0.2z"/>
		<path id="Layer" class="s0" d="m371.6 81.8c-0.8 0.6-1.9 1-2.4 1-1 0-1 0.2-0.2 0.9l0.8 0.6 0.6-0.3c0.8-0.4 1.9-1.6 1.9-2.1 0-0.3 0-0.5-0.1-0.5 0 0.1-0.3 0.2-0.6 0.4z"/>
		<path id="Layer" class="s0" d="m330.3 93.4c-2.5 0-4.6 0.1-4.6 0.1 0 0.1 0.1 0.4 0.2 0.9l0.3 0.7h32c28.3 0 32 0 32-0.2 0-0.1 0.1-0.2 0.2-0.2 0.3 0 0.2-1.2-0.2-1.3-0.3-0.1-50.3-0.1-59.9 0z"/>
		<path id="Layer" class="s0" d="m200.1 98.5c-0.2 0.2-0.3 0.4-0.3 0.5 0 0-0.6 1.2-1.4 2.6-0.9 1.6-1.5 2.5-1.7 2.5-0.4 0.1-0.9 0.8-0.7 1.3 0.1 0.3 0.2 0.3 1.6 0.3 1.7 0 2-0.1 2.2-1 0.1-0.4 0-0.4-0.5-0.5-0.5-0.1-0.5-0.2-0.4-0.4 0.2-0.6 0.7-1.5 0.8-1.5 0.1 0.1-0.1 0.4-0.2 0.7-0.4 0.7-0.3 1.4 0.1 0.9 0.1-0.2 0.4-0.2 1-0.2 0.7 0 0.8 0 1 0.4q0.2 0.4 0.1 0.6c-0.1 0-0.2 0.3-0.2 0.5l0.1 0.5h4.4c4.2 0 4.5 0 5.2-0.4 1.3-0.5 2.6-1.9 2.6-2.9v-0.3l-0.2 0.3c-0.2 0.2-0.5 0.5-0.7 0.6l-0.4 0.2 0.4-0.6c0.4-0.6 0.4-1.9 0.1-2.6-0.6-1.1-2.1-1.6-4.2-1.6-1 0.1-1 0.1-1.1 0.5 0 0.2 0 0.6 0 0.8 0.1 0.3 0.3 0.4 1 0.4 0.8 0 1 0 1.6 0.5 1.3 1 1.2 2.6-0.2 3.1l-0.6 0.2h0.6c0.3 0 0.9-0.1 1.3-0.2 0.9-0.4 1.1-0.3 0.4 0.1-0.4 0.2-1 0.2-2.5 0.3h-2v-2.8-2.7l-0.7-0.2c-1.1-0.2-1.6-0.2-1.6 0.1 0 0.1-0.1 0.2-0.2 0.2-0.1 0-0.2 0.2-0.2 0.5 0 0.4 0.1 0.5 0.3 0.6 0.4 0.1 0.4 0.3 0.5 2.3 0 1.2 0 2.1-0.1 2.1 0 0-0.4 0-0.7-0.1-0.4-0.1-0.6-0.3-0.7-0.6 0-0.2-0.2-0.7-0.4-1.1-0.2-0.3-0.7-1.2-1-1.9-0.4-0.7-0.7-1.3-0.8-1.4-0.1-0.1-0.2-0.4-0.2-0.6 0-0.3-0.1-0.4-0.6-0.4q-0.5 0-0.8 0.4z"/>
		<path id="Layer" class="s0" d="m223.9 98.3c-0.3 0.1-0.9 0.3-1.2 0.5l-0.7 0.4 0.1-0.4c0.1-0.4-0.2-0.5-0.7-0.3-0.1 0.1-0.9 1.4-1.8 2.8-1.4 2.7-1.5 2.8-1.7 2.4-0.2-0.2-0.8-1.4-1.5-2.7-0.7-1.2-1.4-2.3-1.6-2.4-0.2-0.1-0.7-0.2-1.2-0.3-0.8-0.1-0.9 0-0.9 0.2 0 0.1-0.1 0.2-0.3 0.2-0.1 0 0 0.2 0.3 0.4 0.6 0.5 1.1 1.3 1.1 1.7 0 0.2 0.6 1.4 1.3 2.7 1.3 2.3 1.3 2.3 1.9 2.3 0.7 0 0.6 0.1 2.8-3.7 1-1.9 1.5-2.5 1.6-2.3 0.1 0 0 0.3-0.2 0.6-0.4 0.6-0.6 2.2-0.3 3.1 0.3 0.7 1.3 1.7 2.3 2 0.5 0.2 1.1 0.3 2.4 0.2 1.6 0 1.9-0.1 2.6-0.4 0.4-0.3 0.9-0.7 1.2-1 0.5-0.7 0.8-0.8 0.8-0.4 0 0.3 1.1 1.2 1.9 1.6 1 0.4 3.5 0.4 4.5-0.1 0.4-0.1 0.8-0.2 0.8-0.2 0 0 0.1 0.1 0.1 0.2 0.1 0.3 0.3 0.4 1.6 0.4 1.5 0 1.6-0.1 1.9-0.5 0.5-0.6 0.4-0.9-0.3-1.1-0.4-0.1-0.7-0.1-0.8-0.1-0.1 0 0-0.2 0.2-0.4 0.2-0.2 0.9-1.3 1.4-2.4 1.1-2.2 1.1-2.2 1.3-2.1 0 0-0.2 0.6-0.5 1.3-0.4 0.7-0.6 1.2-0.6 1.3 0 0 0.4 0.1 0.9 0.1 1.6 0 1.8 0.2 0.2 0.2l-1.4 0.1-0.4 0.8c-0.2 0.4-0.3 0.8-0.2 0.9 0.1 0.1 0.2 0 0.3-0.1 0.1-0.2 1.7-0.2 1.9 0 0 0.1 0.1 0.6 0.1 1v0.9h1.7c1.4 0.1 1.6 0 1.9-0.3l0.3-0.2 0.8 0.3c1.1 0.4 4 0.3 4.8-0.1 0.8-0.5 1.5-1.3 1.7-2l0.1-0.6-0.4 0.4c-1 1.1-3.2 1.4-4.7 0.7-1.4-0.6-2.1-2.3-1.7-3.8 0.3-0.8 0.9-1.4 1.9-1.8 0.7-0.2 0.3-0.3-0.7 0-2.4 0.5-4 3.1-2.9 4.9 0.2 0.5 0.6 0.8 0.8 0.9l0.5 0.1h-0.4c-0.7 0.1-1.5-0.3-1.5-0.5 0-0.3-2-4.4-2.3-4.6-0.1-0.1-0.2-0.4-0.2-0.6 0-0.3 0-0.4-0.4-0.4-0.6 0-0.9 0.4-2.5 3.3-0.8 1.6-1.2 2.2-1.3 2l-0.1-0.4-0.4 0.4c-0.9 0.7-2.7 1.1-4 0.7-0.8-0.2-1.8-1-2-1.6-0.5-1.1-0.2-2.9 0.5-3.6 0.2-0.1 0.7-0.4 1.1-0.5 0.9-0.3 0.4-0.4-0.7-0.1q-2.6 0.7-2.7 2.9c-0.1 1.3-0.5 1.9-1.7 2.5-1.6 0.8-3.3 0.7-4.6-0.1-0.9-0.7-1.2-1.3-1.2-2.5 0-1.3 0.7-2.2 1.8-2.7 0.7-0.2 0.7-0.3 0.4-0.3-0.3 0-0.8 0.1-1.1 0.2z"/>
		<path id="Layer" class="s0" d="m261.1 98.4c-0.4 0.5-3.1 5.4-3.1 5.7 0 0.1-0.2 0.1-0.4 0.1-0.9 0-1-0.1-0.9-2.8 0-1.7-0.1-2.7-0.2-2.8-0.1-0.1-0.6-0.2-1.1-0.3-0.7-0.1-0.9 0-1.1 0.2-0.4 0.4-0.4 1.2 0 1.3 0.2 0.1 0.3 0.5 0.3 2.2 0 1.8-0.1 2-0.4 2.6-0.4 0.4-0.4 0.6-0.3 0.8 0.2 0.2 0.6 0.3 3.2 0.3h3l0.3-0.4c0.5-0.7 0.3-1-0.5-1.1l-0.6-0.1 0.4-0.7c0.8-1.3 2.6-4.6 2.6-5 0-0.4-0.9-0.4-1.2 0z"/>
		<path id="Layer" class="s0" d="m280.6 98.5c-0.2 0.2-0.6 0.9-1 1.6-0.3 0.7-0.9 1.8-1.3 2.6-0.5 0.8-0.9 1.3-1.1 1.4-0.2 0-0.3 0.1-0.3 0.2 0 0.2-0.1 0.3-0.2 0.3-0.3 0-0.4 0.6-0.2 0.9 0.2 0.2 0.4 0.2 1.6 0.2 1.4 0 1.5 0 1.8-0.5 0.3-0.2 0.4-0.6 0.3-0.7-0.1-0.3-0.9-0.4-1.7-0.3h-0.6l0.5-0.1c0.6-0.2 0.8-0.4 2.5-3.7 0.6-1.1 1-2 0.9-2.1-0.2-0.3-0.8-0.2-1.2 0.2z"/>
		<path id="Layer" class="s0" d="m286.8 98.3c-0.3 0-0.7 0.4-1.1 0.7-0.4 0.6-0.5 0.8-0.5 1.5v0.9l1.4 1.2c0.8 0.6 1.4 1.2 1.4 1.3 0 0.3 0.9 0.2 1.4-0.1 0.6-0.4 0.8-0.9 0.5-1.4-0.1-0.1-0.8-0.7-1.5-1.3-1.5-1-1.8-1.6-1.2-2.4 0.1-0.2 0.4-0.4 0.5-0.5q0.2-0.1-0.1-0.1c-0.3 0-0.6 0.1-0.8 0.2z"/>
		<path id="Layer" class="s0" d="m291.9 98.3c-0.2 0-0.6 0.4-1 0.7-0.5 0.6-0.6 0.8-0.6 1.5v0.9l1.5 1.2c0.8 0.6 1.4 1.2 1.4 1.3 0 0.3 0.9 0.2 1.4-0.1 0.6-0.4 0.8-0.9 0.5-1.4-0.1-0.2-0.8-0.7-1.5-1.3-0.8-0.5-1.3-1.1-1.4-1.3-0.2-0.5 0.1-1.2 0.6-1.5 0.3-0.2 0.3-0.2 0-0.2-0.3 0-0.6 0.1-0.9 0.2z"/>
		<path id="Layer" class="s0" d="m303.2 98.4c-1 0.6-1.4 1.4-1.4 2.6 0.1 0.5 0.2 0.6 2.1 2.1 0.5 0.3 0.9 0.7 0.9 0.8 0 0.4 1.5 0 1.8-0.5 0.3-0.7 0.1-1-1.4-2.2-1.4-1.1-1.6-1.3-1.6-1.8 0-0.4 0.2-0.7 0.5-0.9l0.5-0.4h-0.5c-0.2 0-0.7 0.1-0.9 0.3z"/>
		<path id="Layer" class="s0" d="m308.7 98.3c-0.3 0-0.7 0.4-1 0.7-0.5 0.5-0.6 0.8-0.6 1.5 0 0.7 0.4 1.7 0.7 1.7 0.3 0 2.2 1.5 2.2 1.7 0 0.4 1.5 0 1.8-0.5 0.3-0.7 0.1-1-1.5-2.3-1.5-1.2-1.5-1.2-1.4-1.8 0-0.4 0.2-0.8 0.5-0.9 0.4-0.3 0.4-0.3 0.1-0.3-0.2 0-0.6 0.1-0.8 0.2z"/>
		<path id="Layer" class="s0" d="m315.3 98.3c-1 0.3-1.6 0.7-2.3 1.5-0.7 0.9-1 1.6-0.7 2.4 0.1 0.4 0.2 0.8 0.1 1-0.3 1-2.6 1.4-3.5 0.7-0.3-0.2-0.5-0.6-0.5-0.8 0-0.3-0.1-0.3-0.5-0.3-0.3 0-0.5 0.1-0.7 0.5-0.3 0.6-1.2 1-2.2 1-1 0-1.8-0.6-1.8-1.2 0-0.3-0.1-0.3-0.4-0.3-0.4 0-0.5 0.1-0.8 0.7l-0.4 0.7h-1.6c-2.2-0.1-2.4-0.1-2.2-0.3 0.2-0.1 0.2-1.2 0.2-2.7v-2.6l-0.6-0.2c-1-0.2-1.5-0.1-1.9 0.4l-0.3 0.5-0.2-0.5c-0.2-0.3-0.3-0.4-1-0.4-1.4 0-1.8 0.9-0.8 1.8 0.8 0.6 1.5 0.6 1.9-0.1 0.3-0.4 0.4-0.4 0.7-0.3 0.3 0.2 0.3 0.5 0.3 2.2 0 1.8 0 2-0.4 2.4-0.2 0.3-0.4 0.6-0.3 0.9v0.4h2.7l2.7 0.1 0.5-0.5c0.2-0.2 0.4-0.3 0.4-0.2 0 0.4 1.1 0.7 2.5 0.7 1.3 0 1.4-0.1 2-0.6 0.6-0.4 0.7-0.5 0.7-0.2 0 0.5 0.9 0.8 2.5 0.8 1.4 0 1.4 0 2.1-0.6 0.4-0.4 0.8-0.8 0.8-0.9 0-0.3 0.2-0.2 0.8 0.3 0.9 0.9 1.8 1.2 3.9 1.1 1.6 0 1.8-0.1 2.6-0.5 0.9-0.5 2.1-2 2.1-2.7v-0.4l-0.3 0.4c-0.3 0.6-1.3 1.3-2.1 1.6-0.9 0.2-2.5 0.2-3.2-0.1-0.9-0.3-1.7-1.2-1.9-2.1-0.4-1.6 0.2-2.9 1.7-3.5 0.7-0.2 0.8-0.3 0.4-0.3-0.3 0-0.7 0.1-1 0.2z"/>
		<path id="Layer" class="s0" d="m335.3 98.5c-0.2 0.2-1 1.6-1.8 3-0.8 1.5-1.4 2.7-1.5 2.7-0.1 0-0.3 0-0.6 0-0.3-0.1-0.7-0.1-0.8-0.1-0.3 0-0.3 0-0.1-0.2 0.2-0.2 0.4-5 0.2-5.3-0.1-0.1-0.6-0.2-1.1-0.3-0.8-0.1-0.9-0.1-1.2 0.3-0.5 0.4-0.5 1 0 1.2 0.4 0.2 0.4 0.3 0.4 2.2 0 1.7 0 1.9 0.4 2.1 0.3 0.1 0.3 0.1-0.1 0.1-0.7 0-1.5-0.4-2.5-1.5-0.6-0.7-1.2-1.2-1.4-1.2-0.2-0.1-0.5-0.2-0.7-0.3-0.3-0.1-0.3 0-0.3 1.1 0 1.3 0.2 1.8 0.7 1.8 0.2 0 0.3 0.1 0.3 0.3q0 0.2-0.2 0.1c-0.1-0.1-0.4-0.3-0.7-0.3-0.6-0.2-0.6-0.2-1.2 0l-0.3 0.1 0.3-0.2c0.2-0.1 0.5-0.3 0.6-0.4 0 0 0.1-1.2 0.1-2.5 0-2.8 0-2.7-1.4-2.9-0.7-0.1-0.9-0.1-0.9 0.2 0 0.1-0.1 0.2-0.2 0.2-0.4 0-0.3 0.6 0.1 1 0.5 0.4 0.5 0.6 0.5 2.4 0 1.3-0.1 2-0.2 2-0.1 0-0.2 0.1-0.2 0.2 0 0.1-0.1 0.3-0.2 0.3-0.2 0-0.4 0.6-0.2 0.9 0.2 0.2 0.5 0.2 1.7 0.2h1.5l0.5-0.5 0.4-0.5 0.5 0.4c0.8 0.5 1.6 0.6 5.2 0.6h3.3l0.4-0.5c0.2-0.2 0.3-0.6 0.2-0.7-0.1-0.3-1-0.4-1.7-0.3l-0.5 0.1 0.6-0.2c0.6-0.3 1-0.9 2.6-4.2 0.6-1 0.6-0.5 0 0.7-0.2 0.5-0.5 1-0.5 1.1 0 0.1 0.4 0.2 0.9 0.2 1.5 0 1.7 0.2 0.2 0.2l-1.4 0.1-0.3 0.8c-0.2 0.4-0.3 0.8-0.2 0.9 0.1 0.1 0.2 0 0.2-0.1 0.1-0.1 0.4-0.1 0.9-0.1 1 0 1.4 0.4 1.1 1.1-0.4 0.8 0 0.9 1.8 0.9 1.5 0 1.6 0 1.9-0.4 0.5-0.7 0.5-1-0.5-1.2-0.5-0.1-0.8-0.2-0.8-0.3 0-0.3-2.2-4.5-2.4-4.7-0.1-0.1-0.2-0.4-0.2-0.6 0-0.3-0.1-0.4-0.5-0.4-0.2 0-0.5 0.1-0.7 0.4z"/>
		<path id="Layer" class="s0" d="m218.5 98.7c-0.2 0.4-0.3 0.6-0.1 0.8 0.1 0.3 0 0.6-0.4 1.4-0.5 1-0.5 1.2-0.3 1.7 0.1 0.3 0.3 0.6 0.4 0.6 0.3 0 2.7-4.5 2.5-4.7-0.1-0.1-0.5-0.2-1-0.2-0.7-0.1-0.7-0.1-1.1 0.4z"/>
		<path id="Layer" class="s0" d="m268.4 98.7c-0.4 0.5-0.3 1 0.1 1.1 0.3 0.1 0.3 0.5 0.3 2.1 0 1.9 0 2.1-0.4 2.7-0.4 0.4-0.4 0.6-0.2 0.8 0.1 0.2 0.5 0.3 2.6 0.3 2.6 0.1 3.2 0 3.2-0.3 0-0.1 0.1-0.2 0.2-0.2 0.1 0 0.8-1.4 0.7-1.8q0.1-0.3-0.3 0.3l-0.3 0.5h-2.3c-1.4 0-2.2 0-1.9-0.1 0.2-0.1 0.5-0.2 0.5-0.3 0.2-0.2 0.2-5.1 0-5.3-0.1 0-0.6-0.1-1-0.2-0.8-0.1-0.9-0.1-1.2 0.4z"/>
		<path id="Layer" class="s0" d="m224.6 98.7c-0.7 0.3-1.2 1.1-1.2 1.8 0 0.5 0.1 0.5 0.2 0.2 0.1-0.2 0.4-0.4 0.8-0.6 1.6-0.6 3.3 0.4 3.3 2.2 0 0.8-0.4 1.3-1.3 1.6-0.5 0.2-0.6 0.2-0.1 0.2 0.7 0 1.9-0.4 2.4-0.7 1.7-1.2 1.3-4-0.8-4.8-0.9-0.3-2.5-0.3-3.3 0.1z"/>
		<path id="Layer" class="s0" d="m233.9 98.6c-0.7 0.3-1.4 1.2-1.4 1.9 0 0.5 0 0.5 0.2 0.2 0.2-0.4 1.1-0.8 1.8-0.8 0.7 0 1.5 0.5 1.9 1.1 0.4 0.6 1.1 0.6 1.6 0 0.5-0.6 0.5-0.6 0.1-1.5-0.3-0.4-0.6-0.7-1-0.9-0.7-0.3-2.4-0.3-3.2 0z"/>
		<path id="Layer" class="s0" d="m249.6 98.7c-0.8 0.3-1.3 1-1.4 2-0.1 0.7-0.1 0.7 0.1 0.3 0.5-1.4 3-1.4 3.8-0.1 0.4 0.6 1.2 0.6 1.6 0.1 0.4-0.4 0.3-0.9-0.1-1.7-0.4-0.8-2.6-1.2-4-0.6z"/>
		<path id="Layer" class="s0" d="m272.3 98.5l-1 0.1v0.7c0 0.7 0 0.8 0.6 0.8 0.6 0 0.8 0.3 0.5 0.8-0.1 0.2-0.1 0.2 0.4 0.2q0.6 0 0.6-0.2c0-0.2 0.2-0.3 0.3-0.3 0.2-0.1 0.3-0.2 0.3-0.3 0-0.2 0.1-0.2 0.2-0.2 0.1 0 0.2-0.2 0.2-0.4 0-0.4-0.6-1.3-0.8-1.3-0.2 0-0.7 0.1-1.3 0.1z"/>
		<path id="Layer" class="s0" d="m287.8 98.7c-0.5 0.4-0.4 1 0.2 1.5 0.7 0.6 1.5 0.6 1.9 0 0.3-0.4 0.3-0.5 0.1-1.1-0.3-0.6-0.4-0.6-1.1-0.7-0.6 0-0.9 0.1-1.1 0.3z"/>
		<path id="Layer" class="s0" d="m299.6 98.5l-1.1 0.1 0.1 0.7c0.1 0.7 0.1 0.8 0.5 0.8 0.5 0 1 0.5 0.7 0.6-0.4 0.2-0.2 0.4 0.4 0.4 0.4 0 0.5-0.1 0.5-0.3 0-0.2 0.1-0.3 0.2-0.3 0.1 0 0.3-0.2 0.5-0.5 0.3-0.3 0.3-0.5 0.1-0.7-0.1-0.2-0.2-0.5-0.3-0.6 0-0.2-0.2-0.3-0.3-0.3-0.1 0-0.7 0.1-1.3 0.1z"/>
		<path id="Layer" class="s0" d="m304.7 98.5c-0.4 0.2-0.7 0.8-0.6 1 0.1 0.1 0.4 0.5 0.7 0.7 0.7 0.6 1.4 0.6 1.9 0 0.2-0.4 0.2-0.5 0-1-0.3-0.7-0.5-0.8-1.3-0.8-0.3 0-0.6 0.1-0.7 0.1z"/>
		<path id="Layer" class="s0" d="m309.8 98.5c-0.3 0.2-0.6 0.8-0.5 1 0.1 0.1 0.4 0.5 0.7 0.7 0.7 0.6 1.4 0.6 1.8 0 0.3-0.4 0.3-0.5 0.1-1.1-0.3-0.6-0.4-0.6-1.1-0.7-0.4 0-0.8 0-1 0.1z"/>
		<path id="Layer" class="s0" d="m316.2 98.7c-0.8 0.4-1.2 0.9-1.3 1.8-0.1 0.5-0.1 0.6 0 0.4 0.3-0.5 1.2-1 1.8-1 0.7 0 1.6 0.5 2 1 0.8 1.2 0.4 2.4-0.9 2.9l-0.6 0.3 0.8-0.1c1.3-0.1 2-0.5 2.6-1.4q1-1.5 0-2.9c-0.8-1.2-3-1.7-4.4-1z"/>
		<path id="Layer" class="s0" d="m324.2 99.3c0 0.6 0.1 0.7 0.4 0.8 0.3 0.1 0.5 0.3 0.4 0.6 0 0.5 0 0.5 0.6 0.4 1.2-0.1 1.8-0.9 1.5-1.8-0.3-0.6-0.7-0.7-1.9-0.7h-1z"/>
		<path id="Layer" class="s0" d="m271.3 102.2c0 0.5 0.1 0.7 0.3 0.7 0.2 0 0.3 0.1 0.4 0.2 0.1 0.2 0.4 0.3 0.7 0.3h0.6l-0.4 0.3-0.5 0.2h0.6c0.4 0 0.8-0.1 1.1-0.3q0.9-0.7 0.1-0.7c-0.3 0-0.4-0.2-0.5-0.7l-0.1-0.8h-1.1-1.2z"/>
		<path id="Layer" class="s0" d="m298.5 101.6c0.1 0.2 0.1 0.5 0.1 0.8q0 0.5 0.3 0.5c0.1 0 0.3 0.1 0.4 0.2 0 0.1 0.3 0.3 0.6 0.3 0.5 0 0.6 0.2 0.1 0.4-0.3 0.1-0.2 0.1 0.2 0.1 0.8 0 1.1-0.1 1.4-0.6 0.3-0.4 0.3-0.4-0.1-0.4-0.3 0-0.4-0.1-0.4-0.4 0-0.2-0.1-0.5-0.2-0.7-0.1-0.4-0.2-0.4-1.3-0.4-1 0-1.2 0-1.1 0.2z"/>
		<path id="Layer" class="s0" d="m262.3 102.1l-1.5 0.1-0.4 0.8c-0.1 0.4-0.2 0.9-0.1 0.9 0 0.1 0.1 0 0.2-0.1 0-0.1 0.4-0.1 0.9-0.1 0.8 0 0.9 0 1.1 0.3 0.1 0.2 0.1 0.6 0 0.7-0.1 0.2-0.1 0.5 0 0.7 0.1 0.3 0.3 0.4 1.8 0.4 1.5 0 1.6-0.1 1.9-0.4q0.8-0.9-0.5-1.2c-0.5-0.1-0.9-0.2-0.9-0.2q-0.2 0.1-0.1-0.2c0.1-0.3-0.6-1.7-0.8-1.7-0.1 0-0.8 0-1.6 0z"/>
		<path id="Layer" class="s0" d="m281.9 102.1l-1.5 0.1-0.3 0.7c-0.4 0.8-0.4 1.2-0.1 0.9 0.1-0.1 0.6-0.1 1-0.1 0.7 0 0.9 0 1 0.3 0.2 0.3 0.2 0.5 0.1 0.7-0.2 0.2-0.2 0.5-0.1 0.7l0.1 0.3h3.4 3.4l0.6-0.5c0.5-0.4 0.7-0.4 0.7-0.2 0 0.5 0.9 0.8 2.4 0.8 1.2 0 1.5-0.1 1.9-0.4 0.6-0.4 1.2-1.2 1.2-1.7 0-0.1-0.1-0.1-0.7 0.2-0.8 0.4-2 0.5-2.7 0.1-0.2-0.1-0.4-0.4-0.5-0.7-0.1-0.5-0.2-0.5-0.6-0.5-0.4 0-0.5 0.1-0.7 0.5-0.4 0.6-1.2 1-2.3 1-0.9 0-1.7-0.6-1.7-1.2 0-0.5-0.8-0.5-1.2 0.1-0.4 0.3-0.4 0.4 0.1 0.7l0.5 0.3h-1c-0.9 0-1-0.1-0.8-0.2 0.2-0.1 0.3-0.2 0.3-0.2 0-0.3-0.8-1.8-0.9-1.8-0.1 0-0.8 0.1-1.6 0.1z"/>
	</g>
</svg>