<?xml version="1.0" standalone="no"?>
<!DOCTYPE svg PUBLIC "-//W3C//DTD SVG 20010904//EN"
 "http://www.w3.org/TR/2001/REC-SVG-20010904/DTD/svg10.dtd">
<svg version="1.0" xmlns="http://www.w3.org/2000/svg"
 width="500.000000pt" height="300.000000pt" viewBox="0 0 500.000000 300.000000"
 preserveAspectRatio="xMidYMid meet">
<metadata>
Created by potrace 1.16, written by Peter Selinger 2001-2019
</metadata>
<g transform="translate(0.000000,300.000000) scale(0.019231,-0.015000)"
fill="#D4AF37" stroke="none">
<path d="M12525 14939 c-113 -108 -125 -136 -125 -275 0 -60 4 -123 9 -141 5
-17 32 -61 60 -98 l51 -66 0 -108 c0 -59 -3 -210 -7 -336 l-6 -227 -31 -19
c-34 -21 -20 -24 34 -9 20 5 50 24 67 42 l31 33 7 351 c8 386 11 365 -56 445
-53 64 -59 85 -59 211 l0 110 82 84 c75 78 80 84 55 84 -21 0 -49 -20 -112
-81z"/>
<path d="M11125 13648 c-41 -14 -91 -64 -115 -113 -49 -101 -2 -238 93 -274
45 -17 128 -13 170 8 l37 19 -6 -127 c-6 -120 -12 -149 -125 -576 -65 -247
-123 -458 -129 -467 -25 -44 -4 -116 53 -175 l31 -33 105 0 106 0 -100 -58
c-209 -121 -255 -161 -255 -224 0 -19 24 -146 54 -283 30 -138 62 -286 71
-330 9 -43 21 -85 27 -92 18 -22 46 -15 69 18 19 27 20 36 11 67 -6 21 -14 73
-17 117 -7 79 -96 520 -114 561 -9 19 0 28 77 82 164 113 362 204 592 272 99
30 106 41 10 15 -30 -8 -56 -15 -57 -15 -1 0 1 17 4 38 l6 37 -31 -41 c-38
-51 -52 -54 -294 -50 -194 2 -192 2 -235 69 -16 26 -21 42 -15 50 6 7 61 212
123 457 99 392 113 459 119 560 l6 115 2 -100 c2 -76 -5 -134 -26 -235 l-27
-135 5 -330 5 -330 48 -3 47 -3 -4 343 -5 343 13 -175 c10 -134 22 -212 51
-335 21 -88 43 -163 49 -167 6 -4 35 -8 64 -8 49 0 52 1 47 23 -3 12 -54 220
-114 462 l-109 440 -6 180 c-4 120 -3 173 4 158 9 -22 14 -23 130 -23 108 0
138 -4 282 -40 179 -45 202 -55 270 -111 26 -22 57 -39 71 -39 15 0 59 28 118
75 52 41 99 75 105 75 6 0 19 -9 30 -21 17 -19 19 -41 22 -249 l3 -228 -144
-143 c-113 -114 -161 -170 -227 -269 -103 -155 -198 -350 -170 -350 5 0 44 5
87 11 43 6 147 14 232 18 l154 6 13 40 c8 22 22 60 31 85 l17 45 7 -40 c5 -22
8 -63 8 -91 1 -49 2 -52 32 -58 75 -15 70 -25 68 163 -2 190 -6 174 88 309 24
34 42 66 38 71 -3 5 -1 12 5 16 5 3 10 1 10 -5 0 -6 5 -8 10 -5 7 4 10 -95 10
-289 l0 -295 43 -11 c23 -6 70 -19 105 -29 110 -33 58 4 -58 41 -13 4 -15 49
-15 325 l0 320 75 48 c41 26 70 50 63 52 -13 5 -62 -16 -113 -47 l-35 -22 35
32 c123 111 359 221 565 265 131 28 308 39 429 26 140 -14 158 -19 152 -40 -3
-9 -58 -216 -122 -461 -65 -245 -122 -446 -126 -448 -4 -2 -8 -20 -8 -40 0
-39 25 -89 68 -134 l26 -28 242 0 242 0 26 31 c43 51 78 117 74 141 -3 19 -6
17 -31 -20 l-27 -42 -221 0 -220 0 -24 26 c-38 41 -64 91 -54 101 13 13 34 91
155 568 98 389 136 492 76 210 l-27 -130 5 -325 5 -325 39 -3 c21 -2 42 0 47
5 4 4 4 163 0 353 -4 190 -4 354 -1 364 4 11 10 -61 14 -160 6 -157 12 -202
48 -364 22 -102 46 -188 52 -192 6 -4 34 -8 63 -8 l51 0 -15 68 c-9 37 -60
246 -114 465 -55 219 -99 408 -98 420 0 13 6 3 14 -23 24 -84 33 -99 77 -121
156 -79 306 -234 392 -406 65 -130 89 -230 90 -378 l2 -130 30 -3 c37 -4 63
29 70 86 3 29 2 33 -5 17 -7 -14 -9 4 -5 60 3 44 7 85 9 91 6 19 -23 169 -45
233 -105 312 -354 540 -685 628 -91 24 -117 26 -295 27 -228 1 -319 -13 -505
-75 -204 -68 -360 -166 -516 -323 -150 -152 -257 -322 -329 -524 -28 -79 -35
-90 -48 -80 -11 9 -62 13 -179 13 -89 0 -163 2 -163 4 0 2 24 52 54 112 156
314 425 570 771 735 115 55 331 133 374 135 9 0 11 3 5 5 -13 5 -142 -26 -214
-51 -29 -10 -46 -12 -48 -5 -5 15 -24 12 -86 -15 -31 -14 -61 -25 -66 -25 -6
0 -10 33 -10 74 l0 73 66 94 c36 52 73 100 82 106 8 7 13 15 10 19 -4 3 -49
-28 -102 -70 -52 -42 -97 -76 -99 -76 -3 0 -49 34 -102 75 -143 109 -144 106
-23 -56 l78 -106 0 -97 c0 -88 -2 -96 -19 -96 -11 0 -47 -23 -80 -50 l-61 -51
0 221 c0 253 -6 281 -64 305 -19 8 -43 12 -53 8 -10 -4 -60 -40 -111 -81 l-93
-74 -35 35 c-52 51 -102 71 -274 116 -145 37 -167 40 -352 47 -188 6 -198 6
-204 -12 -26 -84 -67 -116 -148 -118 -88 -2 -139 56 -138 154 1 68 13 91 61
119 40 23 20 28 -34 9z"/>
<path d="M13925 13490 c-185 -7 -209 -10 -330 -42 -145 -39 -198 -62 -255
-114 l-38 -35 -54 43 c-130 105 -138 110 -175 110 -50 0 -93 -46 -93 -98 0
-31 2 -35 15 -24 20 17 32 11 132 -68 69 -54 98 -71 133 -76 28 -5 40 -4 32 2
-10 7 -3 18 27 45 58 52 81 62 259 107 147 37 172 40 292 40 l130 0 0 -85 c0
-60 4 -87 13 -89 66 -21 67 -20 68 36 1 29 5 78 9 108 6 45 8 36 6 -53 -1 -80
2 -107 12 -107 8 0 12 22 12 75 0 43 4 75 10 75 6 0 10 -15 10 -34 0 -29 4
-36 31 -45 41 -14 119 -14 156 0 58 22 116 101 128 174 l7 40 -19 -34 c-29
-55 -65 -76 -133 -76 -69 0 -105 21 -135 81 -19 38 -35 56 -45 52 -3 -1 -95
-5 -205 -8z"/>
<path d="M12085 12059 c-44 -5 -119 -20 -167 -34 -180 -51 -307 -126 -440
-259 -72 -71 -91 -97 -140 -197 -62 -125 -92 -214 -102 -299 l-6 -55 19 72
c66 242 231 442 460 558 63 31 132 57 138 51 3 -2 -5 -49 -16 -103 -56 -274
-56 -602 1 -878 84 -415 325 -783 659 -1011 52 -36 66 -50 53 -52 -11 -2 -27
-14 -36 -25 -40 -50 -13 -579 50 -1000 10 -65 15 -120 11 -123 -4 -2 -42 -13
-86 -23 -43 -11 -70 -20 -60 -20 10 -1 68 10 128 24 412 95 777 405 972 825
76 164 131 350 164 560 28 178 26 601 -4 767 -90 497 -358 876 -758 1073 -183
90 -323 130 -530 150 -116 11 -198 11 -310 -1z m213 -55 c51 -7 52 -8 52 -39
0 -29 3 -32 24 -28 13 3 49 0 80 -7 l57 -12 -17 -26 c-16 -24 -17 -70 -11
-629 l6 -602 32 -76 c31 -74 54 -109 67 -101 13 8 -6 1407 -19 1422 -9 11 -8
14 5 14 24 0 160 -21 165 -26 2 -2 6 -279 8 -616 7 -842 14 -1062 33 -1066 14
-2 16 68 20 600 3 332 5 707 5 834 l0 232 50 -20 c92 -36 110 -50 113 -90 3
-33 11 -43 71 -87 37 -27 107 -92 157 -143 290 -301 430 -719 411 -1233 -14
-354 -82 -639 -215 -900 -98 -192 -265 -387 -432 -504 -53 -37 -60 -40 -60
-22 0 26 -19 20 -78 -25 -41 -31 -128 -71 -136 -63 -5 6 -54 358 -66 479 -6
58 -15 204 -21 324 -5 120 -14 227 -20 237 -13 26 -8 24 56 -17 110 -70 289
-140 465 -184 135 -33 290 -56 313 -47 25 9 97 126 97 156 l-1 26 -20 -24
c-11 -13 -23 -30 -27 -37 -13 -23 -292 33 -462 93 -487 171 -852 537 -1010
1012 -104 313 -125 680 -59 1017 12 60 23 118 24 128 3 31 43 39 270 54 11 1
44 -1 73 -4z"/>
<path d="M14313 11374 c-7 -3 -13 -12 -13 -20 0 -8 -5 -14 -11 -14 -6 0 -9
-14 -7 -32 3 -31 4 -32 77 -44 134 -23 210 -83 248 -197 26 -78 32 -637 8
-744 -47 -212 -202 -383 -434 -482 -40 -17 -75 -31 -78 -31 -3 0 -2 24 1 53
l6 52 -15 -59 c-9 -33 -14 -60 -12 -62 8 -9 152 43 227 82 159 82 275 196 350
346 66 133 75 192 75 513 0 369 -17 459 -103 548 -52 54 -77 65 -178 77 -49 6
-98 13 -109 15 -11 2 -26 1 -32 -1z"/>
<path d="M15285 11353 c-53 -13 -116 -104 -139 -203 -20 -82 -20 -123 0 -51 8
30 24 69 35 87 21 34 107 84 145 84 24 0 54 38 54 70 0 17 -6 20 -37 19 -21
-1 -47 -3 -58 -6z"/>
<path d="M10588 10262 c-10 -2 -18 -10 -18 -18 0 -8 -5 -14 -11 -14 -6 0 -9
-14 -7 -32 2 -26 9 -34 33 -42 96 -29 134 -56 167 -120 49 -95 51 -116 57
-576 l6 -436 40 -36 c345 -310 767 -490 1240 -529 136 -11 349 -7 467 10 52 7
57 6 61 -13 3 -12 17 -74 32 -138 l27 -118 33 0 c23 0 37 7 47 23 14 21 68
245 68 278 0 12 24 24 88 44 423 131 749 384 975 757 35 57 81 148 103 201
l39 96 95 21 c307 71 595 212 848 418 51 41 104 91 118 111 25 37 32 71 14 71
-6 0 -49 -32 -96 -70 -47 -39 -95 -75 -107 -81 -11 -7 -26 -16 -31 -21 -33
-27 -186 -116 -283 -164 -127 -62 -264 -109 -434 -149 l-116 -27 -13 -50 c-18
-70 -118 -268 -181 -360 -395 -565 -1177 -839 -1949 -682 -342 69 -687 244
-937 473 l-43 39 0 241 c0 133 4 240 9 237 4 -3 8 -38 9 -77 0 -43 5 -76 13
-83 9 -8 10 -8 5 1 -3 6 -1 24 6 39 9 20 10 28 1 31 -6 2 -9 13 -6 23 3 11 8
18 12 16 3 -2 6 38 6 89 0 51 3 91 8 88 4 -2 7 43 7 101 0 64 -4 106 -10 106
-5 0 -10 14 -10 31 0 17 4 28 10 24 6 -4 10 37 10 114 l0 121 -40 0 c-37 0
-40 -2 -40 -27 0 -16 0 -35 -1 -43 0 -8 4 -39 10 -69 13 -66 15 -139 2 -125
-14 15 -50 156 -37 145 18 -15 14 55 -3 71 -11 11 -13 9 -7 -14 3 -15 2 -30
-4 -33 -5 -3 -10 -2 -10 3 0 4 -16 27 -35 50 -30 34 -45 43 -93 52 -31 6 -73
15 -92 19 -19 4 -43 5 -52 3z"/>
<path d="M11590 10250 c-30 -4 -90 -11 -132 -15 -70 -7 -78 -10 -78 -29 0 -12
-7 -32 -16 -44 -8 -12 -12 -22 -8 -22 3 0 2 -6 -4 -12 -16 -20 -40 -117 -46
-183 -5 -53 -4 -55 4 -18 29 137 97 199 243 223 45 7 66 16 79 32 16 22 30 79
19 77 -3 -1 -31 -5 -61 -9z"/>
<path d="M7550 8454 c-249 -74 -471 -281 -610 -569 -88 -183 -122 -336 -122
-546 1 -327 102 -565 299 -700 l42 -29 343 0 343 0 76 44 c41 24 110 76 152
116 l77 72 0 -115 0 -114 51 -7 c29 -4 48 -11 43 -15 -5 -5 -352 -11 -772 -14
-742 -5 -763 -4 -773 14 -5 10 -20 19 -33 19 -35 0 -58 -41 -54 -98 l3 -47
778 -3 777 -2 0 -33 c1 -96 41 -157 105 -157 27 0 37 6 54 34 26 42 27 68 1
84 -11 7 -20 19 -20 28 0 8 -4 13 -9 9 -6 -3 -9 21 -8 60 2 73 17 81 30 17 l8
-42 3734 0 3734 0 12 -76 c11 -69 15 -78 43 -95 45 -28 106 -23 106 7 0 8 5
14 10 14 23 0 9 54 -20 79 -26 22 -32 37 -41 104 l-11 77 -1852 0 c-2602 0
-5739 11 -5749 20 -15 13 -8 460 9 568 3 17 9 32 14 32 6 0 10 -15 11 -32 1
-29 3 -25 21 27 10 33 22 81 25 108 l6 47 89 0 c84 0 90 2 114 27 18 19 24 36
22 57 -3 27 -8 32 -48 43 -48 12 -232 17 -243 6 -4 -3 -62 -7 -130 -8 -168 -3
-170 -3 -179 -17 -6 -9 -10 -10 -15 -2 -12 17 -145 -1 -156 -21 -9 -17 -67
-21 -67 -4 0 7 -15 9 -42 4 -83 -12 -98 -17 -98 -30 0 -7 -15 -15 -35 -17 -25
-3 -35 0 -35 10 0 17 -40 6 -57 -17 -11 -15 -15 -14 -47 3 -19 10 -33 23 -30
27 6 10 -27 12 -50 3 -9 -3 -16 -12 -16 -20 0 -8 -4 -14 -10 -14 -5 0 -10 -20
-10 -43 0 -83 48 -99 212 -68 136 25 373 57 483 66 44 3 97 8 118 12 l39 5 -7
-68 c-12 -111 -57 -187 -195 -324 -123 -123 -206 -179 -337 -226 -61 -22 -63
-24 -24 -18 67 10 177 50 233 84 28 17 53 29 56 25 7 -7 -21 -28 -89 -65 -37
-19 -56 -36 -55 -47 1 -13 -15 -21 -69 -34 -141 -35 -319 -16 -443 47 -300
152 -425 622 -281 1054 34 103 55 150 67 150 5 0 17 -6 27 -14 18 -13 18 -16
-14 -96 -31 -80 -71 -234 -70 -275 0 -11 9 12 19 52 91 347 334 622 626 709
85 25 213 23 285 -5 190 -73 213 -278 52 -454 -57 -62 -64 -74 -61 -106 3 -35
4 -36 50 -39 27 -2 59 3 75 11 82 43 189 202 199 298 5 38 4 42 -8 27 -12 -14
-14 -6 -14 65 0 68 -4 92 -26 139 -36 79 -96 139 -176 179 -59 30 -76 34 -139
33 -41 -1 -73 3 -73 9 0 6 -22 7 -57 2 -86 -10 -133 -24 -133 -40 0 -8 -5 -17
-11 -21 -8 -4 -9 0 -4 15 6 19 4 20 -19 12 -13 -6 -33 -14 -43 -20 -10 -5 -26
-12 -35 -15 -10 -3 -15 -11 -12 -20 3 -8 1 -17 -5 -21 -6 -3 -11 -1 -11 4 0 6
-4 11 -10 11 -5 0 -10 -10 -10 -22 -1 -21 -2 -22 -14 -6 -17 23 -27 12 -19
-20 5 -23 4 -24 -20 -18 -19 4 -25 3 -22 -7 3 -7 -12 -30 -33 -50 -35 -34 -43
-37 -71 -30 l-32 8 34 35 c92 96 227 176 367 215 30 9 37 13 20 14 -14 0 -63
-11 -110 -25z"/>
<path d="M15215 8464 c-88 -21 -233 -95 -317 -162 -221 -176 -388 -474 -435
-777 -17 -110 -13 -317 7 -415 42 -205 132 -360 263 -456 l59 -44 347 0 346 0
60 36 c77 47 127 85 193 148 l52 50 0 -117 0 -117 53 0 52 0 0 215 c0 165 -3
215 -12 215 -7 0 -13 -7 -13 -15 0 -20 -138 -164 -193 -201 -23 -16 -44 -31
-47 -34 -10 -10 -86 -52 -138 -76 -195 -90 -426 -90 -597 -1 -78 41 -192 154
-238 237 -97 176 -129 441 -81 692 76 400 352 728 694 824 62 17 19 16 -55 -2z"/>
<path d="M15305 8411 c-181 -53 -336 -174 -477 -372 -89 -124 -179 -337 -192
-454 -5 -44 -3 -40 17 30 54 188 130 318 267 456 117 119 198 172 325 215 145
50 302 34 390 -39 87 -71 105 -191 47 -309 -18 -36 -50 -82 -72 -102 -22 -20
-40 -40 -40 -46 0 -5 -4 -10 -9 -10 -13 0 -19 -43 -10 -68 7 -18 16 -22 56
-22 69 0 125 41 193 141 40 58 81 161 79 201 0 15 -5 9 -13 -19 -23 -73 -95
-161 -158 -194 -71 -36 -72 -22 -5 51 84 91 117 168 117 274 0 83 -15 128 -61
180 -40 46 -87 75 -152 92 -72 19 -228 17 -302 -5z"/>
<path d="M9918 7783 c-10 -2 -18 -11 -18 -19 0 -8 -4 -14 -8 -14 -13 0 -44
-115 -40 -151 3 -30 8 -36 45 -49 60 -20 91 -7 120 53 14 26 27 65 29 85 l5
37 -20 -37 c-20 -35 -23 -36 -51 -27 -35 13 -35 14 -15 62 10 23 11 38 5 42
-6 4 -8 11 -5 16 6 9 -16 10 -47 2z"/>
<path d="M10989 7768 c-24 -26 -58 -121 -59 -159 0 -39 33 -63 87 -63 45 -1
48 1 75 45 16 25 31 63 33 85 l5 39 -15 -32 c-8 -18 -17 -33 -19 -33 -9 0 -66
23 -66 26 0 3 7 21 15 41 10 24 12 40 5 48 -5 6 -7 15 -3 18 3 4 -4 7 -16 7
-12 0 -32 -10 -42 -22z"/>
<path d="M18885 7556 c-38 -12 -89 -32 -111 -44 -53 -27 -112 -95 -120 -139
-11 -56 -160 -172 -263 -203 l-26 -8 27 -1 c36 -1 144 39 191 71 21 14 69 52
107 84 60 51 70 64 70 92 0 66 39 100 164 143 96 34 62 38 -39 5z"/>
<path d="M18958 7500 c-48 -16 -99 -37 -113 -46 -31 -20 -33 -57 -5 -77 19
-13 29 -12 93 8 40 13 91 28 115 34 25 7 42 18 42 26 0 8 5 15 10 15 6 0 10
16 10 35 0 33 -2 35 -32 34 -18 0 -72 -13 -120 -29z"/>
<path d="M9851 7501 c-31 -31 -49 -73 -57 -128 -5 -43 -12 -56 -48 -85 -68
-56 -106 -80 -165 -104 -63 -26 -41 -32 35 -9 57 17 146 71 219 135 45 39 51
49 62 104 17 90 16 106 -7 106 -11 0 -29 -9 -39 -19z"/>
<path d="M10936 7504 c-26 -25 -39 -55 -56 -124 l-16 -65 -76 -48 c-41 -26
-106 -59 -144 -73 -63 -23 -65 -24 -24 -18 25 3 72 16 105 28 64 23 232 127
240 148 3 7 11 48 19 91 l13 77 -23 0 c-12 0 -30 -7 -38 -16z"/>
<path d="M10435 7491 c-41 -18 -80 -57 -111 -110 -19 -33 -141 -116 -234 -162
-60 -28 -62 -30 -26 -25 55 7 153 56 255 126 68 47 90 67 97 92 6 20 26 45 53
65 48 37 32 44 -34 14z"/>
<path d="M8691 7462 c-37 -53 -57 -375 -26 -419 17 -24 77 -45 103 -36 25 9
52 45 52 71 0 14 -12 34 -30 49 -30 24 -30 26 -29 121 0 54 4 123 8 154 8 63
-3 88 -37 88 -11 0 -30 -13 -41 -28z"/>
<path d="M9078 7471 c-52 -21 -128 -73 -170 -118 -41 -43 -81 -132 -85 -188
l-4 -50 14 37 c17 45 55 92 111 136 56 46 119 78 124 63 4 -12 81 -15 98 -3
42 29 60 112 25 112 -10 0 -21 7 -25 15 -7 19 -30 18 -88 -4z"/>
<path d="M9289 7467 c-129 -87 -159 -277 -61 -380 107 -113 389 -115 535 -3
l43 33 36 -38 c87 -90 255 -75 411 38 35 24 52 32 55 23 8 -22 74 -91 103
-105 67 -35 214 -35 320 0 25 9 72 31 102 49 l56 34 39 -38 c83 -84 244 -78
379 14 l36 25 37 -33 c79 -71 218 -52 361 49 l47 33 20 -28 c12 -15 42 -38 67
-50 65 -31 184 -26 268 13 54 25 57 25 57 6 0 -57 111 -84 143 -35 32 48 30
70 -5 86 -31 14 -33 18 -33 67 0 58 -11 77 -27 49 -15 -27 -152 -87 -212 -93
-63 -7 -133 20 -162 61 -48 68 -53 72 -64 54 -14 -23 -148 -103 -205 -122 -73
-25 -119 -21 -160 15 -22 19 -35 40 -35 55 0 32 -6 31 -65 -12 -87 -63 -163
-94 -228 -94 -85 0 -125 22 -151 82 -11 26 -24 48 -29 48 -5 0 -28 -16 -51
-35 -85 -69 -254 -124 -340 -109 -97 16 -176 87 -176 159 0 32 -12 32 -47 -1
-47 -44 -138 -102 -195 -125 -40 -16 -68 -20 -115 -17 -79 5 -113 28 -133 91
-8 26 -18 47 -22 47 -4 0 -28 -20 -53 -44 -91 -86 -203 -124 -336 -113 -174
15 -261 137 -198 277 11 25 32 55 47 67 l27 22 -26 1 c-14 0 -41 -10 -60 -23z"/>
<path d="M13221 7473 c-19 -9 -46 -34 -60 -54 -28 -40 -176 -145 -251 -178
-37 -17 -40 -21 -20 -21 62 0 287 135 328 196 12 19 37 44 55 54 31 19 31 20
7 20 -14 0 -40 -8 -59 -17z"/>
<path d="M16361 7433 c-91 -91 -122 -172 -107 -278 8 -53 53 -111 103 -131 38
-17 113 -18 165 -4 73 21 140 103 154 188 l7 42 66 1 c36 0 87 4 113 8 l46 8
7 -78 c6 -67 11 -81 35 -104 23 -22 35 -26 71 -23 41 3 48 8 134 106 l90 103
22 -68 c28 -82 50 -103 109 -103 37 0 54 8 121 59 l78 59 27 -37 c15 -21 51
-50 80 -67 48 -26 62 -29 143 -29 78 0 98 4 149 28 56 26 60 27 70 10 21 -39
77 -81 132 -99 44 -14 87 -19 169 -18 122 0 173 14 258 73 l47 32 0 -29 c0
-16 8 -36 18 -46 42 -37 289 -39 360 -2 36 19 72 73 72 110 0 26 0 27 -31 10
-44 -22 -153 -36 -226 -29 -68 7 -139 49 -124 74 7 10 17 8 49 -8 30 -15 59
-21 104 -20 89 1 161 12 165 25 2 6 -43 35 -99 64 -57 29 -115 61 -130 71 -34
24 -58 24 -58 0 0 -30 -117 -138 -187 -172 -80 -40 -199 -50 -286 -25 -68 20
-134 77 -143 124 -4 18 -12 32 -19 32 -7 0 -38 -16 -70 -35 -32 -19 -73 -40
-92 -46 -46 -15 -138 -7 -185 15 -33 16 -82 73 -100 119 -12 28 -37 20 -107
-36 -88 -71 -112 -87 -133 -87 -24 0 -52 48 -68 118 -17 72 -26 85 -51 72 -10
-6 -67 -60 -127 -122 -99 -101 -110 -110 -130 -99 -26 14 -36 60 -30 146 2 36
1 65 -2 65 -3 -1 -34 -7 -70 -15 -36 -8 -116 -17 -178 -21 -122 -8 -114 -2
-96 -64 21 -76 -77 -170 -178 -170 -55 0 -87 17 -115 59 -43 64 -19 211 40
239 15 7 27 21 27 32 0 10 6 21 13 23 6 3 -1 6 -16 6 -21 1 -42 -13 -86 -56z"/>
<path d="M18140 7472 c-21 -11 -51 -43 -75 -79 -47 -70 -54 -76 -160 -120 -44
-18 -70 -33 -58 -33 31 0 104 25 200 70 76 36 82 41 94 80 7 23 27 54 46 70
32 28 32 30 11 30 -13 0 -39 -8 -58 -18z"/>
<path d="M10528 7448 c-42 -24 -78 -89 -78 -139 l0 -31 28 33 27 33 5 -30 c4
-25 10 -29 44 -32 21 -2 51 2 67 8 33 14 69 66 69 100 0 23 -17 24 -63 5 -16
-7 -16 -5 -6 18 26 57 -23 75 -93 35z"/>
<path d="M12237 7431 c-9 -16 -17 -41 -17 -55 0 -36 -73 -87 -189 -132 l-36
-14 45 5 c96 12 280 124 280 170 0 40 -11 55 -39 55 -19 0 -32 -8 -44 -29z"/>
<path d="M15850 7453 c-105 -6 -416 -43 -530 -63 -192 -34 -206 -35 -235 -16
-14 9 -23 21 -20 26 4 6 -6 10 -20 10 -36 0 -75 -44 -75 -86 0 -37 46 -84 83
-84 13 0 101 13 197 29 150 25 292 43 527 66 l52 5 -6 -52 c-13 -114 -50 -186
-158 -305 -107 -119 -238 -209 -369 -254 -94 -33 -71 -39 30 -8 209 65 412
232 554 457 28 46 35 70 47 160 11 85 11 107 1 114 -7 4 -15 7 -18 6 -3 -1
-30 -3 -60 -5z"/>
<path d="M16005 7450 c-3 -5 -3 -14 0 -20 3 -5 6 -35 7 -67 1 -32 3 -50 5 -40
4 15 17 17 94 17 84 0 91 2 114 26 27 29 32 63 13 82 -15 15 -224 17 -233 2z"/>
<path d="M11475 7421 c-33 -15 -73 -43 -88 -60 -35 -40 -153 -117 -227 -149
l-55 -23 41 5 c22 3 63 15 90 27 74 33 197 114 221 147 12 16 45 41 74 56 41
20 47 26 28 26 -13 0 -51 -13 -84 -29z"/>
<path d="M12646 7409 c-131 -31 -300 -169 -281 -229 6 -20 8 -19 41 10 37 32
113 73 176 96 l38 13 0 -49 c0 -126 74 -189 222 -190 86 0 149 17 220 60 l47
29 20 -34 c68 -116 329 -152 500 -68 76 37 161 125 205 213 44 89 50 140 7 65
-60 -106 -175 -184 -299 -206 -72 -13 -184 1 -242 31 -44 23 -87 71 -96 108
-11 44 -13 44 -58 7 -63 -51 -150 -87 -226 -92 -76 -6 -120 10 -165 57 -27 28
-30 38 -34 111 -3 87 -1 85 -75 68z"/>
<path d="M16441 7370 c-22 -43 -42 -139 -22 -109 9 14 17 15 52 6 39 -9 41
-11 35 -41 -4 -17 -16 -39 -29 -48 l-22 -18 22 0 c82 -1 151 87 134 171 -6 30
-13 35 -71 56 -36 12 -68 23 -71 23 -4 0 -16 -18 -28 -40z"/>
<path d="M11602 7381 c-75 -26 -122 -76 -122 -131 0 -25 2 -25 48 -1 40 20
112 43 112 35 0 -3 -33 -21 -72 -40 -66 -32 -69 -34 -33 -29 75 12 299 142
291 170 -5 19 -167 16 -224 -4z"/>
<path d="M9490 7349 c-45 -38 -90 -63 -90 -49 0 6 -18 1 -40 -10 -22 -11 -40
-25 -40 -30 0 -5 16 -25 35 -45 35 -34 37 -35 64 -20 54 28 116 122 109 165
-3 17 -7 15 -38 -11z"/>
<path d="M18335 7344 c-41 -34 -100 -64 -127 -64 -50 0 -52 -15 -9 -60 l40
-42 33 20 c43 26 98 106 98 143 0 16 -1 29 -2 29 -2 -1 -16 -12 -33 -26z"/>
<path d="M16188 6573 c-131 -2 -238 -5 -238 -8 0 -2 5 -27 11 -55 l11 -50
1664 0 c1472 0 1664 2 1664 15 0 8 5 15 10 15 17 0 12 77 -6 84 -15 6 -2619 5
-3116 -1z"/>
<path d="M9416 6235 c-9 -13 -16 -28 -16 -32 0 -4 -32 -83 -71 -174 -45 -106
-77 -169 -87 -171 -25 -7 -46 -52 -38 -82 6 -25 9 -26 85 -26 86 0 101 10 113
72 4 23 1 27 -25 32 -25 5 -28 10 -23 29 9 38 37 100 42 94 3 -2 -3 -23 -12
-46 -17 -44 -12 -92 7 -58 7 12 22 17 52 17 38 0 44 -3 54 -29 7 -19 7 -33 1
-39 -5 -5 -8 -22 -6 -38 l3 -29 230 0 c218 0 232 1 271 22 68 36 134 132 133
193 l0 25 -12 -23 c-7 -12 -22 -29 -34 -37 l-21 -14 19 36 c23 44 25 129 5
176 -29 71 -109 110 -214 105 -55 -3 -57 -4 -60 -32 -2 -15 -1 -39 2 -52 6
-21 12 -24 52 -24 40 0 51 -5 84 -38 67 -67 61 -175 -12 -207 l-33 -14 30 -1
c17 0 48 9 70 20 46 23 58 19 19 -7 -21 -14 -52 -19 -131 -21 l-103 -4 0 186
0 185 -37 10 c-54 15 -83 14 -83 -4 0 -8 -4 -15 -10 -15 -5 0 -10 -15 -10 -34
0 -26 5 -36 19 -41 18 -6 20 -17 23 -151 2 -79 0 -144 -3 -144 -3 0 -20 5 -36
11 -22 7 -32 18 -36 39 -4 16 -15 48 -25 72 -11 24 -34 81 -52 128 -18 47 -37
89 -42 95 -4 5 -8 22 -8 37 0 24 -4 28 -29 28 -19 0 -34 -8 -45 -25z"/>
<path d="M10655 6248 c-16 -6 -45 -22 -64 -36 l-34 -25 5 26 c5 28 -12 36 -39
19 -6 -4 -47 -89 -90 -188 -76 -175 -79 -181 -92 -155 -7 14 -42 94 -76 176
-35 83 -72 156 -82 162 -11 7 -40 16 -66 19 -39 6 -47 4 -47 -10 0 -9 -5 -16
-12 -16 -6 0 0 -12 14 -27 33 -36 58 -86 58 -115 0 -13 30 -92 66 -175 67
-153 67 -153 100 -153 37 0 32 -9 144 245 54 123 77 162 87 151 2 -1 -4 -18
-13 -36 -22 -43 -29 -153 -15 -208 14 -51 67 -113 117 -137 28 -13 57 -16 128
-13 82 3 98 6 132 30 21 15 50 45 64 68 26 41 40 51 40 25 0 -22 59 -84 101
-106 54 -27 180 -27 234 1 22 11 40 20 41 20 1 0 4 -9 7 -20 5 -18 14 -20 84
-20 76 0 79 1 96 29 25 43 21 60 -15 74 -18 6 -37 10 -41 9 -4 -1 1 10 12 25
10 16 43 89 72 163 56 145 56 146 64 138 3 -2 -9 -41 -25 -87 -17 -45 -30 -84
-30 -86 0 -3 21 -5 48 -6 84 -1 95 -18 11 -18 l-76 -1 -18 -55 c-11 -30 -15
-58 -11 -62 5 -4 11 -2 13 5 6 15 89 16 99 0 4 -6 8 -36 8 -67 l1 -56 85 -3
c75 -3 86 -1 100 18 l15 20 42 -21 c59 -29 207 -25 249 7 45 33 81 86 89 129
l7 40 -22 -28 c-53 -67 -168 -88 -245 -44 -74 42 -110 151 -86 255 13 52 43
89 96 116 35 18 17 21 -38 5 -124 -34 -203 -211 -149 -332 12 -28 31 -51 44
-57 l23 -9 -22 0 c-32 -1 -73 20 -73 37 0 18 -108 294 -121 306 -5 6 -9 23 -9
38 0 23 -4 28 -24 28 -32 0 -47 -27 -127 -218 -46 -111 -65 -148 -69 -132 l-5
22 -20 -22 c-48 -53 -144 -75 -212 -49 -40 15 -91 67 -104 107 -23 71 -8 192
30 236 9 10 34 27 56 37 46 21 20 27 -36 8 -91 -31 -139 -96 -142 -196 -4 -84
-25 -123 -89 -164 -84 -54 -173 -51 -238 7 -46 42 -63 87 -62 165 1 84 34 148
92 177 35 17 39 22 20 21 -14 0 -38 -5 -55 -11z"/>
<path d="M12587 6237 c-18 -28 -159 -357 -160 -374 0 -7 -10 -13 -21 -13 -47
0 -49 7 -48 191 1 109 -2 177 -9 185 -6 7 -31 16 -55 20 -37 5 -47 3 -59 -12
-19 -26 -19 -83 0 -90 12 -5 15 -30 15 -141 0 -121 -2 -138 -22 -173 -18 -31
-21 -43 -12 -57 10 -16 30 -18 166 -21 l155 -2 18 33 c23 44 15 64 -28 72
l-34 7 24 46 c43 87 133 308 133 330 0 31 -43 30 -63 -1z"/>
<path d="M13603 6234 c-9 -14 -32 -63 -50 -108 -19 -44 -51 -121 -71 -170 -23
-56 -43 -91 -54 -94 -10 -2 -18 -11 -18 -18 0 -8 -4 -14 -9 -14 -14 0 -21 -42
-10 -62 8 -15 22 -18 84 -18 73 0 74 0 94 34 12 19 19 41 15 49 -7 19 -51 30
-90 22 l-29 -5 26 10 c29 12 37 28 129 249 28 68 49 130 46 137 -9 23 -44 16
-63 -12z"/>
<path d="M13923 6250 c-12 -5 -36 -28 -53 -51 -25 -36 -30 -51 -30 -102 l0
-59 75 -77 c41 -42 75 -82 75 -88 0 -20 44 -15 73 7 30 24 41 63 26 91 -6 12
-42 50 -80 86 -77 73 -92 109 -65 161 9 17 21 32 28 35 7 3 4 5 -7 6 -11 0
-30 -4 -42 -9z"/>
<path d="M14193 6250 c-12 -5 -36 -28 -53 -51 -25 -36 -30 -51 -30 -102 l0
-59 75 -77 c41 -42 75 -82 75 -88 0 -20 44 -15 73 7 31 24 41 63 26 93 -7 12
-43 50 -80 85 -41 38 -70 74 -74 91 -7 32 9 79 33 97 16 12 16 13 -3 13 -11 0
-30 -4 -42 -9z"/>
<path d="M14777 6240 c-52 -41 -72 -93 -69 -176 2 -32 6 -37 106 -134 25 -25
46 -50 46 -57 0 -28 82 1 94 32 17 46 6 69 -74 151 -71 72 -80 86 -80 118 0
26 7 44 25 61 l24 25 -23 0 c-13 0 -35 -9 -49 -20z"/>
<path d="M15063 6250 c-12 -5 -36 -28 -53 -51 -25 -34 -30 -52 -30 -96 0 -51
21 -113 39 -113 13 0 111 -103 111 -117 0 -28 82 1 94 32 17 46 6 69 -75 152
-81 82 -82 84 -76 126 4 26 14 48 27 59 20 16 20 18 4 17 -11 0 -29 -4 -41 -9z"/>
<path d="M15405 6248 c-49 -18 -81 -45 -115 -98 -41 -64 -52 -112 -38 -165 6
-23 8 -53 4 -68 -15 -63 -133 -90 -181 -42 -14 13 -25 36 -25 50 0 20 -5 25
-25 25 -19 0 -28 -8 -39 -34 -17 -42 -60 -66 -116 -66 -48 0 -90 34 -90 75 0
19 -5 25 -23 25 -18 0 -27 -10 -41 -48 l-19 -48 -86 2 c-111 2 -124 5 -111 18
6 6 10 77 10 182 l0 172 -35 12 c-50 16 -75 9 -95 -26 l-16 -32 -11 29 c-10
25 -16 29 -51 29 -75 0 -97 -61 -42 -120 38 -41 76 -39 99 6 15 27 20 30 34
19 14 -10 17 -32 17 -145 0 -117 -2 -135 -21 -161 -12 -17 -19 -40 -17 -56 l3
-28 140 -3 140 -3 22 28 c13 15 23 22 23 16 0 -24 58 -43 131 -43 69 0 73 1
105 36 29 30 34 33 34 15 0 -32 49 -51 131 -51 71 0 73 0 111 40 21 23 38 47
38 55 0 24 13 18 43 -20 48 -60 95 -77 203 -73 84 3 96 6 136 33 47 34 108
137 108 183 l-1 27 -13 -30 c-16 -36 -67 -82 -113 -102 -42 -17 -127 -17 -162
1 -49 26 -88 80 -101 140 -23 109 10 193 90 234 35 17 39 22 20 21 -14 0 -38
-5 -55 -11z"/>
<path d="M16445 6233 c-10 -14 -50 -105 -91 -201 -40 -96 -75 -177 -78 -179
-3 -3 -18 -2 -33 2 -15 5 -35 7 -42 6 -12 -2 -12 0 -4 11 13 15 21 338 9 356
-4 6 -27 14 -53 18 -41 6 -48 4 -64 -17 -24 -32 -24 -66 1 -81 18 -12 20 -24
20 -145 0 -115 2 -133 18 -142 16 -10 16 -10 -1 -11 -37 0 -79 33 -133 106
-31 41 -63 78 -72 80 -10 3 -25 10 -34 15 -17 8 -18 2 -18 -73 1 -82 12 -118
39 -118 6 0 11 -8 11 -17 0 -11 -3 -14 -8 -7 -4 6 -20 15 -37 19 -33 9 -32 9
-60 0 l-20 -7 20 13 c11 7 23 17 27 23 4 6 8 84 8 172 0 182 1 180 -74 190
-38 6 -46 4 -46 -10 0 -9 -4 -16 -9 -16 -21 0 -18 -42 5 -69 23 -27 24 -36 24
-160 0 -81 -4 -131 -10 -131 -5 0 -10 -7 -10 -15 0 -8 -4 -15 -9 -15 -14 0
-21 -42 -10 -62 8 -15 22 -18 89 -18 l78 0 22 36 22 35 27 -26 c41 -38 80 -45
268 -45 l171 0 21 34 c12 19 19 41 15 49 -7 19 -52 30 -90 22 l-29 -6 31 14
c31 15 52 56 140 276 28 71 28 31 -1 -44 -14 -37 -25 -71 -25 -76 0 -5 19 -9
43 -10 78 -1 88 -18 10 -18 l-72 -1 -17 -55 c-10 -30 -14 -58 -9 -62 4 -5 10
-2 12 5 3 7 22 12 47 12 53 0 72 -29 54 -78 -19 -50 0 -62 96 -62 80 0 82 1
99 29 28 48 23 65 -26 78 -24 7 -44 18 -44 25 0 18 -112 301 -124 313 -5 5 -9
22 -9 37 0 23 -4 28 -24 28 -15 0 -30 -10 -41 -27z"/>
<path d="M10376 6218 c-14 -26 -16 -39 -8 -54 8 -15 3 -36 -19 -92 -26 -66
-28 -77 -18 -113 7 -21 17 -39 23 -39 17 1 141 299 129 311 -6 6 -28 13 -50
16 -36 5 -40 3 -57 -29z"/>
<path d="M12967 6221 c-19 -33 -16 -66 8 -75 12 -4 15 -31 15 -141 0 -123 -2
-140 -22 -175 -18 -31 -21 -43 -12 -57 10 -15 29 -18 135 -21 137 -3 169 1
169 23 0 8 4 15 8 15 10 0 42 89 41 115 0 15 -5 11 -17 -15 l-17 -35 -120 -1
c-71 -1 -111 2 -99 7 12 4 25 12 29 18 9 16 7 343 -3 353 -4 4 -28 11 -52 14
-42 6 -46 4 -63 -25z"/>
<path d="M10692 6220 c-37 -23 -62 -73 -61 -122 0 -29 1 -31 9 -11 5 12 22 29
39 37 86 45 171 -25 171 -141 0 -57 -19 -89 -64 -109 -29 -12 -30 -13 -6 -13
34 0 97 23 122 46 90 80 68 267 -38 318 -46 22 -132 19 -172 -5z"/>
<path d="M11174 6224 c-38 -19 -74 -80 -73 -125 0 -30 1 -31 9 -12 11 27 59
53 98 53 35 0 77 -30 97 -71 21 -39 57 -39 84 0 26 36 26 38 2 95 -13 29 -31
50 -50 60 -38 20 -127 20 -167 0z"/>
<path d="M11991 6222 c-41 -20 -68 -69 -75 -137 -5 -45 -5 -46 5 -17 28 91
159 93 202 3 18 -37 59 -40 82 -5 18 28 17 63 -4 117 -21 53 -139 76 -210 39z"/>
<path d="M13173 6233 l-53 -4 0 -50 c0 -47 1 -49 29 -49 32 0 45 -25 29 -54
-7 -13 -4 -16 22 -16 20 0 30 5 30 15 0 9 7 18 15 21 8 4 15 12 15 20 0 8 5
14 10 14 6 0 10 9 10 20 0 32 -28 90 -42 88 -7 -1 -37 -3 -65 -5z"/>
<path d="M13977 6222 c-26 -28 -21 -66 13 -102 36 -39 74 -38 98 2 15 25 15
32 2 70 -14 40 -18 43 -56 46 -29 2 -45 -2 -57 -16z"/>
<path d="M14590 6233 l-55 -4 3 -49 c4 -45 6 -50 28 -50 25 0 51 -34 34 -45
-20 -12 -9 -25 20 -25 23 0 30 4 30 20 0 11 4 20 8 20 4 0 16 14 26 31 14 24
16 36 8 52 -6 12 -13 30 -16 40 -3 9 -11 16 -18 15 -7 -1 -38 -3 -68 -5z"/>
<path d="M14854 6232 c-19 -12 -34 -50 -28 -66 4 -9 19 -30 35 -47 35 -38 73
-37 97 3 14 24 15 32 3 65 -16 45 -26 53 -66 53 -16 0 -35 -4 -41 -8z"/>
<path d="M15124 6233 c-19 -13 -34 -51 -28 -67 4 -9 19 -30 35 -47 35 -38 73
-37 97 3 15 25 15 31 1 70 -15 40 -19 43 -55 46 -21 1 -44 -1 -50 -5z"/>
<path d="M15455 6221 c-43 -25 -64 -63 -70 -118 -4 -35 -3 -42 4 -27 14 31 60
64 90 64 36 0 87 -33 105 -69 41 -78 22 -159 -44 -194 l-35 -19 45 7 c66 9
101 34 133 95 34 65 34 131 0 196 -39 76 -156 109 -228 65z"/>
<path d="M15870 6182 c0 -39 4 -49 23 -57 16 -8 22 -18 21 -41 -1 -28 0 -30
30 -26 61 9 94 61 75 119 -13 42 -34 53 -98 53 l-51 0 0 -48z"/>
<path d="M13120 5990 c0 -38 4 -50 15 -50 9 0 18 -7 21 -15 4 -9 19 -15 38
-15 l31 -1 -24 -19 -23 -20 31 0 c21 0 41 9 56 25 30 29 32 45 6 45 -15 0 -20
10 -25 50 l-7 50 -59 0 -60 0 0 -50z"/>
<path d="M14534 6024 c3 -9 6 -31 6 -50 0 -22 5 -34 14 -34 8 0 16 -7 20 -15
3 -8 17 -15 31 -15 29 0 33 -14 8 -29 -16 -9 -14 -10 9 -11 40 0 57 9 74 41
14 27 13 29 -6 29 -15 0 -20 7 -20 24 0 14 -4 36 -10 50 -9 24 -14 26 -71 26
-52 0 -60 -2 -55 -16z"/>
<path d="M12649 5992 l-77 -3 -17 -55 c-9 -30 -14 -58 -10 -62 4 -4 10 -1 12
6 3 7 23 12 49 12 38 0 46 -4 54 -25 5 -14 6 -35 1 -47 -5 -13 -5 -33 0 -45 8
-21 14 -23 93 -23 79 0 85 1 100 26 26 39 17 64 -28 79 -22 8 -43 12 -47 9 -4
-2 -5 4 -2 14 5 21 -30 116 -43 117 -5 0 -43 -1 -85 -3z"/>
<path d="M13669 5993 l-75 -4 -17 -47 c-21 -57 -23 -82 -5 -64 7 7 31 12 53
12 35 0 44 -4 53 -26 9 -18 9 -31 1 -46 -6 -11 -8 -31 -5 -44 l6 -23 177 0
176 0 33 33 c28 28 34 31 34 15 0 -30 51 -49 129 -49 59 0 74 4 99 25 30 25
62 81 62 109 0 12 -7 11 -36 -9 -42 -29 -108 -33 -141 -10 -11 8 -24 30 -27
50 -6 29 -11 35 -31 35 -19 0 -28 -9 -39 -34 -17 -42 -60 -66 -116 -66 -48 0
-90 34 -90 75 0 36 -41 35 -65 -2 -17 -26 -17 -27 8 -49 l26 -22 -54 1 c-43 2
-52 4 -40 13 8 6 15 14 15 17 0 16 -42 117 -48 115 -4 -1 -41 -4 -83 -5z"/>
</g>
</svg>
